<svg width="233" height="52" viewBox="0 0 233 52" fill="none" xmlns="http://www.w3.org/2000/svg">
<path d="M80.3266 28.776H89.8907V35.2967C87.8371 36.5646 85.05 37.3495 82.3509 37.3495C75.5446 37.3495 70.9679 32.8212 70.9679 26.059C70.9679 19.2365 75.4859 14.6479 82.1749 14.6479C85.7834 14.6479 88.6879 15.7648 91.3283 18.1195L91.7097 18.4818L94.4674 13.9535L94.174 13.712C90.6828 10.6932 86.7222 9.21399 82.1162 9.21399C77.4515 9.21399 73.2269 10.7838 70.2051 13.6517C66.978 16.7007 65.2764 20.9874 65.2764 26.0289C65.2764 35.8702 72.2001 42.7532 82.1162 42.7532C86.6636 42.7532 92.2377 40.9419 95.3475 38.4664L95.5236 38.3155V23.6138H80.356V28.776H80.3266Z" fill="white"/>
<path d="M127.002 42.3003V37.1079H107.581V28.0514H123.687V22.859H107.581V14.8591H127.002V9.66675H102.183V42.3003H127.002Z" fill="white"/>
<path d="M162.854 9.66675L150.503 24.942L138.181 9.66675H133.223V42.3003H138.826V19.0855L149.828 32.7306H151.148L162.15 19.0855V42.3003H167.753V9.66675H162.854Z" fill="white"/>
<path d="M181.601 9.66675H175.997V42.3003H181.601V9.66675Z" fill="white"/>
<path d="M194.773 9.81769L194.626 9.66675H189.814V42.3003H195.418V19.1157L214.253 42.1493L214.399 42.3003H219.182V9.66675H213.578V32.9419L194.773 9.81769Z" fill="white"/>
<path d="M233 9.66675H227.396V42.3003H233V9.66675Z" fill="white"/>
<path d="M32.5942 0.640564C23.8222 0.640564 16.3705 7.58387 15.4316 16.5196C6.74769 17.4856 0 25.1534 0 34.1797C0 43.9909 7.74515 51.9606 17.2799 51.9606C26.0519 51.9606 33.533 45.0173 34.4425 36.0816C43.1264 35.1156 49.8742 27.4477 49.8742 18.4215C49.8742 8.61026 42.129 0.640564 32.5942 0.640564ZM45.8256 20.4139C44.9748 26.361 40.3394 31.1307 34.5599 32.0062V20.4139H45.8256ZM4.0486 32.1873C4.89939 26.21 9.53476 21.4403 15.3143 20.5648V32.1571H4.0486V32.1873ZM30.5112 36.2024C29.5431 42.9343 23.9396 47.9456 17.2799 47.9456C10.6203 47.9456 5.01674 42.9343 4.0486 36.2024H30.5112ZM30.6579 20.4139V32.1571H19.2162V20.4139H30.6579ZM45.8256 16.3988H19.3629C20.331 9.66685 25.9345 4.6556 32.5942 4.6556C39.2539 4.6556 44.8574 9.66685 45.8256 16.3988Z" fill="white"/>
</svg>
