<svg width="233" height="42" viewBox="0 0 233 42" fill="none" xmlns="http://www.w3.org/2000/svg">
<path d="M47.0255 11.8108C38.5612 11.8108 31.9475 18.2362 31.9475 26.8381C31.9475 35.4399 38.3941 41.8104 47.0255 41.8104C55.657 41.8104 62.2157 35.3299 62.2157 26.7831C62.2157 18.2912 55.7691 11.8108 47.0255 11.8108ZM47.0826 35.6112C42.2625 35.6112 38.7304 31.8676 38.7304 26.8402C38.7304 21.7557 42.2054 18.0142 47.0255 18.0142C51.9028 18.0142 55.4328 21.8128 55.4328 26.8402C55.4328 31.8676 51.9028 35.6112 47.0826 35.6112ZM64.0642 18.3483H68.2689V41.2541H74.9947V12.3692H64.0642V18.3483ZM15.0209 18.0121C18.553 18.0121 21.3554 20.1905 22.4193 23.4308H29.5385C28.2483 16.504 22.5314 11.8108 15.078 11.8108C6.61369 11.8108 0 18.2362 0 26.8402C0 35.4441 6.44661 41.8125 15.078 41.8125C22.3643 41.8125 28.1933 37.1192 29.4835 30.1354H22.4193C21.4104 33.3756 18.608 35.6112 15.0759 35.6112C10.1987 35.6112 6.78078 31.8676 6.78078 26.8402C6.7829 21.7557 10.1458 18.0121 15.0209 18.0121ZM191.858 24.0462L186.926 23.3208C184.572 22.9866 182.891 22.204 182.891 20.3597C182.891 18.3483 185.078 17.3437 188.047 17.3437C191.298 17.3437 193.373 18.7396 193.821 21.0302H200.323C199.593 15.2202 195.109 11.8129 188.216 11.8129C181.097 11.8129 176.389 15.4444 176.389 20.5839C176.389 25.4993 179.473 28.3503 185.693 29.2429L190.625 29.9683C193.037 30.3025 194.382 31.2543 194.382 33.0415C194.382 35.332 192.028 36.2817 188.777 36.2817C184.796 36.2817 182.554 34.6616 182.218 32.2039H175.604C176.222 37.8468 180.649 41.8125 188.72 41.8125C196.063 41.8125 200.938 38.4602 200.938 32.7052C200.938 27.5656 197.408 24.8838 191.858 24.0462ZM71.6318 0.47001C69.1657 0.47001 67.315 2.25721 67.315 4.71487C67.315 7.17254 69.1635 8.95973 71.6318 8.95973C74.0979 8.95973 75.9486 7.17254 75.9486 4.71487C75.9486 2.25721 74.0979 0.47001 71.6318 0.47001ZM170.336 22.259C170.336 16.0028 166.525 11.8129 158.454 11.8129C150.831 11.8129 146.571 15.6686 145.73 21.5907H152.4C152.737 19.3001 154.53 17.4008 158.342 17.4008C161.762 17.4008 163.443 18.9088 163.443 20.7531C163.443 23.1558 160.359 23.7692 156.548 24.1604C151.392 24.7188 145.002 26.506 145.002 33.2107C145.002 38.4073 148.871 41.7575 155.036 41.7575C159.856 41.7575 162.883 39.7461 164.397 36.5609C164.621 39.4098 166.751 41.2541 169.723 41.2541H173.646V35.277H170.338V22.259H170.336ZM163.722 29.522C163.722 33.3777 160.359 36.2267 156.267 36.2267C153.744 36.2267 151.614 35.1649 151.614 32.9315C151.614 30.0825 155.034 29.3 158.172 28.9658C161.199 28.6866 162.88 28.0161 163.722 26.7302V29.522ZM128.018 11.8108C124.262 11.8108 121.123 13.3759 118.882 16.0007V0.190826H112.156V41.2541H118.769V37.4555C121.011 40.1924 124.207 41.8125 128.018 41.8125C136.089 41.8125 142.2 35.4441 142.2 26.8402C142.2 18.2362 135.977 11.8108 128.018 11.8108ZM127.01 35.6112C122.189 35.6112 118.657 31.8676 118.657 26.8402C118.657 21.8128 122.244 18.0142 127.065 18.0142C131.942 18.0142 135.36 21.7578 135.36 26.8402C135.36 31.8676 131.83 35.6112 127.01 35.6112ZM96.0688 11.8108C91.6971 11.8108 88.8375 13.598 87.1561 16.1128V12.3692H80.4853V41.252H87.2111V25.5542C87.2111 21.1402 90.0135 18.0121 94.1611 18.0121C98.0295 18.0121 100.438 20.7489 100.438 24.7167V41.2541H107.164V24.2154C107.166 16.9503 103.412 11.8108 96.0688 11.8108ZM233 25.8905C233 17.6229 226.947 11.8129 218.819 11.8129C210.187 11.8129 203.853 18.2934 203.853 26.8402C203.853 35.8354 210.636 41.8125 218.931 41.8125C225.938 41.8125 231.431 37.6776 232.831 31.8126H225.824C224.815 34.3824 222.349 35.8354 219.041 35.8354C214.724 35.8354 211.473 33.1535 210.746 28.4603H232.998V25.8905H233ZM211.139 23.655C212.205 19.6322 215.232 17.6779 218.707 17.6779C222.518 17.6779 225.432 19.8564 226.105 23.655H211.139Z" fill="white"/>
</svg>
