<svg width="245" height="54" viewBox="0 0 245 54" fill="none" xmlns="http://www.w3.org/2000/svg">
<path fillRule="evenodd" clipRule="evenodd" d="M0.949342 1.19714C7.06918 8.67364 13.7886 18.0664 14.8754 19.5856C14.9334 19.6666 14.9753 19.7252 15.0003 19.76C15.5797 20.566 16.058 21.1652 16.4212 21.6202C17.2275 22.6304 17.4668 22.9302 16.9857 23.2055C16.5976 23.4275 16.1972 23.5007 15.7977 23.5007C15.3459 23.5007 14.8368 23.2817 14.4662 22.9278C14.2042 22.6777 12.4114 20.0569 9.97026 16.2442C8.10244 13.3269 6.53929 10.9068 6.49665 10.8663C6.39806 10.7726 6.39974 10.7758 9.77983 16.8633C11.9022 20.6859 13.354 23.5107 13.354 23.6915C13.354 24.0591 13.2544 24.2523 12.8038 24.7581C12.0528 25.6016 11.7171 26.5492 11.4747 28.5103C11.203 30.7087 10.439 32.2618 8.32177 34.9195C7.0824 36.4754 6.87961 36.7605 6.56688 37.3877C6.17299 38.1773 6.06466 38.6196 6.02076 39.6168C5.97436 40.6712 6.06473 41.3523 6.38474 42.3602C6.66491 43.2427 6.95732 43.8256 7.70491 44.9911C8.35007 45.9967 8.72155 46.7442 8.72155 47.0367C8.72155 47.2694 8.76568 47.2696 9.76541 47.0425C12.1579 46.4985 14.1006 45.5423 15.1932 44.3701C15.8694 43.6445 16.0281 43.2439 16.0333 42.2498C16.0366 41.5995 16.0139 41.4634 15.8393 41.0893C15.555 40.4802 15.0375 39.9741 13.8969 39.1893C12.4024 38.1608 11.764 37.333 11.5877 36.1944C11.4431 35.2603 11.6109 34.6011 12.4377 32.8569C13.2934 31.0515 13.5055 30.2822 13.6489 28.4622C13.7416 27.2865 13.8699 26.8229 14.2055 26.4508C14.5555 26.0627 14.8706 25.9312 15.7368 25.8119C17.1489 25.6179 18.0481 25.2501 18.7873 24.5645C19.4285 23.9698 19.6968 23.3967 19.738 22.534L19.7692 21.8801L19.4109 21.4596C18.1133 19.9367 0.0803484 0 0.000493898 0C-0.0165653 0 0.410433 0.538749 0.949342 1.19714ZM9.44997 40.8098C9.74336 40.2867 9.58748 39.6145 9.09671 39.2859C8.63302 38.9757 7.91272 39.1219 7.91272 39.5263C7.91272 39.6496 7.98051 39.7394 8.13332 39.8187C8.3906 39.952 8.40928 40.1018 8.20685 40.408C8.00184 40.7183 8.01838 40.9909 8.25353 41.1761C8.63251 41.4749 9.16899 41.3106 9.44997 40.8098ZM18.2806 12.29C17.7017 12.1996 17.6773 12.189 17.9497 12.1469C18.4718 12.066 19.7045 12.1762 20.554 12.3795C22.5372 12.854 24.3418 14.0696 26.2681 16.2284L26.7798 16.8019L27.512 16.6835C30.5962 16.1846 33.7337 16.5811 36.358 17.8013C37.08 18.137 38.2182 18.8053 38.3604 18.977C38.4055 19.0318 38.489 19.3841 38.5451 19.76C38.7401 21.0606 38.6426 22.0575 38.2473 22.8021C38.0324 23.2072 38.0204 23.3356 38.1649 23.6824C38.2802 23.9591 38.6021 24.1639 38.9208 24.1635C39.5729 24.1626 40.2747 23.1014 40.6001 21.625L40.7292 21.0385L40.9852 21.3303C42.3888 22.9312 43.4916 25.1145 43.681 26.6685L43.7302 27.0736L43.4944 26.7054C43.0881 26.0716 42.6803 25.64 42.1576 25.292C41.2159 24.6647 40.2198 24.4512 37.5825 24.3113C35.2004 24.185 33.8524 23.9802 32.5156 23.5414C30.2409 22.795 29.0945 21.8009 26.3926 18.2329C25.1927 16.6481 24.4509 15.7713 23.7131 15.0651C22.0366 13.4607 20.3893 12.6192 18.2806 12.29ZM38.8976 15.8284C38.9576 14.7665 39.1007 14.066 39.3883 13.4264C39.5022 13.1732 39.6088 12.9659 39.6252 12.9659C39.6418 12.9659 39.5923 13.1528 39.5152 13.3812C39.3062 14.002 39.2717 14.8511 39.4159 15.839C39.5986 17.0925 39.7028 17.2734 41.0189 18.6275C41.6362 19.2626 42.3544 20.0636 42.6147 20.4075L43.0881 21.0328L42.6147 20.5859C42.0359 20.0394 40.7047 18.9736 40.4107 18.8213C40.2134 18.7191 40.1841 18.7209 40.0626 18.8427C39.9506 18.955 39.9268 19.1237 39.9113 19.9212C39.887 21.1643 39.7188 21.9621 39.3125 22.7599C39.0928 23.1914 39.0581 23.0993 39.2569 22.6123C39.4054 22.2487 39.4205 22.0888 39.4195 20.8855C39.4172 18.4677 39.1319 17.8864 37.4595 16.8907C37.0361 16.6385 36.3378 16.2747 35.9083 16.0822C35.4791 15.8898 35.1379 15.7222 35.1501 15.7097C35.1976 15.6622 36.8286 16.1414 37.485 16.3955C38.4614 16.7736 38.6225 16.8226 38.7411 16.777C38.8205 16.7464 38.859 16.5134 38.8976 15.8284ZM17.6601 13.9723C17.5027 15.8389 18.2299 18.336 19.4051 19.9646C20.3161 21.2271 21.7284 22.2081 22.771 22.3029C23.4536 22.3649 23.6588 22.1498 23.35 21.6958C22.9212 21.0655 22.3938 20.095 22.2543 19.6795C22.1676 19.4213 21.9792 18.6588 21.8356 17.9851C21.3454 15.6847 20.8635 14.7889 19.7505 14.1085C19.3449 13.8605 18.4787 13.536 17.9763 13.4438L17.7088 13.3946L17.6601 13.9723ZM37.4722 32.0856C31.9799 29.8597 30.0454 27.9276 30.0454 24.6677C30.0454 24.1879 30.062 23.7954 30.0819 23.7954C30.1021 23.7954 30.3144 23.9537 30.5541 24.1473C31.6678 25.0464 32.915 25.4305 36.3677 25.9373C38.3992 26.2359 39.5425 26.4767 40.5973 26.829C43.9494 27.948 46.0235 30.2188 46.5181 33.3122C46.6618 34.2109 46.5776 35.8963 46.3446 36.7847C46.1606 37.4863 45.5991 38.7508 45.4503 38.7994C45.409 38.8129 45.3684 38.6537 45.3579 38.437C45.3015 37.2755 44.7184 36.1448 43.7391 35.2976C42.6257 34.3345 41.1296 33.568 37.4722 32.0856ZM33.3511 31.8406C33.4282 32.0718 33.5476 32.598 33.6163 33.0103C34.0563 35.6456 32.682 37.7747 30.0087 38.5998C29.7256 38.687 28.6109 38.9067 27.5314 39.0876C25.3461 39.4538 24.3708 39.7132 23.391 40.1883C22.6961 40.5252 21.8549 41.0298 21.9049 41.0799C21.921 41.0962 22.0796 41.058 22.2572 40.9952C23.4928 40.5586 24.8679 40.3325 26.9571 40.2231C27.7863 40.1799 28.7293 40.1107 29.0529 40.0698C30.9142 39.8337 32.2042 39.2646 33.2075 38.2369C33.7656 37.6649 34.0984 37.1321 34.3666 36.3808C34.5366 35.9042 34.5595 35.7272 34.5608 34.8829C34.5624 34.0225 34.5417 33.8651 34.3574 33.3358C34.1163 32.642 33.8317 32.1214 33.4713 31.7142L33.211 31.4202L33.3511 31.8406ZM36.1342 37.511C35.4043 35.9319 35.2369 34.4075 35.6365 32.9859C35.6794 32.8338 35.7481 32.7094 35.7897 32.7094C35.831 32.7094 36.003 32.8033 36.1722 32.9177C36.5083 33.1456 37.1828 33.5293 38.9795 34.5154C41.2218 35.7458 42.5001 36.6985 43.3693 37.7872C44.1306 38.7404 44.6017 39.8261 44.8284 41.1501C44.957 41.9001 44.8817 43.7048 44.6906 44.4599C44.0878 46.8411 42.6867 48.7114 40.6884 49.8029C40.3957 49.9626 40.1328 50.0939 40.1042 50.0946C40.0759 50.0951 40.1826 49.8223 40.3413 49.4878C41.0135 48.0733 41.0901 46.6974 40.582 45.1661C40.2706 44.2284 39.6362 43.0842 38.355 41.1504C36.8656 38.9022 36.5004 38.3037 36.1342 37.511ZM22.3888 42.69C20.0788 43.0677 17.5429 44.2981 15.5047 46.0303L14.8979 46.5461L15.4312 46.63C18.214 47.0672 18.9633 47.455 20.8936 49.4565C22.0044 50.6081 22.3796 50.8645 23.3009 51.1012C24.6542 51.4489 25.9881 50.81 26.4457 49.5949C26.6501 49.0519 26.6228 48.1529 26.3883 47.7015C25.8304 46.6264 24.2051 46.279 23.4191 47.0664C22.7644 47.7223 22.9552 48.7104 23.7694 48.8802C23.9558 48.9194 23.9505 48.911 23.7219 48.807C23.3655 48.6447 23.2108 48.4199 23.2088 48.0621C23.2042 47.2231 24.1581 46.7521 25.0454 47.1549C25.6951 47.4502 25.9532 47.8357 25.9532 48.5117C25.9532 49.5527 25.073 50.337 24.0487 50.2088C23.5012 50.1402 22.8316 49.7877 22.4726 49.3792C21.5692 48.351 21.9211 46.7284 23.1825 46.1058C24.1427 45.632 25.4191 45.7488 26.409 46.4011C27.5462 47.1508 28.0298 47.836 29.0093 50.0847C29.3283 50.8169 29.7387 51.6412 29.9211 51.9163C30.8491 53.3144 31.9608 54 33.2998 54C34.0384 54 34.594 53.8642 35.293 53.513C35.8124 53.2518 36.5486 52.7556 36.4956 52.7025C36.4805 52.6874 36.2651 52.7548 36.0168 52.8522C34.5547 53.4263 33.0684 53.3868 32.2052 52.7508C31.6617 52.3505 31.2232 51.5529 30.9979 50.5555C30.9588 50.3828 30.8302 49.6203 30.7118 48.8609C30.4116 46.9362 30.1235 46.071 29.4516 45.0781C28.764 44.0624 27.4423 43.2099 25.9646 42.8292C25.0427 42.5916 23.3843 42.527 22.3888 42.69ZM19.1535 27.8089C19.353 27.0673 19.9975 26.36 20.6604 26.155C21.082 26.0248 21.9533 26.108 22.363 26.3175C23.157 26.7239 23.7334 27.6494 23.6083 28.3175C23.4558 29.1321 22.1433 29.7839 20.6336 29.7946C19.8624 29.8 19.5777 29.6957 19.2832 29.3C19.1009 29.0548 19.0318 28.2613 19.1535 27.8089ZM22.1603 26.608C22.5563 26.8514 22.6581 27.2112 22.4253 27.5441C22.2649 27.7735 21.7684 27.9915 21.4056 27.9915C20.8606 27.9915 20.2659 27.6019 20.2659 27.245C20.2659 26.5281 21.4062 26.1443 22.1603 26.608ZM140.5 28.6609C139.269 24.5783 141.3 21.192 145.634 20.1038C146.877 19.7916 152.505 19.9325 153.469 20.3001C153.823 20.4348 153.977 20.9519 153.981 22.0144C153.983 22.8513 154.075 23.8677 154.184 24.273C154.35 24.8873 154.253 25.0082 153.602 24.9984C153.014 24.9892 152.658 24.6456 152.161 23.6059C151.368 21.9453 150.407 21.4171 148.168 21.4109C145.31 21.4027 143.218 23.3205 143.559 25.6377C143.78 27.1456 145.292 28.6293 148.685 30.669C151.913 32.6092 153.797 34.2048 154.548 35.6344C156.555 39.4563 154.841 43.5463 150.369 45.6071C148.073 46.6648 144.225 46.7742 141.52 45.8586L139.787 45.2722V42.5138C139.787 40.0156 139.847 39.7549 140.418 39.7549C140.896 39.7549 141.103 40.0698 141.271 41.056C141.688 43.5084 143.558 44.9972 146.222 44.9972C148.831 44.9972 150.655 43.5766 151.354 41.0006C151.651 39.9032 151.6 39.4985 151.01 38.288C150.302 36.8366 149.084 35.8734 144.947 33.495C142.652 32.1751 141.028 30.4103 140.5 28.6609ZM59.4003 21.7336C58.8357 21.7336 58.6155 21.5498 58.6155 21.0783C58.6155 20.4541 58.8357 20.423 63.2593 20.423C67.3651 20.423 67.8905 20.4846 67.7964 20.9541C67.7374 21.2464 67.1701 21.6517 66.5349 21.8552L65.3798 22.2251L65.2813 30.5805C65.2152 36.1557 65.3081 39.3719 65.56 40.2463C66.309 42.8467 68.5939 44.3421 71.8177 44.3421C74.062 44.3421 75.373 43.8192 77.0201 42.2663C78.7918 40.597 79.0743 39.0108 79.0687 30.7666C79.0633 22.6348 78.9212 21.9636 77.1686 21.7949C76.3711 21.7179 76.1039 21.5328 76.1039 21.0577C76.1039 20.4652 76.367 20.423 80.0635 20.423C83.803 20.423 84.023 20.4594 84.023 21.0783C84.023 21.482 83.8013 21.7356 83.4455 21.7385C81.9173 21.752 81.8892 21.8968 81.6835 30.8137C81.4702 40.0736 81.2709 41.17 79.3877 43.4383C78.8446 44.0926 77.5494 45.0428 76.5097 45.5499C74.8154 46.3762 74.2764 46.471 71.3193 46.4657C68.5934 46.4601 67.7328 46.3289 66.3698 45.7106C64.3801 44.808 63.0862 43.6399 62.1323 41.8846C61.4664 40.6593 61.4095 39.9963 61.2554 31.6944C61.0788 22.1917 60.9933 21.7336 59.4003 21.7336ZM90.2769 21.7336C89.5225 21.7336 89.3025 21.5855 89.3025 21.0783C89.3025 20.464 89.5133 20.4247 92.6846 20.4499L96.0668 20.4767L97.6851 22.3339C98.5745 23.3552 101.475 26.5502 104.129 29.4335C106.784 32.317 109.831 35.6712 110.902 36.8877C111.972 38.1044 112.979 39.0995 113.14 39.0995C113.306 39.0995 113.388 35.6631 113.329 31.2069L113.225 23.3143L112.299 22.524C111.79 22.0891 111.011 21.7336 110.567 21.7336C109.977 21.7336 109.761 21.5554 109.761 21.0691C109.761 20.4292 109.929 20.4079 114.297 20.4957C118.012 20.5704 118.834 20.6737 118.834 21.0649C118.834 21.3437 118.375 21.6363 117.731 21.7671C117.125 21.8903 116.457 22.1616 116.247 22.37C115.976 22.639 115.838 26.1171 115.77 34.3645L115.676 45.9802H114.72C113.896 45.9802 112.916 45.057 107.677 39.3452C104.329 35.6957 100.422 31.3584 98.9936 29.7069C97.5652 28.0551 96.2853 26.6911 96.1493 26.6761C95.7662 26.6334 95.8588 41.3907 96.2506 42.7915C96.5561 43.8831 96.7661 44.071 98.0638 44.4159C99.1089 44.6933 99.5315 44.9749 99.5315 45.393C99.5315 45.9298 99.1332 45.9802 94.912 45.9802C90.6151 45.9802 90.2925 45.9375 90.2925 45.366C90.2925 44.9477 90.6033 44.69 91.2674 44.558C93.2822 44.158 93.416 43.5229 93.529 33.8155C93.5923 28.3786 93.4994 24.5745 93.2833 23.7779C92.9035 22.3772 91.9572 21.7336 90.2769 21.7336ZM124.876 21.7336C124.169 21.7336 123.949 21.578 123.949 21.0783C123.949 20.4522 124.169 20.423 128.899 20.423C133.628 20.423 133.848 20.4522 133.848 21.0783C133.848 21.559 133.628 21.7336 133.023 21.7336C132.57 21.7336 131.895 22.0345 131.525 22.4021C130.871 23.0512 130.855 23.3739 130.948 33.4055C131.038 43.1982 131.077 43.7648 131.684 44.205C132.036 44.4606 132.667 44.6697 133.086 44.6697C133.628 44.6697 133.848 44.8586 133.848 45.3251C133.848 45.9512 133.628 45.9802 128.899 45.9802C124.282 45.9802 123.949 45.939 123.949 45.367C123.949 44.9057 124.273 44.702 125.256 44.5458C127.209 44.2358 127.309 43.601 127.187 32.2738C127.09 23.2026 127.048 22.637 126.443 22.1982C126.091 21.9427 125.386 21.7336 124.876 21.7336ZM159.401 21.7336C158.95 21.7336 158.607 21.4843 158.5 21.0783C158.333 20.4446 158.49 20.423 163.246 20.423C167.945 20.423 168.164 20.4522 168.164 21.0783C168.164 21.5819 167.945 21.7336 167.215 21.7336C165.138 21.7336 165.184 22.1084 168.328 30.6774C169.928 35.0393 171.482 39.1827 171.781 39.8849L172.324 41.1618L174.844 34.4785C177.811 26.6115 178.196 25.1567 177.692 23.7219C177.341 22.7218 175.976 21.7336 174.945 21.7336C174.654 21.7336 174.434 21.4519 174.434 21.0783C174.434 20.4512 174.654 20.423 179.549 20.423C184.443 20.423 184.663 20.4512 184.663 21.0783C184.663 21.5446 184.443 21.7336 183.901 21.7336C182.514 21.7336 181.902 22.4683 182.101 23.8955C182.307 25.3648 187.982 41.1555 188.22 40.9192C188.607 40.5349 194.892 23.5361 194.892 22.8735C194.892 22.0797 194.333 21.7336 193.05 21.7336C192.472 21.7336 192.252 21.5531 192.252 21.0783C192.252 20.4594 192.472 20.423 196.212 20.423C199.57 20.423 200.171 20.5004 200.171 20.9315C200.171 21.2114 199.76 21.5826 199.257 21.7566C198.126 22.1481 197.842 22.595 196.423 26.2153C195.8 27.8051 193.85 32.7806 192.089 37.2714C190.329 41.7628 188.813 45.6333 188.72 45.8726C188.628 46.1122 188.082 46.308 187.507 46.308H186.463L184.093 40.1644C182.789 36.7857 181.249 32.7827 180.67 31.2689C179.679 28.6751 179.596 28.5624 179.222 29.3028C179.005 29.7354 177.439 33.7455 175.742 38.2145L172.657 46.3401L171.506 46.2422L170.355 46.1442L165.964 34.7018C163.511 28.3089 161.255 22.9224 160.852 22.4964C160.455 22.0767 159.802 21.7336 159.401 21.7336ZM225.379 21.8726C225.324 21.7481 225.324 21.3008 225.324 21.3008C225.324 21.3008 225.312 21.1395 225.379 21.0534C225.447 20.9676 225.471 20.9653 225.714 20.9424L225.716 20.9421C226.607 20.8577 228.394 20.7156 229.886 20.6507C230.023 20.6448 230.175 20.6379 230.34 20.6304L230.343 20.6303L230.345 20.6302L230.346 20.6301C231.988 20.5559 234.926 20.4566 236.945 20.5572C240.819 20.7501 243.575 22.6162 244.513 25.7C245.453 28.7837 244.956 31.6784 243.676 33.521C242.396 35.3635 240.244 36.95 236.666 36.8467C233.713 36.7615 232.923 36.2104 232.291 35.7702C232.158 35.6771 232.031 35.5888 231.893 35.5113V39.4439C231.924 42.1259 231.947 43.4141 232.155 43.8909C232.436 44.5329 233.071 44.9283 234.308 45.2315C234.308 45.2315 234.867 45.3622 235.012 45.5016C235.156 45.6409 235.156 45.9504 235.156 45.9504C235.156 45.9504 235.185 46.2399 235.069 46.3874C234.953 46.5349 234.729 46.5054 234.729 46.5054L229.253 46.4614L225.951 46.4527C225.951 46.4527 225.604 46.5189 225.474 46.38C225.344 46.2409 225.356 45.9512 225.356 45.9512C225.356 45.9512 225.385 45.6392 225.536 45.4995C225.688 45.3597 226.252 45.2035 226.252 45.2035C227.525 44.8472 228.077 44.4703 228.366 43.7602C228.599 43.1877 228.6 42.1262 228.598 33.4632C228.596 25.2478 228.584 23.7154 228.394 23.2746C228.115 22.6222 227.414 22.4493 226.417 22.2032L226.416 22.2031C226.219 22.1543 226.009 22.1026 225.789 22.0438C225.789 22.0438 225.434 21.997 225.379 21.8726ZM241.326 28.5762C241.326 29.9233 241.302 32.0324 239.863 33.3806C238.424 34.7287 235.59 35.0978 233.667 34.7224C233.06 34.6041 232.714 34.4218 232.447 34.2811L232.42 34.2671L231.928 34.0087L231.899 29.2756C231.881 26.3099 231.912 24.3777 231.982 24.1015C232.046 22.5377 234.361 22.3432 235.492 22.4011C240.331 22.4011 241.185 26.4638 241.326 28.5762ZM210.185 20.6065C210.185 20.6065 209.949 20.6969 209.59 20.8323L208.299 21.4972L207.368 23.8118C206.857 25.0847 205.921 27.4215 205.288 29.0047C204.137 31.8882 203.376 33.7826 202.576 35.76C202.341 36.3416 201.63 38.1127 200.997 39.6959C200.363 41.2788 199.73 42.7854 199.59 43.0438C199.567 43.0868 199.542 43.1331 199.516 43.1819C199.162 43.8452 198.547 44.9972 197.46 45.1715C197.46 45.1715 196.863 45.23 196.642 45.4477C196.42 45.6656 196.442 45.8436 196.442 45.8436V46.118C196.442 46.118 196.462 46.2511 196.587 46.3172C196.713 46.3836 196.882 46.3874 196.882 46.3874L200.856 46.3424H204.964C204.964 46.3424 205.254 46.3762 205.366 46.2836C205.478 46.191 205.509 46.0537 205.509 46.0537V45.7648C205.509 45.7648 205.452 45.4515 205.289 45.3291C205.127 45.2071 204.517 45.1234 204.517 45.1234C202.873 44.908 202.59 43.6687 202.792 42.5542C202.892 42.0067 203.553 39.9812 204.297 37.9421L204.555 37.2374L208.858 37.2046C211.225 37.1865 213.269 37.1987 213.4 37.2318C213.586 37.2788 213.848 37.8081 214.616 39.6931C215.779 42.5491 215.872 42.8971 215.615 43.4314C215.599 43.4639 215.582 43.4998 215.564 43.5385C215.323 44.0552 214.853 45.0593 213.671 45.1615C213.671 45.1615 213.043 45.1832 212.887 45.3701C212.731 45.5573 212.765 45.7724 212.765 45.7724V46.0583C212.765 46.0583 212.807 46.2259 212.887 46.2923C212.968 46.3586 213.104 46.3419 213.104 46.3419L217.011 46.3139L222.502 46.3136C222.502 46.3136 222.717 46.3365 222.776 46.2541C222.834 46.1715 222.847 46.0743 222.847 46.0743V45.6946C222.847 45.6946 222.823 45.4927 222.717 45.3813C222.612 45.2701 221.899 45.1526 221.899 45.1526C220.99 45.0064 220.537 44.2582 220.199 43.701C220.113 43.5588 220.035 43.4291 219.958 43.3251C219.802 43.1127 219.243 41.9489 218.806 40.8297C218.369 39.7104 217.382 37.1819 216.614 35.2112C215.845 33.2404 214.772 30.4912 214.23 29.1021C213.688 27.7127 212.657 25.0693 211.94 23.2277C211.822 22.9255 211.717 22.654 211.622 22.411L211.622 22.4099C211.141 21.1731 210.947 20.6741 210.894 20.6065C210.721 20.3872 210.185 20.6065 210.185 20.6065ZM209.929 28.1321C209.756 27.7122 209.451 26.9589 209.252 26.4582C208.889 25.5479 208.752 25.3383 208.639 25.5263C208.607 25.5813 208.378 26.2033 208.132 26.9088C206.54 31.4765 205.819 33.5332 205.674 33.9207C205.583 34.1644 205.509 34.4154 205.509 34.4787C205.509 34.5515 206.804 34.5939 209.024 34.5939C210.957 34.5939 212.538 34.57 212.538 34.5408C212.538 34.5115 212.366 34.0756 212.155 33.5716C211.944 33.0675 211.428 31.8094 211.008 30.7755C210.589 29.7417 210.103 28.5523 209.929 28.1321Z" fill="white"/>
</svg>
