<svg width="183" height="61" viewBox="0 0 183 61" fill="none" xmlns="http://www.w3.org/2000/svg">
<path d="M130.411 47.0183V0H139.866V47.0183H130.411Z" fill="white"/>
<path d="M20.2607 60.9851H0V13.9668H19.4503C28.9053 13.9668 34.4027 19.113 34.4027 27.1767C34.4027 32.3905 30.8638 35.7673 28.419 36.8883C31.3366 38.212 35.078 41.1836 35.078 47.4509C35.078 56.2306 28.8918 60.9851 20.2607 60.9851ZM18.6939 22.1521H9.44149V32.9848H18.6939C22.7055 32.9848 24.9477 30.8101 24.9477 27.5684C24.9477 24.3402 22.7055 22.1521 18.6939 22.1521ZM19.3017 41.2376H9.44149V52.7997H19.3017C23.5835 52.7997 25.623 50.1659 25.623 46.9917C25.623 43.8175 23.5835 41.2512 19.3017 41.2512V41.2376Z" fill="white"/>
<path d="M63.9132 41.6969V60.9851H54.5257V41.6969L39.9785 13.9668H50.2439L59.2802 32.9173L68.1949 13.9668H78.4604L63.9132 41.6969Z" fill="white"/>
<path d="M105.259 60.9851H84.998V13.9668H104.448C113.903 13.9668 119.401 19.113 119.401 27.1767C119.401 32.3905 115.862 35.7673 113.417 36.8883C116.335 38.212 120.076 41.1836 120.076 47.4509C120.076 56.2306 113.89 60.9851 105.259 60.9851ZM103.692 22.1521H94.4395V32.9848H103.692C107.704 32.9848 109.946 30.8101 109.946 27.5684C109.946 24.3402 107.704 22.1521 103.692 22.1521ZM104.3 41.2376H94.4395V52.7997H104.3C108.582 52.7997 110.621 50.1659 110.621 46.9917C110.621 43.8175 108.582 41.2512 104.3 41.2512V41.2376Z" fill="white"/>
<path d="M170.326 22.1521V60.9851H160.885V22.1521H148.229V13.9668H182.982V22.1521H170.326Z" fill="white"/>
</svg>
