<svg width="137" height="32" viewBox="0 0 137 32" fill="none" xmlns="http://www.w3.org/2000/svg">
<path d="M107.101 15.7273C107.101 14.9083 107.101 14.1501 107.07 13.4524C107.04 12.7548 106.979 12.0875 106.888 11.5112C106.797 10.9046 106.615 10.3585 106.342 9.81257C106.1 9.26659 105.705 8.78128 105.25 8.29597C104.583 7.62867 103.855 7.14336 103.036 6.77938C102.217 6.44573 101.277 6.2334 100.215 6.2334C99.1537 6.2334 98.2135 6.41539 97.3945 6.77938C96.5756 7.11303 95.8172 7.62867 95.1499 8.29597C94.6646 8.78128 94.331 9.26659 94.0884 9.81257C93.8457 10.3585 93.6334 10.9046 93.5424 11.5112C93.4514 12.1178 93.3907 12.7548 93.3604 13.4524C93.3301 14.1501 93.3301 14.9083 93.3301 15.7273C93.3301 16.5462 93.3301 17.2743 93.3604 18.0022C93.3907 18.6998 93.4514 19.3671 93.5424 19.9434C93.6334 20.5501 93.8154 21.0961 94.0884 21.642C94.331 22.188 94.7253 22.6733 95.1499 23.1586C95.8172 23.826 96.5453 24.3112 97.3945 24.6752C98.2135 25.0089 99.1537 25.2212 100.215 25.2212C101.277 25.2212 102.187 25.0392 103.036 24.6752C103.855 24.3416 104.613 23.826 105.25 23.1586C105.736 22.6733 106.069 22.188 106.342 21.642C106.585 21.0961 106.797 20.5501 106.888 19.9434C106.979 19.3368 107.07 18.6998 107.07 18.0022C107.101 17.2439 107.101 16.5462 107.101 15.7273ZM103.491 15.7273C103.491 16.6069 103.491 17.3653 103.461 17.9719C103.431 18.5785 103.4 19.0335 103.309 19.4278C103.249 19.7917 103.158 20.1254 103.036 20.3378C102.915 20.5804 102.794 20.8231 102.581 21.0051C102.339 21.3084 101.975 21.551 101.611 21.733C101.216 21.915 100.761 21.9757 100.246 22.006C99.7301 22.006 99.3054 21.915 98.8807 21.733C98.4864 21.551 98.1528 21.3387 97.8798 21.0051C97.6978 20.8231 97.5765 20.6108 97.4248 20.3378C97.3035 20.095 97.2125 19.7917 97.1519 19.4278C97.0912 19.0638 97.0305 18.5785 97.0305 17.9719C97.0002 17.3653 97.0002 16.6372 97.0002 15.7273C97.0002 14.8477 97.0002 14.0894 97.0305 13.4827C97.0609 12.8761 97.0912 12.4211 97.1519 12.0268C97.2125 11.6325 97.3035 11.3292 97.4248 11.1169C97.5462 10.8742 97.6675 10.6315 97.8798 10.4495C98.1225 10.1462 98.4864 9.90356 98.8807 9.72157C99.275 9.53958 99.7301 9.47892 100.246 9.44859C100.761 9.44859 101.186 9.53958 101.611 9.72157C101.975 9.90356 102.339 10.1159 102.581 10.4495C102.763 10.6315 102.885 10.8439 103.036 11.1169C103.158 11.3595 103.249 11.6628 103.309 12.0268C103.37 12.3908 103.431 12.8761 103.461 13.4827C103.461 14.0894 103.491 14.8477 103.491 15.7273Z" fill="white"/>
<path d="M136.07 6.71885C136.07 6.53686 135.918 6.41553 135.767 6.41553H132.793C132.611 6.41553 132.49 6.56719 132.49 6.71885V17.8204L125.18 6.50653C125.119 6.44586 125.089 6.41553 124.998 6.41553H122.208C122.056 6.41553 121.904 6.56719 121.904 6.71885C121.904 12.7246 121.904 18.7303 121.904 24.6753C121.904 24.8573 122.056 24.9787 122.208 24.9787H125.18C125.362 24.9787 125.483 24.827 125.483 24.6753V13.5435L132.793 24.8877C132.854 24.9483 132.884 24.9787 132.975 24.9787H135.767C135.949 24.9787 136.07 24.827 136.07 24.6753V6.71885Z" fill="white"/>
<path d="M115.959 6.71885C115.959 6.53686 115.807 6.41553 115.656 6.41553H112.683C112.501 6.41553 112.38 6.56719 112.38 6.71885V24.6753C112.38 24.8573 112.532 24.9787 112.683 24.9787H115.656C115.838 24.9787 115.959 24.827 115.959 24.6753V6.71885Z" fill="white"/>
<path d="M80.1057 15.7273C80.1057 14.8477 80.1057 14.0894 80.136 13.4827C80.1663 12.8761 80.1967 12.4211 80.2573 12.0268C80.5303 10.4192 81.774 9.47892 83.3512 9.47892C84.3824 9.47892 85.2925 9.8429 85.8991 10.7225C86.1417 11.0866 86.3541 11.5415 86.4754 12.0571C86.4754 12.1178 86.5057 12.1481 86.5664 12.1481H90.0849C90.1455 12.1481 90.1455 12.1178 90.1455 12.0571C89.7816 9.90356 88.5987 7.90166 86.5361 6.93104C85.5958 6.47606 84.5038 6.2334 83.2905 6.2334C81.3189 6.2334 79.6204 6.93104 78.2555 8.26564C77.4668 9.05428 76.9815 9.99456 76.7389 11.0562C76.5265 12.0875 76.4355 13.6343 76.4355 15.6666C76.4355 17.6989 76.5265 19.2458 76.7389 20.277C76.9512 21.3387 77.4971 22.279 78.2555 23.0676C79.6204 24.4326 81.2886 25.0998 83.2905 25.0998C84.4734 25.0998 85.5655 24.8875 86.5361 24.4022C88.5683 23.4317 89.7816 21.4904 90.1455 19.2761C90.1455 19.2154 90.1455 19.1851 90.0849 19.1851H86.5664C86.5057 19.1851 86.4754 19.2154 86.4754 19.2761C86.3541 19.7917 86.1721 20.2164 85.8991 20.6108C85.2925 21.46 84.3824 21.824 83.3512 21.8543C81.774 21.8543 80.5607 20.9141 80.2573 19.3064C80.1967 18.9425 80.136 18.4572 80.136 17.8506C80.1057 17.3653 80.1057 16.6069 80.1057 15.7273Z" fill="white"/>
<path d="M42.8584 6.71885C42.8584 6.53686 42.7068 6.41553 42.5551 6.41553H39.5826C39.4006 6.41553 39.2793 6.56719 39.2793 6.71885V24.6753C39.2793 24.8573 39.431 24.9787 39.5826 24.9787H42.5551C42.7371 24.9787 42.8584 24.827 42.8584 24.6753V19.3976L45.285 16.516L50.2292 24.918C50.2595 24.9787 50.3202 25.009 50.4112 25.009H54.051C54.2026 25.009 54.233 24.918 54.1723 24.7663L47.7116 13.8165L53.6567 6.68852C53.778 6.53685 53.7173 6.41553 53.5353 6.41553H49.5315C49.4708 6.41553 49.4405 6.41553 49.4101 6.47619L42.8584 14.2715V6.71885Z" fill="white"/>
<path d="M64.6967 21.9452C62.998 21.9452 61.4815 20.3679 61.4815 18.5176V6.74888C61.4815 6.56688 61.3298 6.44556 61.1781 6.44556H58.2057C58.0237 6.44556 57.9023 6.59721 57.9023 6.74888V18.4873C57.9023 22.6125 60.9961 25.221 64.7573 25.221C68.5185 25.221 71.6123 22.6125 71.6123 18.4873V6.74888C71.6123 6.56688 71.4607 6.44556 71.309 6.44556H68.3365C68.1545 6.44556 68.0332 6.59721 68.0332 6.74888V18.5176C67.8815 20.3679 66.3649 21.9452 64.6967 21.9452Z" fill="white"/>
<path d="M9.06923 15.7271L18.3811 25.039L24.2654 19.1546C25.2968 18.1234 26.9953 18.1234 28.0267 19.1546C29.0579 20.1859 29.0579 21.8845 28.0267 22.9158L20.2617 30.6808C19.2304 31.712 17.5318 31.712 16.5005 30.6808L5.33841 19.4883V26.1613C5.33841 27.6173 4.15547 28.8305 2.6692 28.8305C1.18294 28.8305 0 27.6476 0 26.1613V5.35359C0 3.86732 1.18294 2.68437 2.6692 2.68437C4.15547 2.68437 5.33841 3.86732 5.33841 5.35359V11.966L16.5309 0.773464C17.5621 -0.257821 19.2607 -0.257821 20.292 0.773464L28.057 8.53844C29.0883 9.56972 29.0883 11.2683 28.057 12.2996C27.0257 13.3309 25.3271 13.3309 24.2959 12.2996L18.4115 6.4152L9.06923 15.7271ZM18.4115 13.0579C16.9252 13.0579 15.7423 14.2408 15.7423 15.7271C15.7423 17.2133 16.9252 18.3963 18.4115 18.3963C19.8977 18.3963 21.0806 17.2133 21.0806 15.7271C21.0503 14.2408 19.8674 13.0579 18.4115 13.0579Z" fill="white"/>
</svg>
