<svg width="138" height="29" viewBox="0 0 138 29" fill="none" xmlns="http://www.w3.org/2000/svg">
<path fillRule="evenodd" clipRule="evenodd" d="M14.1739 0C22.0172 0 28.3479 6.33065 28.3479 14.1739C28.3479 22.0172 22.0172 28.3479 14.1739 28.3479C6.33065 28.3479 0 22.0172 0 14.1739C0.0560234 6.33065 6.38667 0 14.1739 0ZM14.6781 7.28305H14.1739V8.23545H13.0535H12.8854V18.5438H14.1739V19.4401H14.6781V18.5438H15.9107V8.29147H14.6781V7.28305ZM17.0311 12.7733H16.8631V14.1179H18.0956V16.1348H18.5438V14.1179H19.7763V12.7733H18.5438V10.7565H18.0956V12.7733H17.0311ZM20.7847 5.99451H20.6166V16.1908H21.8491V17.0311H22.2973V16.1908H23.5298V5.99451H22.2973V4.98609H21.8491V5.99451H20.7847ZM4.87404 11.933H4.70597V22.1853H5.99451V23.3058H6.49872V22.1853H7.73124V11.933H6.49872V10.9806H5.99451V11.933H4.87404ZM9.01977 19.104H8.8517V22.0732H10.1402V23.0256H10.6445V22.0732H11.877V19.104H10.6445V18.1516H10.1402V19.104C10.0842 19.104 9.01977 19.104 9.01977 19.104Z" fill="white"/>
<path fillRule="evenodd" clipRule="evenodd" d="M34.1185 14.3982C34.1185 15.2945 34.5107 15.6867 35.4071 15.6867H41.1775C42.0738 15.6867 42.466 15.2945 42.466 14.3982V11.9892H39.6648V12.6614C39.6648 12.8855 39.5528 13.0536 39.2727 13.0536H37.648C37.4239 13.0536 37.2558 12.9416 37.2558 12.6614V4.48202C37.2558 3.58565 36.8637 3.19348 35.9673 3.19348H32.998V5.82658H33.7264C33.9504 5.82658 34.1185 5.93863 34.1185 6.21875V14.3982ZM44.2588 5.65851H46.7798V3.19348H44.2588V5.65851ZM44.0347 14.3982C44.0347 15.2945 44.4268 15.6867 45.3232 15.6867H48.1244V13.1096H47.4521C47.228 13.1096 47.0599 12.9976 47.0599 12.7175V7.95547C47.0599 7.0591 46.6678 6.66694 45.7714 6.66694H42.9702V9.18799H43.6425C43.8666 9.18799 44.0347 9.30004 44.0347 9.58015V14.3982ZM48.8527 14.2301C48.8527 14.2301 50.2533 15.8548 52.8303 15.8548C54.9032 15.8548 56.5279 14.7343 56.5279 12.9416C56.5279 9.9163 51.99 10.0283 51.99 9.13197C51.99 8.85185 52.3822 8.7398 52.7743 8.7398C53.2225 8.7398 53.6147 8.90787 53.6147 9.13197V9.58015H56.2478V8.51571C56.2478 6.89103 54.2309 6.49887 52.7743 6.49887C50.8695 6.49887 49.0768 7.33922 49.0768 9.24401C49.0768 12.1572 53.5587 12.3813 53.5587 13.1657C53.5587 13.5018 53.3346 13.6138 52.8864 13.6138C51.4858 13.6138 50.2533 12.3253 50.2533 12.3253L48.8527 14.2301ZM58.3767 12.3253C58.3767 15.3506 61.1218 15.7427 62.5784 15.7427C63.0826 15.7427 63.4188 15.6867 63.4188 15.6867V13.0536C63.4188 13.0536 63.2507 13.0536 63.0266 13.0536C62.4664 13.0536 61.4019 12.9416 61.4019 11.8771V8.9639H63.3067V6.61091H61.4019V4.2019H58.4887V6.61091H57.2562V8.9639H58.4327L58.3767 12.3253ZM65.6037 5.65851H68.1247V3.19348H65.6037V5.65851ZM65.3796 14.3982C65.3796 15.2945 65.7718 15.6867 66.6681 15.6867H69.4693V13.1096H68.741C68.5169 13.1096 68.3488 12.9976 68.3488 12.7175V7.95547C68.3488 7.0591 67.9567 6.66694 67.0603 6.66694H64.2591V9.18799H64.9314C65.1555 9.18799 65.3236 9.30004 65.3236 9.58015L65.3796 14.3982ZM71.206 15.6307H74.2313V11.653C74.2313 11.2048 74.2873 10.8127 74.3994 10.4765C74.6795 9.6922 75.2397 9.18799 76.1921 9.18799C76.8644 9.18799 77.2006 9.52413 77.2006 10.3645V14.3421C77.2006 15.2385 77.5927 15.6307 78.4891 15.6307H81.2903V13.1096H80.618C80.3939 13.1096 80.2258 12.9976 80.2258 12.7175V9.80425C80.2258 7.28319 78.8252 6.44284 76.9765 6.44284C75.4078 6.44284 74.5675 7.28319 74.1193 8.0115H74.0632C74.0632 8.0115 74.0632 7.89945 74.0632 7.7874V7.67536C74.0632 7.0591 73.6151 6.66694 72.8307 6.66694H70.1416V9.18799H70.8139C71.038 9.18799 71.206 9.30004 71.206 9.58015V15.6307ZM81.9065 10.8687C81.9065 13.1657 83.2511 15.4066 85.9402 15.4066C87.0047 15.4066 87.6769 15.1265 88.1811 14.5662H88.2372C88.2372 14.5662 88.2372 14.7903 88.2372 14.9024V15.0144C88.2372 16.359 87.2288 16.7512 86.1643 16.7512C84.7637 16.7512 83.6432 16.1909 83.6432 16.1909L82.7469 18.5439C83.6432 18.9921 84.9318 19.3282 86.1643 19.3282C88.6293 19.3282 91.2064 18.1517 91.2064 14.8464V9.58015C91.2064 9.35606 91.3745 9.24401 91.5986 9.24401H92.2148V6.72296H89.4697C88.7974 6.72296 88.5173 7.17115 88.5173 7.45126V7.50729H88.4613C88.4613 7.50729 87.6769 6.44284 85.8842 6.44284C83.2511 6.49887 81.9065 8.62776 81.9065 10.8687ZM86.6685 12.8855C85.492 12.8855 84.9318 11.8771 84.9318 10.7566C84.9318 9.74822 85.492 8.9639 86.5565 8.9639C87.4528 8.9639 88.2932 9.30004 88.2932 10.9247C88.2932 12.4934 87.4528 12.8855 86.6685 12.8855ZM93.8395 15.6307H96.5847V12.7735H93.8395V15.6307ZM99.1617 15.6307H102.299V10.7566H106.501V15.6307H109.638V6.21875C109.638 5.99465 109.75 5.82658 110.03 5.82658H110.759V3.19348H107.789C106.893 3.19348 106.501 3.58565 106.501 4.48202V8.17957H102.299V4.48202C102.299 3.58565 101.907 3.19348 101.011 3.19348H98.0413V5.82658H98.7696C98.9937 5.82658 99.1617 5.93863 99.1617 6.21875V15.6307ZM111.543 11.1488C111.543 13.5578 113.28 15.8548 116.473 15.8548C118.882 15.8548 120.283 14.4542 120.283 14.4542L119.106 12.4374C119.106 12.4374 117.986 13.3897 116.697 13.3897C115.745 13.3897 114.848 12.8855 114.624 11.7651H120.283C120.283 11.7651 120.339 11.1488 120.339 10.8687C120.339 8.40366 118.826 6.55489 116.193 6.55489C113.336 6.49886 111.543 8.51571 111.543 11.1488ZM114.736 9.86027C114.904 9.18799 115.353 8.68378 116.249 8.68378C116.865 8.68378 117.313 9.30004 117.313 9.86027H114.736ZM122.243 14.3982C122.243 15.2945 122.636 15.6867 123.532 15.6867H126.333V13.1096H125.661C125.437 13.1096 125.269 12.9976 125.269 12.7175V4.48202C125.269 3.58565 124.877 3.19348 123.98 3.19348H121.179V5.71454H121.851C122.075 5.71454 122.243 5.82658 122.243 6.1067V14.3982ZM128.07 19.1602H131.095V15.9108C131.095 15.4626 131.039 15.1265 131.039 15.1265H131.095C131.095 15.1265 131.935 15.9108 133.392 15.9108C135.801 15.9108 137.594 14.062 137.594 11.2048C137.594 8.40366 135.969 6.49887 133.56 6.49887C131.655 6.49887 130.871 7.67536 130.871 7.67536H130.815V7.50729C130.815 7.11512 130.535 6.72296 129.638 6.72296H127.005V9.18799H127.678C127.902 9.18799 128.07 9.30004 128.07 9.58015V19.1602ZM130.983 11.2048C130.983 9.63618 131.823 9.01992 132.72 9.01992C133.784 9.01992 134.457 9.9163 134.457 11.2048C134.457 12.6054 133.616 13.3337 132.72 13.3337C131.543 13.3897 130.983 12.3253 130.983 11.2048Z" fill="white"/>
<path fillRule="evenodd" clipRule="evenodd" d="M34.1182 26.2188H34.9585V20.6165H34.1182V26.2188ZM36.023 26.2188H36.8073V22.5213H35.9669V26.2188H36.023ZM36.4151 20.8405C36.135 20.8405 35.9109 21.0086 35.9109 21.3448C35.9109 21.6809 36.135 21.849 36.4151 21.849C36.6952 21.849 36.9193 21.6809 36.9193 21.3448C36.9193 21.0086 36.6952 20.8405 36.4151 20.8405ZM38.544 23.5297C38.544 23.2496 38.8802 23.1375 39.2163 23.1375C39.6645 23.1375 40.1687 23.3056 40.5048 23.4737V22.7453C40.1687 22.5773 39.6645 22.4092 39.1603 22.4092C38.432 22.4092 37.7037 22.6893 37.7037 23.5297C37.7037 24.8742 39.9446 24.5941 39.9446 25.2664C39.9446 25.5465 39.6085 25.6586 39.1603 25.6586C38.7121 25.6586 38.1519 25.5465 37.7597 25.2664V25.9947C38.0958 26.2188 38.6561 26.3308 39.2163 26.3308C40.0567 26.3308 40.785 26.0507 40.785 25.2664C40.7289 23.9218 38.544 24.202 38.544 23.5297ZM42.5777 24.9303V23.2496H43.9223V22.5213H42.5777V21.2327L41.7374 21.4568V22.5773H41.0651V23.3056H41.7374V25.1544C41.7374 25.9947 42.2976 26.3869 43.0259 26.3869C43.362 26.3869 43.7542 26.3308 44.0343 26.2188V25.4345C43.8102 25.5465 43.5301 25.6025 43.306 25.6025C42.8018 25.6025 42.5777 25.4345 42.5777 24.9303ZM44.7066 26.2188H45.5469V22.5213H44.7066V26.2188ZM45.1548 20.8405C44.8747 20.8405 44.6506 21.0086 44.6506 21.3448C44.6506 21.6809 44.8747 21.849 45.1548 21.849C45.4349 21.849 45.659 21.6809 45.659 21.3448C45.659 21.0086 45.4349 20.8405 45.1548 20.8405ZM48.6282 22.4092C48.068 22.4092 47.6198 22.6893 47.3397 23.0255V22.5213H46.6114V26.2188H47.4517V23.7538C47.6758 23.4737 48.012 23.1375 48.4602 23.1375C48.9644 23.1375 49.3005 23.4176 49.3005 24.0339V26.2188H50.1409V23.9218C50.1409 23.0815 49.5246 22.4092 48.6282 22.4092ZM54.1746 23.1375C53.8944 22.8014 53.4463 22.4652 52.774 22.4652C51.6535 22.4652 50.9252 23.3616 50.9252 24.426C50.9252 25.4905 51.6535 26.3869 52.774 26.3869C53.4463 26.3869 53.8384 26.1068 54.1185 25.7706V26.2188C54.1185 27.0592 53.5023 27.2832 52.774 27.2832C52.2698 27.2832 51.7656 27.1712 51.3734 26.8911V27.6754C51.8216 27.8995 52.3258 28.0115 52.886 28.0115C53.9505 28.0115 54.9589 27.5073 54.9589 26.1628V22.5213H54.1746V23.1375ZM54.0625 24.8742C53.8944 25.2664 53.4463 25.6025 52.886 25.6025C52.2137 25.6025 51.7095 25.0983 51.7095 24.37C51.7095 23.6417 52.2137 23.1375 52.886 23.1375C53.4463 23.1375 53.8944 23.5297 54.0625 23.9218V24.8742ZM59.4968 22.4092C58.4884 22.4092 57.4799 23.0815 57.4799 24.37C57.4799 25.6586 58.4323 26.3308 59.4968 26.3308C60.5612 26.3308 61.5136 25.6586 61.5136 24.37C61.5136 23.0815 60.5612 22.4092 59.4968 22.4092ZM59.4968 25.6025C58.8245 25.6025 58.3203 25.1544 58.3203 24.426C58.3203 23.6977 58.8245 23.2496 59.4968 23.2496C60.1691 23.2496 60.6733 23.6977 60.6733 24.426C60.6733 25.0983 60.2251 25.6025 59.4968 25.6025ZM64.3148 22.4092C63.7546 22.4092 63.3064 22.6893 63.0263 23.0255V22.5213H62.298V26.2188H63.1383V23.7538C63.3624 23.4737 63.6985 23.1375 64.1467 23.1375C64.6509 23.1375 64.9871 23.4176 64.9871 24.0339V26.2188H65.8274V23.9218C65.8835 23.0815 65.2672 22.4092 64.3148 22.4092ZM69.3009 24.37C69.3009 23.5297 69.9732 23.1375 70.6455 23.1375C71.0376 23.1375 71.3738 23.2496 71.6539 23.4176V22.6893C71.3177 22.5213 70.9256 22.4092 70.5334 22.4092C69.525 22.4092 68.5166 23.0255 68.5166 24.37C68.5166 25.6586 69.525 26.2748 70.5334 26.2748C70.9816 26.2748 71.4298 26.1628 71.7659 25.9947V25.2104C71.4858 25.3784 71.0936 25.4905 70.7015 25.4905C69.9171 25.6025 69.3009 25.2104 69.3009 24.37ZM73.2225 23.1375V22.5213H72.4942V26.2188H73.3346V23.9779C73.5587 23.4737 74.1189 23.1375 74.7912 23.2496V22.4652C74.0629 22.4092 73.5027 22.6893 73.2225 23.1375ZM77.0321 25.3224L75.7996 22.5213H74.9032L76.64 26.2188L76.5839 26.3869C76.3598 26.9471 76.0797 27.2272 75.6876 27.2272C75.5755 27.2272 75.4074 27.2272 75.2954 27.1712V27.8435C75.4635 27.8995 75.6315 27.8995 75.7996 27.8995C76.3598 27.8995 76.8641 27.5634 77.3122 26.611L79.049 22.4092H78.2086L77.0321 25.3224ZM81.7941 22.4092C81.1218 22.4092 80.6737 22.7453 80.3935 23.0815V22.5213H79.6652V27.8995H80.5056V25.7146C80.7857 25.9947 81.1779 26.2748 81.8501 26.2748C82.9706 26.2748 83.6989 25.3784 83.6989 24.314C83.6429 23.3056 82.9146 22.4092 81.7941 22.4092ZM81.626 25.6025C81.0658 25.6025 80.6176 25.2104 80.4496 24.8182V23.9218C80.6176 23.5297 81.0658 23.1375 81.626 23.1375C82.2983 23.1375 82.8025 23.6417 82.8025 24.37C82.8025 25.0983 82.2983 25.6025 81.626 25.6025ZM85.4356 24.9303V23.2496H86.7802V22.5213H85.4356V21.2327L84.5953 21.4568V22.5773H83.923V23.3056H84.5953V25.1544C84.5953 25.9947 85.1555 26.3869 85.8838 26.3869C86.22 26.3869 86.6121 26.3308 86.8923 26.2188V25.4345C86.6682 25.5465 86.388 25.6025 86.164 25.6025C85.6597 25.6025 85.4356 25.4345 85.4356 24.9303ZM89.3573 22.4092C88.3489 22.4092 87.3404 23.0815 87.3404 24.37C87.3404 25.6586 88.2928 26.3308 89.3573 26.3308C90.4217 26.3308 91.3741 25.6586 91.3741 24.37C91.3741 23.0815 90.3657 22.4092 89.3573 22.4092ZM89.3573 25.6025C88.685 25.6025 88.1808 25.1544 88.1808 24.426C88.1808 23.6977 88.685 23.2496 89.3573 23.2496C90.0296 23.2496 90.5338 23.6977 90.5338 24.426C90.5338 25.0983 90.0296 25.6025 89.3573 25.6025ZM95.6319 22.4092C94.7916 22.4092 93.7831 23.0255 93.7831 24.37C93.7831 25.6586 94.7355 26.3308 95.856 26.3308C96.3602 26.3308 96.8644 26.2188 97.2006 26.0507V25.3224C96.8644 25.4905 96.4723 25.6025 96.0241 25.6025C95.3518 25.6025 94.6795 25.3224 94.6235 24.6501H97.4247C97.5927 23.6417 97.0885 22.4092 95.6319 22.4092ZM96.6403 24.0899H94.5675C94.6235 23.4736 95.0717 23.1375 95.6319 23.1375C96.4723 23.1375 96.6403 23.7538 96.6403 24.0899ZM101.402 22.5213H100.45L99.5536 23.7538L98.6572 22.5213H97.7048L99.0493 24.314L97.6488 26.2188H98.6012L99.5536 24.9303L100.506 26.2188H101.458L100.058 24.314L101.402 22.5213ZM102.523 24.37C102.523 23.5297 103.195 23.1375 103.867 23.1375C104.26 23.1375 104.596 23.2496 104.876 23.4176V22.6893C104.54 22.5213 104.147 22.4092 103.755 22.4092C102.747 22.4092 101.738 23.0255 101.738 24.37C101.738 25.6586 102.747 26.2748 103.755 26.2748C104.203 26.2748 104.652 26.1628 104.988 25.9947V25.2104C104.708 25.3784 104.316 25.4905 103.923 25.4905C103.139 25.6025 102.523 25.2104 102.523 24.37ZM107.677 22.4092C107.173 22.4092 106.781 22.6333 106.5 22.9134V20.8405H105.66V26.2188H106.5V23.7538C106.725 23.4737 107.061 23.1375 107.509 23.1375C108.013 23.1375 108.349 23.4176 108.349 24.0339V26.2188H109.19V23.9218C109.246 23.0815 108.629 22.4092 107.677 22.4092ZM113.391 25.3784V24.0339C113.391 22.9134 112.719 22.4092 111.655 22.4092C111.038 22.4092 110.534 22.5773 110.254 22.6333V23.3616C110.59 23.1935 111.038 23.0815 111.599 23.0815C112.215 23.0815 112.551 23.4176 112.551 23.8658V23.9779C112.271 23.9218 111.879 23.8658 111.599 23.8658C110.814 23.8658 109.974 24.1459 109.974 25.0983C109.974 25.8827 110.59 26.2188 111.262 26.2188C111.823 26.2188 112.271 26.0507 112.663 25.7146C112.775 25.9947 113.055 26.1628 113.391 26.1628C113.559 26.1628 113.784 26.1068 113.896 26.0507V25.4345C113.84 25.4345 113.727 25.4905 113.671 25.4905C113.503 25.6586 113.391 25.6025 113.391 25.3784ZM112.551 25.2664C112.271 25.5465 111.879 25.7146 111.487 25.7146C111.094 25.7146 110.814 25.5465 110.814 25.1544C110.814 24.7062 111.318 24.5381 111.767 24.5381C112.047 24.5381 112.327 24.5941 112.551 24.6501V25.2664ZM116.473 22.4092C115.912 22.4092 115.464 22.6893 115.184 23.0255V22.5213H114.456V26.2188H115.296V23.7538C115.52 23.4737 115.856 23.1375 116.305 23.1375C116.809 23.1375 117.145 23.4176 117.145 24.0339V26.2188H117.985V23.9218C117.985 23.0815 117.425 22.4092 116.473 22.4092ZM122.019 23.1375C121.739 22.8014 121.291 22.4652 120.618 22.4652C119.498 22.4652 118.77 23.3616 118.77 24.426C118.77 25.4905 119.498 26.3869 120.618 26.3869C121.291 26.3869 121.683 26.1068 121.963 25.7706V26.2188C121.963 27.0592 121.347 27.2832 120.618 27.2832C120.114 27.2832 119.61 27.1712 119.218 26.8911V27.6754C119.666 27.8995 120.17 28.0115 120.73 28.0115C121.795 28.0115 122.803 27.5073 122.803 26.1628V22.5213H122.075L122.019 23.1375ZM121.907 24.8742C121.739 25.2664 121.291 25.6025 120.73 25.6025C120.058 25.6025 119.61 25.0983 119.61 24.37C119.61 23.6417 120.114 23.1375 120.73 23.1375C121.291 23.1375 121.739 23.5297 121.907 23.9218V24.8742ZM125.436 22.4092C124.596 22.4092 123.588 23.0255 123.588 24.37C123.588 25.6586 124.54 26.3308 125.66 26.3308C126.165 26.3308 126.669 26.2188 127.005 26.0507V25.3224C126.669 25.4905 126.277 25.6025 125.829 25.6025C125.156 25.6025 124.484 25.3224 124.428 24.6501H127.229C127.397 23.6417 126.893 22.4092 125.436 22.4092ZM126.445 24.0899H124.372C124.428 23.4736 124.876 23.1375 125.436 23.1375C126.277 23.1375 126.445 23.7538 126.445 24.0899ZM128.63 23.5297C128.63 23.2496 128.966 23.1375 129.302 23.1375C129.75 23.1375 130.254 23.3056 130.591 23.4737V22.7453C130.254 22.5773 129.75 22.4092 129.246 22.4092C128.518 22.4092 127.789 22.6893 127.789 23.5297C127.789 24.8742 130.03 24.5941 130.03 25.2664C130.03 25.5465 129.694 25.6586 129.246 25.6586C128.798 25.6586 128.238 25.5465 127.845 25.2664V25.9947C128.182 26.2188 128.742 26.3308 129.302 26.3308C130.142 26.3308 130.871 26.0507 130.871 25.2664C130.871 23.9218 128.63 24.202 128.63 23.5297Z" fill="white"/>
</svg>
