<svg width="226" height="60" viewBox="0 0 226 60" fill="none" xmlns="http://www.w3.org/2000/svg">
<path fillRule="evenodd" clipRule="evenodd" d="M6.27143 43.9758H0V3.7182L6.27143 0.0591V17.8302C8.03898 15.846 11.1177 14.4453 14.6528 14.4453C23.1476 14.4453 28.7923 20.2815 28.7923 29.3856C28.7923 38.49 23.1479 44.3262 14.6528 44.3262C10.8896 44.3262 8.09614 42.7503 6.27143 40.9413V43.9758ZM6.1574 29.3856C6.1574 34.4046 9.40729 38.1396 14.3679 38.1396C19.3278 38.1396 22.6346 34.4046 22.6346 29.3856C22.6346 24.3666 19.3278 20.6316 14.3676 20.6316C9.40729 20.6316 6.1574 24.3666 6.1574 29.3856ZM34.1456 43.9758V14.7954H40.4174V43.9758H34.1456ZM33.0625 7.1502C33.0625 4.6992 34.9438 2.7732 37.2815 2.7732C39.6192 2.7732 41.5005 4.6992 41.5005 7.1502C41.5005 9.6012 39.6192 11.5272 37.2815 11.5272C34.9438 11.5272 33.0625 9.6012 33.0625 7.1502ZM48.2426 31.2531V3.7182L54.6284 0V14.7954H61.0138V20.982H54.6284V31.2534C54.6284 34.8135 57.5362 37.7901 61.0138 37.7901V44.3265C54.0011 44.3265 48.2426 38.49 48.2426 31.2531ZM67.3741 14.7954H73.6458V17.8302C75.4702 16.0212 78.264 14.4453 82.0269 14.4453C90.5219 14.4453 96.1664 20.2815 96.1664 29.3856C96.1664 38.49 90.5219 44.3262 82.0269 44.3262C78.4918 44.3262 75.4131 42.9252 73.6458 40.9413V56.2482L67.3741 60V14.7954ZM73.5318 29.3856C73.5318 34.4046 76.7814 38.1396 81.7416 38.1396C86.7019 38.1396 90.009 34.4046 90.009 29.3856C90.009 24.3666 86.7019 20.6316 81.7416 20.6316C76.7814 20.6316 73.5318 24.3666 73.5318 29.3856ZM122.114 14.7954H128.5V43.9758H122.114V40.9413C120.917 42.5169 117.781 44.3262 113.961 44.3262C105.808 44.3262 99.6508 38.1399 99.6508 29.3856C99.6508 20.6316 105.808 14.4453 113.961 14.4453C117.724 14.4453 120.917 16.2543 122.114 17.8302V14.7954H122.114ZM122.342 29.3856C122.342 24.6 118.807 20.6316 114.189 20.6316C109.457 20.6316 105.808 24.6 105.808 29.3856C105.808 34.1712 109.457 38.1396 114.189 38.1396C118.807 38.1396 122.342 34.1712 122.342 29.3856ZM135.136 43.9758V14.7954H141.408V18.1221C142.719 16.3713 145.285 14.4453 149.219 14.4453C156.289 14.4453 160.166 18.7056 160.166 26.4675V43.9758H153.894V27.8682C153.894 22.7325 151.785 20.5149 147.68 20.5149C143.574 20.5149 141.408 23.5497 141.408 27.8682V43.9758H135.136ZM192.791 43.9758H186.519V40.9413C184.694 42.7503 181.901 44.3262 178.138 44.3262C169.643 44.3262 163.998 38.49 163.998 29.3856C163.998 20.2815 169.643 14.4453 178.138 14.4453C181.673 14.4453 184.752 15.846 186.519 17.8302V3.7182L192.791 0.0372V43.9758ZM186.633 29.3856C186.633 24.3666 183.383 20.6316 178.423 20.6316C173.463 20.6316 170.156 24.3666 170.156 29.3856C170.156 34.4046 173.462 38.1396 178.423 38.1396C183.383 38.1396 186.633 34.4046 186.633 29.3856ZM219.615 14.7954H226V43.9758H219.615V40.9413C218.417 42.5169 215.281 44.3262 211.461 44.3262C203.308 44.3262 197.151 38.1399 197.151 29.3856C197.151 20.6316 203.308 14.4453 211.461 14.4453C215.224 14.4453 218.417 16.2543 219.615 17.8302V14.7954ZM219.843 29.3856C219.843 24.6 216.308 20.6316 211.689 20.6316C206.957 20.6316 203.308 24.6 203.308 29.3856C203.308 34.1712 206.957 38.1396 211.689 38.1396C216.308 38.1396 219.843 34.1712 219.843 29.3856Z" fill="white"/>
</svg>
