<svg width="125" height="38" viewBox="0 0 125 38" fill="none" xmlns="http://www.w3.org/2000/svg">
<path d="M36.4636 0H0.828611C0.608846 0 0.398073 0.0871787 0.242739 0.242567C0.0872387 0.39779 0 0.608411 0 0.828185V36.4377C0 36.6573 0.0872387 36.8679 0.242739 37.0231C0.398073 37.1785 0.608846 37.2657 0.828611 37.2657H36.4636C36.6836 37.2657 36.8943 37.1785 37.0497 37.0231C37.2052 36.8679 37.2924 36.6573 37.2924 36.4377V0.828185C37.2924 0.608411 37.2052 0.39779 37.0497 0.242567C36.8943 0.0871787 36.6836 0 36.4636 0ZM24.8616 24.0157C24.8616 24.2353 24.7743 24.4459 24.6188 24.6013C24.4635 24.7566 24.2527 24.8439 24.0329 24.8439H13.2595C13.0397 24.8439 12.8289 24.7566 12.6734 24.6013C12.5181 24.4459 12.4309 24.2353 12.4309 24.0157V13.25C12.4309 13.0304 12.5181 12.8197 12.6734 12.6645C12.8289 12.5091 13.0397 12.422 13.2595 12.422H24.0329C24.2527 12.422 24.4635 12.5091 24.6188 12.6645C24.7743 12.8197 24.8616 13.0304 24.8616 13.25V24.0157Z" fill="white"/>
<path d="M111.069 12.4217H100.296C99.8379 12.4217 99.4668 12.7924 99.4668 13.2497V24.0155C99.4668 24.4728 99.8379 24.8436 100.296 24.8436H111.069C111.527 24.8436 111.898 24.4728 111.898 24.0155V13.2497C111.898 12.7924 111.527 12.4217 111.069 12.4217Z" fill="white"/>
<path d="M98.6333 0.000793457H87.86C87.4024 0.000793457 87.0312 0.371463 87.0312 0.828978V11.5946C87.0312 12.0519 87.4024 12.4227 87.86 12.4227H98.6333C99.0912 12.4227 99.4621 12.0519 99.4621 11.5946V0.828978C99.4621 0.371463 99.0912 0.000793457 98.6333 0.000793457Z" fill="white"/>
<path d="M123.495 0.000793457H112.721C112.264 0.000793457 111.893 0.371463 111.893 0.828978V11.5946C111.893 12.0519 112.264 12.4227 112.721 12.4227H123.495C123.953 12.4227 124.323 12.0519 124.323 11.5946V0.828978C124.323 0.371463 123.953 0.000793457 123.495 0.000793457Z" fill="white"/>
<path d="M98.6333 24.8451H87.86C87.4024 24.8451 87.0312 25.2158 87.0312 25.6731V36.4389C87.0312 36.8962 87.4024 37.267 87.86 37.267H98.6333C99.0912 37.267 99.4621 36.8962 99.4621 36.4389V25.6731C99.4621 25.2158 99.0912 24.8451 98.6333 24.8451Z" fill="white"/>
<path d="M123.495 24.8451H112.721C112.264 24.8451 111.893 25.2158 111.893 25.6731V36.4389C111.893 36.8962 112.264 37.267 112.721 37.267H123.495C123.953 37.267 124.323 36.8962 124.323 36.4389V25.6731C124.323 25.2158 123.953 24.8451 123.495 24.8451Z" fill="white"/>
<path d="M79.9702 0.000793457H69.1969C68.7393 0.000793457 68.3682 0.371463 68.3682 0.828978V11.5946C68.3682 12.0519 68.7393 12.4227 69.1969 12.4227H79.9702C80.4279 12.4227 80.799 12.0519 80.799 11.5946V0.828978C80.799 0.371463 80.4279 0.000793457 79.9702 0.000793457Z" fill="white"/>
<path d="M79.9702 24.8451H69.1969C68.7393 24.8451 68.3682 25.2158 68.3682 25.6731V36.4389C68.3682 36.8962 68.7393 37.267 69.1969 37.267H79.9702C80.4279 37.267 80.799 36.8962 80.799 36.4389V25.6731C80.799 25.2158 80.4279 24.8451 79.9702 24.8451Z" fill="white"/>
<path d="M68.3695 13.2407C68.3695 13.0211 68.2821 12.8104 68.1268 12.6552C67.9713 12.4998 67.7605 12.4126 67.5407 12.4126H55.9387V0.828185C55.9387 0.608412 55.8513 0.39779 55.6959 0.242568C55.5404 0.0871788 55.3297 0 55.1099 0H44.3366C44.1167 0 43.9059 0.0871788 43.7505 0.242568C43.595 0.39779 43.5078 0.608412 43.5078 0.828185V36.4191C43.5078 36.6387 43.595 36.8493 43.7505 37.0045C43.9059 37.1599 44.1167 37.2471 44.3366 37.2471H55.1099C55.3297 37.2471 55.5404 37.1599 55.6959 37.0045C55.8513 36.8493 55.9387 36.6387 55.9387 36.4191V24.8346H67.5407C67.7605 24.8346 67.9713 24.7473 68.1268 24.592C68.2821 24.4366 68.3695 24.226 68.3695 24.0064V13.2407Z" fill="white"/>
</svg>
