<svg width="220" height="36" viewBox="0 0 220 36" fill="none" xmlns="http://www.w3.org/2000/svg">
<path d="M48.1158 0.740234H53.4456V14.8048L67.6582 0.740234H74.7646L62.0324 13.0283L75.3568 33.7551H68.2504L57.887 17.0256L53.2975 21.467V33.9031H47.9678L48.1158 0.740234Z" fill="white"/>
<path d="M78.3174 0.740265H83.6471V6.51416C84.0913 5.47782 85.1276 3.99733 86.7561 2.51685C88.3847 0.888314 90.3093 0.148071 92.53 0.148071C92.6781 0.148071 92.8261 0.148071 93.1222 0.148071C93.4183 0.148071 93.8625 0.148071 94.4547 0.29612V6.21806C94.1586 6.21806 93.8625 6.07001 93.5664 6.07001C93.2703 6.07001 92.9742 6.07001 92.6781 6.07001C89.8652 6.07001 87.7925 6.9583 86.312 8.73489C84.8315 10.5115 84.0913 12.5841 84.0913 14.9529V33.9031H78.4654L78.3174 0.740265Z" fill="white"/>
<path d="M115.033 13.7685C116.366 13.6205 117.106 13.0283 117.55 12.14C117.846 11.6958 117.846 10.9556 117.846 10.0673C117.846 8.14267 117.106 6.81023 115.774 5.92194C114.441 5.03365 112.517 4.5895 110 4.5895C107.039 4.5895 105.114 5.32975 103.782 6.95828C103.041 7.84657 102.597 9.17901 102.449 10.8075H97.2676C97.4156 6.66218 98.7481 3.84926 101.265 2.36878C103.93 0.740242 106.743 0 110.148 0C113.997 0 117.106 0.740243 119.623 2.22073C121.992 3.70121 123.176 6.06999 123.176 9.17901V28.1292C123.176 28.7214 123.324 29.1656 123.472 29.4617C123.768 29.7578 124.212 30.0539 124.953 30.0539C125.249 30.0539 125.545 30.0539 125.841 30.0539C126.137 30.0539 126.433 29.9058 126.877 29.9058V34.0512C125.989 34.3473 125.397 34.4953 124.953 34.4953C124.509 34.4953 123.916 34.6434 123.176 34.6434C121.251 34.6434 119.919 33.9031 119.031 32.5707C118.587 31.8304 118.29 30.7941 118.142 29.4617C116.958 30.9421 115.33 32.2746 113.257 33.3109C111.184 34.3473 108.815 34.9395 106.299 34.9395C103.19 34.9395 100.673 34.0512 98.7481 32.1265C96.8234 30.2019 95.7871 27.9812 95.7871 25.1683C95.7871 22.0592 96.6754 19.6905 98.6 18.0619C100.525 16.4334 103.041 15.397 106.151 14.9529L115.033 13.7685ZM103.338 28.7214C104.522 29.6097 105.854 30.0539 107.483 30.0539C109.408 30.0539 111.332 29.6097 113.109 28.7214C116.218 27.2409 117.698 24.7241 117.698 21.319V16.8775C116.958 17.3217 116.218 17.6178 115.033 17.9139C113.849 18.21 112.961 18.358 111.924 18.5061L108.667 19.2463C106.595 19.5424 105.114 19.9866 104.078 20.5787C102.301 21.6151 101.561 23.0956 101.561 25.1683C101.561 26.6487 102.153 27.8331 103.338 28.7214Z" fill="white"/>
<path d="M130.579 0.740234H135.908V14.8048L150.121 0.740234H157.227L144.495 13.0283L157.82 33.7551H150.713L140.35 17.0256L135.76 21.467V33.9031H130.431L130.579 0.740234Z" fill="white"/>
<path d="M180.471 1.77658C182.692 2.81292 184.32 4.29341 185.505 6.06999C186.541 7.69853 187.281 9.62316 187.725 11.8439C188.021 13.3244 188.169 15.8412 188.169 19.0983H164.186C164.334 22.5034 165.074 25.1683 166.554 27.2409C168.035 29.3136 170.256 30.35 173.365 30.35C176.178 30.35 178.546 29.4617 180.175 27.537C181.063 26.3526 181.803 25.1683 182.248 23.6878H187.725C187.577 24.8722 187.133 26.2046 186.245 27.6851C185.505 29.1656 184.468 30.35 183.58 31.3863C181.951 33.0148 179.879 34.1992 177.362 34.6434C176.029 34.9395 174.549 35.0875 172.92 35.0875C168.775 35.0875 165.37 33.607 162.557 30.6461C159.744 27.6851 158.264 23.5397 158.264 18.21C158.264 12.8802 159.744 8.58682 162.557 5.32975C165.37 2.07268 169.219 0.296098 173.809 0.296098C176.029 5.81145e-07 178.25 0.592195 180.471 1.77658ZM182.544 14.6568C182.248 12.288 181.803 10.3634 180.915 8.88291C179.435 6.21804 176.918 4.8856 173.365 4.8856C170.848 4.8856 168.775 5.77389 166.999 7.69853C165.222 9.47511 164.334 11.8439 164.334 14.6568H182.544Z" fill="white"/>
<path d="M193.056 0.740243H198.385V5.4778C200.014 3.55317 201.642 2.22073 203.419 1.33244C205.196 0.444146 207.12 0 209.193 0C213.931 0 217.04 1.62853 218.668 4.8856C219.556 6.66219 220.001 9.17901 220.001 12.5841V33.7551H214.375V13.0283C214.375 10.9556 214.079 9.32706 213.486 8.14267C212.45 6.06999 210.673 5.03365 208.157 5.03365C206.824 5.03365 205.788 5.1817 204.9 5.4778C203.419 5.92194 202.087 6.81023 200.902 8.14267C200.014 9.17901 199.422 10.3634 199.126 11.5478C198.83 12.7322 198.682 14.3607 198.682 16.5814V33.9031H193.204L193.056 0.740243Z" fill="white"/>
<path d="M21.0229 0.740234C9.47511 0.740234 0 10.0673 0 21.7631V30.7941C0 32.4226 1.33244 33.7551 2.96097 33.7551C4.5895 33.7551 5.92194 32.4226 5.92194 30.7941V21.7631C5.92194 20.1346 7.25438 18.8022 8.88291 18.8022C10.5114 18.8022 11.8439 20.1346 11.8439 21.7631V30.7941C11.8439 32.4226 13.1763 33.7551 14.8049 33.7551C16.4334 33.7551 17.7658 32.4226 17.7658 30.7941V21.7631C17.7658 20.1346 19.0983 18.8022 20.7268 18.8022C22.3553 18.8022 23.6878 20.1346 23.6878 21.7631V30.7941C23.6878 32.4226 25.0202 33.7551 26.6487 33.7551C28.2773 33.7551 29.6097 32.4226 29.6097 30.7941V21.7631C29.6097 20.1346 30.9421 18.8022 32.5707 18.8022C34.1992 18.8022 35.5316 20.1346 35.5316 21.7631V30.7941C35.5316 32.4226 36.8641 33.7551 38.4926 33.7551C40.1212 33.7551 41.4536 32.4226 41.4536 30.7941V21.7631C42.1938 10.0673 32.7187 0.740234 21.0229 0.740234Z" fill="white"/>
</svg>
