<svg width="240" height="50" viewBox="0 0 240 50" fill="none" xmlns="http://www.w3.org/2000/svg">
<path d="M10.9007 25.057L5.44801 30.505L0 25.057L5.44801 19.609L10.9007 25.057ZM24.1202 11.8281L33.4563 21.1689L38.9043 15.7209L24.1202 0.936829L9.33608 15.7209L14.7841 21.1689L24.1202 11.8281ZM42.7971 19.609L37.349 25.057L42.7971 30.505L48.2404 25.057L42.7971 19.609ZM24.1202 38.2859L14.7841 28.9498L9.33608 34.3931L24.1202 49.1772L38.9043 34.3931L33.4563 28.9498L24.1202 38.2859ZM24.1202 30.505L29.5682 25.057L24.1202 19.609L18.6722 25.057L24.1202 30.505ZM81.6165 31.0281V30.9527C81.6165 27.3993 79.7314 25.6225 76.6633 24.4538C78.5485 23.3934 80.1414 21.7298 80.1414 18.7465V18.6711C80.1414 14.5144 76.8141 11.8281 71.4085 11.8281H59.1364V38.2859H71.7196C77.6907 38.2859 81.6259 35.8682 81.6259 31.0281H81.6165ZM74.3588 19.7174C74.3588 21.6826 72.7328 22.5168 70.1644 22.5168H64.8059V16.9321H70.5508C73.0062 16.9321 74.3682 17.9124 74.3682 19.6514L74.3588 19.7174ZM75.8339 30.3024C75.8339 32.2676 74.2834 33.1725 71.7102 33.1725H64.8059V27.3616H71.5311C74.519 27.3616 75.8433 28.4597 75.8433 30.2364L75.8339 30.3024ZM93.8462 38.2859V11.8281H88.0071V38.2859H93.8462ZM125.135 38.2859V11.8281H119.371V28.1203L106.976 11.8281H101.608V38.2859H107.353V21.4658L120.163 38.2859H125.135ZM157.375 38.2859L146.017 11.6396H140.649L129.315 38.2859H135.248L137.675 32.3524H148.864L151.281 38.2859H157.375ZM146.795 27.2108H139.744L143.26 18.6334L146.795 27.2108ZM185.119 38.2859V11.8281H179.356V28.1203L166.956 11.8281H161.593V38.2859H167.333V21.4658L180.147 38.2859H185.119ZM215.163 34.0161L211.464 30.2741C209.386 32.1592 207.533 33.3704 204.508 33.3704C199.974 33.3704 196.835 29.6002 196.835 25.057V24.9816C196.835 20.4479 200.049 16.7436 204.508 16.7436C207.152 16.7436 209.221 17.8747 211.275 19.7268L214.966 15.457C212.51 13.0393 209.527 11.3757 204.536 11.3757C196.411 11.3757 190.742 17.5354 190.742 25.0429V25.1183C190.742 32.7153 196.524 38.7242 204.31 38.7242C209.404 38.7383 212.425 36.9239 215.145 34.0161H215.163ZM240 38.2859V33.1018H225.616V27.5359H238.091V22.3519H225.616V17.0075H239.793V11.8234H219.834V38.2812L240 38.2859Z" fill="white"/>
</svg>
