<svg width="253" height="47" viewBox="0 0 253 47" fill="none" xmlns="http://www.w3.org/2000/svg">
<path d="M59.0596 35.6126H63.4165V26.3223H69.9759C75.1578 26.3223 78.1008 22.741 78.1008 18.5241C78.1008 14.3091 75.1943 10.7277 69.9759 10.7277H59.0596V35.6126ZM73.6307 18.5241C73.6307 20.9129 71.8426 22.4798 69.3812 22.4798H63.4184V14.5702H69.3812C71.8426 14.5702 73.6307 16.1372 73.6307 18.5241ZM82.947 23.1884C82.947 30.6122 88.2037 36.0601 95.6571 36.0601C103.112 36.0601 108.367 30.6122 108.367 23.1884C108.367 15.7646 103.112 10.3168 95.6571 10.3168C88.2037 10.3168 82.947 15.7646 82.947 23.1884ZM103.895 23.1884C103.895 28.3002 100.653 32.1792 95.6571 32.1792C90.6249 32.1792 87.421 28.3002 87.421 23.1884C87.421 18.0402 90.6249 14.1977 95.6571 14.1977C100.653 14.1977 103.895 18.0402 103.895 23.1884ZM114.896 35.6126H130.215V31.7682H119.257V10.7277H114.896V35.6126ZM134.235 23.1884C134.235 30.6122 139.489 36.0601 146.945 36.0601C154.4 36.0601 159.655 30.6122 159.655 23.1884C159.655 15.7646 154.4 10.3168 146.945 10.3168C139.489 10.3168 134.235 15.7646 134.235 23.1884ZM155.183 23.1884C155.183 28.3002 151.939 32.1792 146.945 32.1792C141.912 32.1792 138.707 28.3002 138.707 23.1884C138.707 18.0402 141.912 14.1977 146.945 14.1977C151.939 14.1977 155.183 18.0402 155.183 23.1884ZM183.517 35.6126H187.729V10.7277H183.368V28.3732L170.658 10.7277H166.186V35.6126H170.546V17.4794L183.517 35.6126ZM195.339 35.6126H199.702V10.7277H195.343V35.6126H195.339ZM207.317 35.6126H224.351V31.7682H211.677V24.8668H224.09V21.0243H211.677V14.5702H224.351V10.7277H207.317V35.6126ZM247.782 35.6126H253L243.718 22.8159L252.442 10.7277H247.185L240.812 19.8683L234.4 10.7277H229.182L237.942 22.8524L228.624 35.6126H233.842L240.812 25.8749L247.782 35.6126Z" fill="white"/>
<path d="M0.284646 22.7316L0.308653 0.433833L9.94445 6.02508L9.94466 6.0252L19.5831 11.6058L9.93366 17.1753L9.93344 17.1755L0.284646 22.7316Z" fill="white" stroke="black" strokeWidth="0.5"/>
<path d="M29.9708 17.6313L29.9711 17.6314L39.8702 23.3564L39.8475 34.7931V34.7933L39.8346 45.9415L30.1987 40.3631L30.1985 40.363L20.3107 34.6266L20.3331 12.04L29.9708 17.6313Z" fill="white" stroke="black" strokeWidth="0.5"/>
<path d="M10.1722 28.7568L0.533763 23.1651L10.1832 17.6086L10.1834 17.6085L19.8322 12.0394L19.8101 34.3371L10.1724 28.757L10.1722 28.7568Z" fill="white" stroke="black" strokeWidth="0.5"/>
<path d="M30.2209 17.1986L20.5828 11.6071L30.2453 6.05053L30.2457 6.05032L39.8926 0.481244L39.8704 22.7792L30.2212 17.1988L30.2209 17.1986Z" fill="white" stroke="black" strokeWidth="0.5"/>
<path d="M9.91077 40.3379L0.25043 45.8943L0.261511 34.746L0.261511 34.7458L0.283672 23.5979L9.9218 29.1894L9.92202 29.1896L19.5604 34.7683L9.9111 40.3377L9.91077 40.3379Z" fill="white" stroke="black" strokeWidth="0.5"/>
</svg>
