<svg width="246" height="58" viewBox="0 0 246 58" fill="none" xmlns="http://www.w3.org/2000/svg">
<mask id="mask0_1128_2462" style="mask-type:luminance" maskUnits="userSpaceOnUse" x="0" y="0" width="246" height="58">
<path d="M0 0.801514H246V57.1355H0V0.801514Z" fill="white"/>
</mask>
<g mask="url(#mask0_1128_2462)">
<path fillRule="evenodd" clipRule="evenodd" d="M203.656 17.5433H210.642V10.5553H203.656V17.5433ZM166.522 29.1805C167.857 25.6398 171.275 23.1188 175.284 23.1188C179.292 23.1188 182.71 25.6398 184.046 29.1805H166.522ZM175.284 16.6217C166.527 16.6217 159.425 23.7236 159.425 32.4845C159.425 41.2455 166.527 48.3462 175.284 48.3462C181.293 48.3462 186.521 45.0042 189.212 40.0779L183.352 37.2343C181.724 39.9955 178.721 41.8491 175.284 41.8491C170.941 41.8491 167.291 38.8922 166.231 34.8816H184.335C184.334 34.8846 184.334 34.8887 184.333 34.8922H190.964C191.083 34.1068 191.145 33.3027 191.145 32.4845C191.145 23.7236 184.044 16.6217 175.284 16.6217ZM192.987 47.5006H199.973V40.5127H192.987V47.5006ZM203.656 47.5006H210.642V20.6153H203.656V47.5006ZM230.141 41.8491C224.97 41.8491 220.778 37.6563 220.778 32.4845C220.778 27.3117 224.97 23.1188 230.141 23.1188C235.312 23.1188 239.504 27.3117 239.504 32.4845C239.504 37.6563 235.312 41.8491 230.141 41.8491ZM230.138 16.6217C221.381 16.6217 214.28 23.7236 214.28 32.4845C214.28 41.2455 221.381 48.3462 230.138 48.3462C238.899 48.3462 246 41.2455 246 32.4845C246 23.7236 238.899 16.6217 230.138 16.6217ZM84.0712 26.6373V33.8625H93.8397C93.3296 35.9271 92.3212 37.7772 90.8752 39.2551C88.6943 41.4845 85.6702 42.7128 82.3594 42.7128C75.4893 42.7128 69.8993 37.1221 69.8993 30.2499C69.8993 23.3777 75.4893 17.7864 82.3594 17.7864C86.0395 17.7864 89.4222 19.3618 91.7674 22.0792L97.3603 17.5082C93.6521 13.1616 88.1503 10.5606 82.3594 10.5606C71.506 10.5606 62.6758 19.3934 62.6758 30.2499C62.6758 41.1064 71.506 49.9386 82.3594 49.9386C87.6292 49.9386 92.4871 48.0394 96.0387 44.4093C99.0189 41.3624 100.994 37.1122 101.374 32.8545C101.559 30.7776 101.576 28.7147 101.467 26.6373H84.0712ZM119.656 41.8509C114.485 41.8509 110.292 37.6568 110.292 32.4845C110.292 27.3111 114.485 23.1182 119.656 23.1182C124.828 23.1182 129.02 27.3111 129.02 32.4845C129.02 37.6568 124.828 41.8509 119.656 41.8509ZM129.021 19.713C126.396 17.7881 123.16 16.6486 119.656 16.6486C110.899 16.6486 103.8 23.7499 103.8 32.5091C103.8 41.2694 110.899 48.3696 119.656 48.3696C123.16 48.3696 126.396 47.2306 129.021 45.3057V47.5006H135.513V17.5181H129.021V19.713ZM149.448 10.5559H142.956V17.5433H139.065V23.6716H142.956V39.7092C142.956 41.3653 143.164 42.7584 143.576 43.8518C143.983 44.9335 144.605 45.7802 145.344 46.4417C146.093 47.1132 146.971 47.6362 148.013 47.9331C149.072 48.2311 150.24 48.3462 151.474 48.3462C152.752 48.3462 153.891 48.2136 154.863 47.9512C155.766 47.7087 156.631 47.3656 157.436 46.9297V41.9917C156.156 42.5457 154.959 42.7461 153.593 42.8098C152.151 42.8776 151.298 42.4656 150.588 41.7889C149.844 41.0801 149.448 40.1562 149.448 38.6064V23.6716H157.436V17.5433H149.448V10.5559Z" fill="white"/>
</g>
<mask id="mask1_1128_2462" style="mask-type:luminance" maskUnits="userSpaceOnUse" x="0" y="0" width="246" height="58">
<path d="M0 0.801514H246V57.1355H0V0.801514Z" fill="white"/>
</mask>
<g mask="url(#mask1_1128_2462)">
<path fillRule="evenodd" clipRule="evenodd" d="M28.1609 44.4603C19.607 44.4603 12.6727 37.525 12.6727 28.9686C12.6727 20.4128 19.607 13.4763 28.1609 13.4763V0.80119C12.6079 0.80119 0 13.412 0 28.9686C0 44.5246 12.6079 57.1354 28.1609 57.1354C43.7133 57.1354 56.3218 44.5246 56.3218 28.9686H43.6491C43.6491 37.525 36.7147 44.4603 28.1609 44.4603Z" fill="white"/>
</g>
<mask id="mask2_1128_2462" style="mask-type:luminance" maskUnits="userSpaceOnUse" x="0" y="0" width="246" height="58">
<path d="M0 0.801514H246V57.1355H0V0.801514Z" fill="white"/>
</mask>
<g mask="url(#mask2_1128_2462)">
<path fillRule="evenodd" clipRule="evenodd" d="M28.1602 28.9683H43.6483V13.4765H28.1602V28.9683Z" fill="white"/>
</g>
</svg>
