<svg width="175" height="44" viewBox="0 0 175 44" fill="none" xmlns="http://www.w3.org/2000/svg">
<path fillRule="evenodd" clipRule="evenodd" d="M0 21.6195V43.2867H15.5516V40.5012H3.15675V33.4437H13.3058V30.6579H3.15675V24.4054H15.5516V21.6195H0ZM58.7005 25.0242V43.2867H61.8573V33.2266C61.8573 32.443 62.0121 31.695 62.3216 30.9835C62.6314 30.2711 63.0541 29.6515 63.5909 29.1258C64.1273 28.5997 64.7462 28.1817 65.4478 27.8723C66.1488 27.5625 66.903 27.408 67.7072 27.408C68.4294 27.408 69.1105 27.5114 69.7505 27.7174C70.3899 27.9238 70.9524 28.2336 71.4372 28.6461C71.9221 29.0588 72.3094 29.5695 72.598 30.1785C72.8873 30.7869 73.0316 31.504 73.0316 32.3297V43.2867H76.0336V31.3388C76.0336 30.4102 75.8682 29.5438 75.5392 28.7391C75.2082 27.9337 74.7388 27.2325 74.1302 26.6339C73.5209 26.0356 72.7943 25.5658 71.9484 25.2258C71.1018 24.8848 70.1629 24.7152 69.1316 24.7152C67.9548 24.7152 66.9543 24.9216 66.1289 25.334C65.3029 25.7472 64.6276 26.2318 64.1015 26.7888C63.5755 27.3462 63.1832 27.9083 62.9253 28.4757C62.6667 29.0434 62.5176 29.4713 62.4765 29.7601H61.8573V25.0242H58.7005ZM52.4757 25.0089C51.8149 24.8136 51.1236 24.7153 50.4017 24.7153C49.2251 24.7153 48.224 24.9217 47.3991 25.3342C46.5739 25.7474 45.898 26.2315 45.3719 26.7893C44.8462 27.3463 44.4535 27.9085 44.196 28.4758C43.9374 29.0436 43.788 29.4715 43.7464 29.7602H43.128V25.0244H39.9708V43.2868H43.128V33.4126C43.128 32.6698 43.2828 31.9578 43.5919 31.2768C43.9017 30.5962 44.3192 29.9979 44.8462 29.4817C45.3719 28.9663 45.9855 28.5531 46.6875 28.2433C47.3885 27.9339 48.1423 27.779 48.947 27.779C49.8142 27.779 50.6181 27.924 51.3612 28.2128C51.6902 28.3412 52.2476 28.5991 52.8046 28.8953L55.4039 26.2959C54.9908 25.9858 53.1354 25.2051 52.4757 25.0089ZM32.0977 39.1402C32.4987 38.7804 32.7709 38.3948 32.9152 37.9831V37.0571C32.7503 36.6664 32.4523 36.3164 32.0204 36.0078C31.5884 35.6994 31.0686 35.432 30.4619 35.2057C29.8552 34.9791 29.1815 34.8094 28.4409 34.6957C27.6999 34.5835 26.9483 34.5372 26.1878 34.5574C25.6326 34.5574 25.077 34.6144 24.5218 34.7266C23.9659 34.8404 23.4615 35.0202 23.0093 35.2668C22.5568 35.514 22.1867 35.8381 21.8982 36.2392C21.6097 36.641 21.4666 37.1395 21.4666 37.7359C21.4666 38.3532 21.6097 38.8731 21.8982 39.2944C22.1867 39.716 22.5615 40.0505 23.0247 40.2969C23.4876 40.5442 24.0123 40.7193 24.5987 40.8224C25.1852 40.925 25.7657 40.9762 26.3423 40.9762C27.1646 40.9762 27.9413 40.8989 28.6723 40.7451C29.4023 40.5905 30.0553 40.3742 30.6319 40.0968C31.2069 39.819 31.6962 39.5004 32.0977 39.1402ZM30.8018 25.2067C31.8398 25.4952 32.7503 25.9065 33.5329 26.4411C34.314 26.9764 34.931 27.6247 35.3843 28.3852C35.8365 29.1467 36.0631 30.0107 36.0631 30.9779V43.2907H32.9152V40.1737H32.3905C32.2669 40.6266 32.0303 41.0582 31.6808 41.4702C31.3306 41.882 30.8732 42.247 30.3074 42.5656C29.7411 42.8846 29.0733 43.1362 28.3018 43.3216C27.53 43.507 26.6815 43.5998 25.7559 43.5998C24.85 43.5998 23.9504 43.4858 23.0557 43.2598C22.1609 43.0339 21.3684 42.6836 20.6793 42.2108C19.9894 41.7377 19.4298 41.1259 18.9975 40.3742C18.5656 39.624 18.3595 38.7237 18.3802 37.6741C18.4007 36.7484 18.6009 35.9566 18.982 35.2977C19.3629 34.6398 19.8511 34.0994 20.4478 33.6781C21.0442 33.2565 21.723 32.9319 22.4843 32.7057C23.2459 32.4797 24.0071 32.3252 24.7679 32.2428C25.5498 32.1611 26.3467 32.1552 27.1598 32.2274C27.9722 32.2998 28.7437 32.4231 29.474 32.5975C30.2047 32.7726 30.8732 32.9938 31.4806 33.2612C32.087 33.5291 32.5649 33.8271 32.9152 34.1564V31.7495C32.9152 31.0706 32.7456 30.4639 32.406 29.9282C32.0667 29.3933 31.6242 28.9411 31.0793 28.5706C30.534 28.2005 29.9321 27.9223 29.2743 27.7369C28.6149 27.5522 27.9781 27.4595 27.3603 27.4595C26.8051 27.4595 26.2186 27.5367 25.6017 27.6909C24.9843 27.8451 24.4078 28.082 23.8732 28.4006C23.3386 28.7196 22.8963 29.1314 22.5461 29.6358C22.4055 29.8381 22.2988 30.0614 22.2113 30.2958H18.9228C19.035 29.4985 19.269 28.8039 19.6307 28.2159C20.1546 27.362 20.8231 26.6777 21.6362 26.1637C22.4486 25.6497 23.3695 25.2891 24.3982 25.0831C25.4265 24.8782 26.4549 24.7752 27.4836 24.7752C28.6568 24.7752 29.7625 24.919 30.8018 25.2067ZM83.0889 33.244H87.8091C88.7968 33.244 89.6189 33.1263 90.2782 32.8894C90.9356 32.6535 91.466 32.329 91.8668 31.9173C92.2683 31.5056 92.5511 31.0328 92.7153 30.4975C92.8801 29.9629 92.9628 29.3871 92.9628 28.7698C92.9628 28.2142 92.8801 27.6737 92.7153 27.1494C92.5511 26.6252 92.2785 26.1623 91.8976 25.7605C91.5166 25.3595 91.0029 25.0405 90.3552 24.8039C89.7062 24.5677 88.8987 24.4493 87.9322 24.4493H83.0889V33.244ZM79.9419 43.2739V21.6718H89.0122C90.3706 21.6718 91.507 21.8676 92.4228 22.2583C93.3374 22.6494 94.073 23.1737 94.6284 23.8323C95.1844 24.4905 95.5859 25.2466 95.8328 26.1005C96.0791 26.954 96.2029 27.8437 96.2029 28.7698C96.2029 29.7569 96.0278 30.6829 95.6782 31.5472C95.3287 32.4111 94.8195 33.162 94.1506 33.7999C93.4817 34.4375 92.6794 34.9416 91.7437 35.3117C90.8073 35.6822 89.7523 35.8676 88.5806 35.8676H83.0889V43.2739H79.9419ZM146.219 33.577V34.0089L152.823 43.2051H149.181L143.627 35.2429H140.821V43.2051H137.673V25.9257V22.0041V21.6718H139.277H140.821V23.6089V25.9257V32.6822H143.441L148.287 24.9978H151.62L146.219 33.577ZM132.408 25.0309C131.747 24.8352 131.055 24.737 130.334 24.737C129.158 24.737 128.157 24.9437 127.332 25.3562C126.506 25.7693 125.83 26.2531 125.304 26.8109C124.778 27.3683 124.385 27.9301 124.128 28.4975C123.869 29.0656 123.72 29.4934 123.679 29.7819H123.06V25.0464H119.903V43.3088H123.06V33.4346C123.06 32.6918 123.215 31.9798 123.524 31.2988C123.834 30.6181 124.251 30.0195 124.778 29.5037C125.304 28.9883 125.918 28.5751 126.619 28.2653C127.32 27.9559 128.074 27.801 128.879 27.801C129.746 27.801 130.551 27.9459 131.293 28.2348C131.622 28.3632 132.18 28.621 132.737 28.9173L135.336 26.3175C134.923 26.0078 133.068 25.227 132.408 25.0309ZM112.009 39.151C112.411 38.7911 112.682 38.4056 112.827 37.9938V37.0678C112.663 36.6774 112.364 36.3272 111.932 36.0185C111.5 35.7102 110.98 35.4427 110.374 35.2164C109.767 34.9902 109.094 34.8202 108.352 34.7069C107.612 34.5943 106.86 34.5479 106.1 34.5685C105.544 34.5685 104.988 34.6252 104.434 34.7377C103.878 34.8511 103.373 35.031 102.921 35.2775C102.469 35.5247 102.098 35.8492 101.81 36.2503C101.521 36.6517 101.378 37.1502 101.378 37.7466C101.378 38.364 101.521 38.8839 101.81 39.3051C102.098 39.7268 102.473 40.0616 102.937 40.3081C103.4 40.5549 103.924 40.7301 104.51 40.8331C105.097 40.9361 105.677 40.9869 106.254 40.9869C107.077 40.9869 107.853 40.9097 108.584 40.7559C109.314 40.6013 109.967 40.3854 110.544 40.1079C111.119 39.8298 111.608 39.5112 112.009 39.151ZM110.714 25.2174C111.751 25.5063 112.663 25.9173 113.444 26.4522C114.226 26.9875 114.842 27.6354 115.296 28.3959C115.748 29.1579 115.975 30.0214 115.975 30.9886V43.3015H112.827V40.1844H112.302C112.179 40.6377 111.942 41.069 111.593 41.4814C111.243 41.8931 110.785 42.2577 110.219 42.5763C109.653 42.8953 108.985 43.1473 108.214 43.3323C107.442 43.5178 106.594 43.6106 105.668 43.6106C104.761 43.6106 103.862 43.4965 102.968 43.2709C102.073 43.045 101.28 42.6948 100.591 42.2216C99.9014 41.7488 99.3415 41.1366 98.9093 40.3854C98.477 39.6348 98.2711 38.7348 98.2917 37.6848C98.3128 36.7591 98.5129 35.9674 98.8939 35.3084C99.2742 34.651 99.7629 34.1101 100.359 33.6888C100.956 33.2672 101.635 32.9427 102.396 32.7164C103.157 32.4905 103.919 32.3363 104.68 32.2535C105.462 32.1723 106.258 32.1664 107.071 32.2381C107.884 32.3106 108.656 32.4342 109.386 32.6083C110.117 32.7833 110.785 33.0045 111.393 33.272C111.999 33.5398 112.477 33.8382 112.827 34.1671V31.7606C112.827 31.0814 112.657 30.4747 112.318 29.939C111.978 29.4044 111.536 28.9522 110.991 28.5813C110.446 28.2112 109.844 27.9331 109.186 27.748C108.527 27.5633 107.89 27.4706 107.272 27.4706C106.717 27.4706 106.131 27.5478 105.513 27.7016C104.896 27.8562 104.32 28.0931 103.785 28.4114C103.25 28.7304 102.809 29.1424 102.458 29.6465C102.317 29.8489 102.21 30.0722 102.123 30.3065H98.8349C98.9471 29.5092 99.1806 28.8146 99.5423 28.2267C100.067 27.3728 100.734 26.6888 101.548 26.1748C102.36 25.6605 103.281 25.3002 104.31 25.0942C105.338 24.8889 106.367 24.7863 107.395 24.7863C108.569 24.7863 109.675 24.9301 110.714 25.2174Z" fill="white"/>
<path fillRule="evenodd" clipRule="evenodd" d="M171.977 0H133.241C132.649 0 132.353 0.7145 132.77 1.13356L141.799 10.187C142.216 10.6049 142.781 10.8404 143.372 10.8407L153.681 10.8455C158.748 10.8477 163.61 8.83594 167.193 5.25242L167.875 4.57103C168.095 4.34992 168.453 4.34992 168.674 4.57103L170.43 6.32602C170.65 6.54716 170.65 6.90476 170.43 7.12551L169.783 7.7712C166.212 11.3415 164.2 16.1815 164.189 21.2316L164.166 31.5995C164.164 32.1908 164.398 32.7585 164.817 33.1768L173.866 42.2262C174.284 42.6445 175 42.3483 175 41.756V2.97574C175 2.70642 174.891 2.44851 174.699 2.26086L172.675 0.284402C172.488 0.101914 172.238 0 171.977 0Z" fill="white"/>
</svg>
