<svg width="246" height="59" viewBox="0 0 246 59" fill="none" xmlns="http://www.w3.org/2000/svg">
<path d="M1.66113 51.6096V57.1094H211.739V51.6096H1.66113ZM226.3 51.6096V57.1094H244.34V51.6096H226.3Z" fill="white"/>
<path d="M46.3955 2.34557C45.1012 2.34557 43.9687 2.75004 43.1598 3.55897C42.27 4.44879 41.8643 5.50039 41.8643 6.79468C41.8643 8.08896 42.27 9.22146 43.1598 10.0304C44.0496 10.8393 45.1012 11.2438 46.3955 11.2438C47.6898 11.2438 48.8223 10.8393 49.6312 10.0304C50.521 9.14057 50.9252 8.08896 50.9252 6.79468C50.9252 5.4195 50.4401 4.36789 49.6312 3.55897C48.8223 2.75004 47.7707 2.34557 46.3955 2.34557ZM1.66113 4.44847V9.62593C4.81595 9.62593 7.32363 12.2142 7.32363 15.369C7.32363 18.5238 4.81595 21.1121 1.66113 21.1121V25.8045C4.81595 25.8045 7.32363 28.3927 7.32363 31.5476V32.4371C7.32363 35.5919 4.81595 38.1817 1.66113 38.1817V43.3576H23.0977C24.9583 43.3576 26.5756 43.1149 28.1125 42.5487C29.6495 42.0633 30.9441 41.3359 32.0766 40.3652C33.2091 39.3945 34.0998 38.2626 34.666 36.9683C35.3132 35.674 35.6361 34.2177 35.6361 32.5998C35.6361 30.2539 35.0705 28.3122 33.8571 26.6134C32.6437 24.9147 31.0259 23.7013 29.0036 22.9732C30.6214 22.2452 31.8342 21.1936 32.8049 19.7375C33.7756 18.2815 34.2616 16.5821 34.2616 14.6406C34.2616 13.1037 33.9368 11.7288 33.3705 10.5154C32.8043 9.22115 31.9148 8.16954 30.8632 7.27972C29.8116 6.3899 28.5179 5.66218 27.0618 5.17682C25.6057 4.69146 23.9879 4.44847 22.2082 4.44847H1.66113ZM60.1473 6.7141V15.0451H54.9698V20.7076H60.1473V35.0266C60.1473 36.4018 60.3082 37.6148 60.7935 38.7473C61.2789 39.8798 61.9263 40.8502 62.7352 41.6592C63.625 42.4681 64.5952 43.1159 65.7277 43.5203C66.8602 43.9248 68.1553 44.1665 69.5305 44.1665C71.5528 44.1665 73.6552 43.8433 75.8393 43.277L74.8691 37.6951C73.5748 38.0187 72.3612 38.1817 71.3096 38.1817C70.0962 38.1817 69.2064 37.7769 68.4784 37.0489C67.7503 36.3209 67.4276 35.3505 67.4276 34.1371V20.5465H75.1124V14.884H67.4276H67.3455V6.7141H60.1473ZM109.41 6.7141V15.0451H104.234V20.7076H109.41V35.0266C109.41 36.4018 109.572 37.6148 110.058 38.7473C110.543 39.8798 111.109 40.8502 111.999 41.6592C112.889 42.4681 113.859 43.1159 114.992 43.5203C116.124 43.9248 117.419 44.1665 118.795 44.1665C120.817 44.1665 122.919 43.8433 125.103 43.277L124.133 37.6951C122.839 38.0187 121.625 38.1817 120.574 38.1817C119.36 38.1817 118.47 37.7769 117.742 37.0489C117.014 36.3209 116.69 35.3505 116.69 34.1371V20.5465H124.375V14.884H116.69H116.609V6.7141H109.41ZM12.7429 10.0304H21.0754C22.7742 10.0304 24.1488 10.5161 25.2813 11.5677C26.4138 12.5384 26.8991 13.9139 26.8991 15.5317C26.8991 17.1496 26.3329 18.4429 25.2813 19.4136C24.1488 20.3844 22.7742 20.8703 21.0754 20.8703H12.7429V10.0304ZM90.3194 14.075C88.7824 14.075 87.2452 14.3183 85.9509 14.7228C84.6566 15.1273 83.5247 15.7738 82.5539 16.5018C81.6641 17.3107 80.9367 18.2009 80.3705 19.2525C79.8042 20.3041 79.5616 21.5165 79.5616 22.7299C79.5616 24.5096 79.8842 25.9666 80.6123 26.9373C81.3403 27.9889 82.2304 28.7975 83.3629 29.4447C84.4954 30.0918 85.6282 30.5778 86.9225 30.9014C88.2168 31.2249 89.3496 31.5479 90.4821 31.8715C91.6146 32.195 92.5032 32.5995 93.2312 33.0848C93.9593 33.5702 94.3641 34.2173 94.3641 35.1072C94.3641 36.1588 93.9596 36.9677 93.1507 37.5339C92.3417 38.1002 91.2095 38.4235 89.8343 38.4235C87.1648 38.4235 84.1721 37.7763 80.8555 36.4011L79.3182 41.6592C83.2011 43.1961 86.9216 43.9248 90.4 43.9248C92.0178 43.9248 93.556 43.6815 94.9312 43.277C96.3873 42.7917 97.5186 42.2264 98.4893 41.4174C99.46 40.6085 100.189 39.6378 100.755 38.5862C101.321 37.4537 101.564 36.3209 101.564 35.0266C101.564 33.2469 101.159 31.7906 100.431 30.6581C99.703 29.6065 98.8128 28.7173 97.6803 28.0701C96.6287 27.423 95.4165 26.937 94.1223 26.6134C92.828 26.3707 91.6952 26.0475 90.5627 25.7239C89.4302 25.4003 88.54 24.9956 87.812 24.5911C87.0839 24.1866 86.6792 23.5392 86.6792 22.6494C86.6792 21.6786 87.0031 20.9516 87.812 20.3853C88.6209 19.8191 89.6728 19.5764 90.9671 19.5764C92.1805 19.5764 93.4739 19.7378 94.8491 20.0614C96.2243 20.385 97.6007 20.7891 98.9758 21.3554L100.594 16.0168C98.814 15.3696 97.0344 14.8836 95.3357 14.5601C93.6369 14.2365 91.9373 14.075 90.3194 14.075ZM178.493 14.075C176.632 14.075 174.933 14.4795 173.315 15.2884C171.697 16.0974 170.403 17.2292 169.27 18.6853L168.381 14.8034H162.557H162.476V43.277H169.837V27.179C169.837 25.0758 170.403 23.4586 171.616 22.1643C172.83 20.87 174.367 20.2226 176.309 20.2226C177.927 20.2226 179.22 20.7891 180.191 21.7598C181.161 22.8115 181.647 24.1061 181.647 25.7239V43.277H189.008V27.179C189.008 25.0758 189.575 23.4586 190.789 22.1643C192.002 20.87 193.539 20.2226 195.399 20.2226C197.017 20.2226 198.312 20.7891 199.363 21.7598C200.415 22.8115 200.9 24.1061 200.9 25.7239V43.277H208.261V24.5105C208.261 22.9736 207.938 21.5974 207.452 20.3031C206.967 19.0089 206.238 17.8767 205.267 16.9869C204.378 16.0161 203.245 15.2887 201.951 14.8034C200.657 14.318 199.282 14.075 197.745 14.075C195.642 14.075 193.782 14.4792 192.083 15.369C190.384 16.2588 188.847 17.5537 187.553 19.2525C186.744 17.6346 185.53 16.3394 183.994 15.4496C182.376 14.5598 180.596 14.075 178.493 14.075ZM230.831 14.075C228.971 14.075 227.271 14.4798 225.734 15.2078C224.197 16.0168 222.985 17.0684 221.933 18.4436L221.042 14.8034H215.218V57.1915H222.499V39.9607C223.469 41.255 224.683 42.2254 226.139 42.8726C227.514 43.5197 229.132 43.8442 230.831 43.8442C232.692 43.8442 234.47 43.4394 236.007 42.7114C237.544 41.9834 238.919 40.9311 240.052 39.6368C241.184 38.3426 242.075 36.7257 242.722 34.946C243.369 33.1664 243.692 31.1437 243.692 28.9596C243.692 26.7755 243.369 24.7529 242.722 22.9732C242.075 21.1127 241.184 19.5751 240.052 18.2808C238.919 16.9865 237.544 15.9359 236.007 15.2078C234.389 14.4798 232.692 14.075 230.831 14.075ZM142.658 14.2362C138.775 14.2362 134.81 14.9645 130.766 16.5824L132.627 21.7598C135.944 20.3847 139.018 19.7375 141.849 19.7375C143.629 19.7375 145.003 20.2223 146.055 21.1121C147.106 22.0019 147.592 23.2156 147.592 24.6717V26.209C146.702 26.0472 145.731 25.8854 144.841 25.8045C143.952 25.7236 143.061 25.6433 142.171 25.6433C138.046 25.6433 134.892 26.4523 132.627 28.0701C130.362 29.688 129.229 32.0336 129.229 35.0266C129.229 36.3209 129.471 37.5343 130.037 38.6668C130.523 39.7993 131.17 40.6891 132.06 41.498C132.95 42.3069 134.002 42.9531 135.215 43.3576C136.428 43.7621 137.803 44.0054 139.26 44.0054C141.039 44.0054 142.658 43.6824 144.276 43.0353C145.813 42.3881 147.268 41.4174 148.482 40.204C148.967 41.4174 149.696 42.3881 150.747 43.0353C151.799 43.7633 153.012 44.0859 154.468 44.0859C155.196 44.0859 155.843 44.0863 156.49 44.0054C157.137 43.9245 157.703 43.7624 158.35 43.6815L157.865 38.2623C157.784 38.2623 157.542 38.3429 157.299 38.3429C156.976 38.4238 156.733 38.4235 156.41 38.4235C155.763 38.4235 155.277 38.2623 154.953 37.8578C154.629 37.5343 154.468 37.0483 154.468 36.4011V24.8344C154.468 23.2974 154.145 21.8407 153.578 20.5465C153.012 19.2522 152.203 18.12 151.152 17.2302C150.1 16.2595 148.885 15.5305 147.429 15.0451C145.973 14.4789 144.438 14.2362 142.658 14.2362ZM42.5927 14.9645V43.277H50.1162V14.9645H42.5927ZM228.97 19.9808C230.022 19.9808 230.992 20.1417 231.882 20.627C232.772 21.1124 233.5 21.6793 234.147 22.4882C234.795 23.2162 235.361 24.1869 235.685 25.3194C236.089 26.4519 236.25 27.6653 236.25 28.9596C236.25 30.2539 236.089 31.5482 235.685 32.5998C235.28 33.6514 234.795 34.6221 234.147 35.431C233.5 36.24 232.772 36.8862 231.882 37.2906C230.992 37.6951 230.022 37.9384 228.97 37.9384C227.999 37.9384 227.109 37.7769 226.3 37.4534C225.491 37.1298 224.763 36.6438 224.197 35.9967C223.631 35.3495 223.146 34.6224 222.822 33.7326C222.499 32.9237 222.337 31.953 222.337 30.9014V27.0985C222.337 24.9952 222.984 23.2974 224.197 22.0032C225.491 20.628 227.029 19.9808 228.97 19.9808ZM12.7429 25.8851H21.8038C23.6643 25.8851 25.2007 26.4513 26.4141 27.5029C27.5466 28.5545 28.1125 30.0115 28.1125 31.7103C28.1934 33.4899 27.6275 34.9451 26.4141 35.9967C25.2816 37.1292 23.7452 37.6145 21.8038 37.6145H12.7429V25.8851ZM142.98 29.8491C144.679 29.8491 146.217 30.0103 147.592 30.4147V32.1148C147.592 34.0562 147.025 35.6728 145.812 36.8862C144.598 38.0996 143.062 38.7473 141.121 38.7473C139.745 38.7473 138.612 38.3429 137.642 37.5339C136.752 36.725 136.267 35.7546 136.267 34.6221C136.267 33.1661 136.914 31.952 138.046 31.1431C139.26 30.2533 140.877 29.8491 142.98 29.8491Z" fill="white"/>
</svg>
