<svg width="359" height="73" viewBox="0 0 359 73" fill="none" xmlns="http://www.w3.org/2000/svg">
<path d="M95.0508 52.0457C87.2072 52.0457 81.4434 45.9886 81.4434 38.5202C81.4434 31.0518 87.2666 24.8183 95.1102 24.8183C100.102 24.8183 103.192 26.6413 105.628 29.2876L101.884 33.2864C100.042 31.3458 98.0813 30.0521 95.0508 30.0521C90.6536 30.0521 87.4449 33.8157 87.4449 38.4026C87.4449 43.1071 90.7131 46.8707 95.3479 46.8707C98.2001 46.8707 100.28 45.5182 102.181 43.6363L105.806 47.2235C103.192 49.9874 100.161 52.0457 95.0508 52.0457Z" fill="white"/>
<path d="M117.275 52.0455H111.214V24.8769H117.275V31.228C118.939 27.3468 121.969 24.6416 126.604 24.8769V31.228H126.247C120.959 31.228 117.275 34.6387 117.275 41.5779V52.0455Z" fill="white"/>
<path d="M158.275 24.7592L144.906 59.3375H138.785L141.697 52.0455L130.229 24.7592H136.705L144.49 44.9299L151.977 24.7592H158.275Z" fill="white"/>
<path d="M176.101 29.993C172.001 29.993 168.435 33.2862 168.435 38.4023C168.435 43.5185 172.06 46.8117 176.101 46.8117C180.26 46.8117 183.647 43.5773 183.647 38.4023C183.647 33.2274 180.201 29.993 176.101 29.993ZM177.467 51.9866C173.13 51.9866 170.396 49.8108 168.554 47.3997V59.3375H162.493V24.7592H168.554V29.6402C170.515 26.9351 173.248 24.7592 177.467 24.7592C183.707 24.7592 189.767 29.6402 189.767 38.3435C189.767 47.0469 183.766 51.9866 177.467 51.9866Z" fill="white"/>
<path d="M203.019 30.4635V43.2834C203.019 45.5768 204.208 46.5177 206.288 46.5177H208.664V51.8691H204.505C200.108 51.8691 196.958 49.9285 196.958 44.2243V30.4635H193.631V25.3474H196.958V18.173H203.019V25.3474H208.664V30.4635H203.019Z" fill="white"/>
<path d="M227.737 29.9932C222.865 29.9932 219.775 33.7569 219.775 38.3438C219.775 42.9895 223.103 46.8119 227.797 46.8119C232.669 46.8119 235.759 43.0483 235.759 38.4614C235.878 33.8157 232.491 29.9932 227.737 29.9932ZM227.737 52.0457C219.716 52.0457 213.773 45.9886 213.773 38.5202C213.773 30.993 219.775 24.8183 227.856 24.8183C235.938 24.8183 241.88 30.8753 241.88 38.4026C241.88 45.8122 235.938 52.0457 227.737 52.0457Z" fill="white"/>
<path d="M299.696 29.9932C294.824 29.9932 291.734 33.7569 291.734 38.3438C291.734 42.9895 295.062 46.8119 299.756 46.8119C304.628 46.8119 307.718 43.0483 307.718 38.4614C307.778 33.8157 304.45 29.9932 299.696 29.9932ZM299.696 52.0457C291.675 52.0457 285.732 45.9886 285.732 38.5202C285.732 30.993 291.734 24.8183 299.815 24.8183C307.897 24.8183 313.839 30.8753 313.839 38.4026C313.839 45.8122 307.837 52.0457 299.696 52.0457Z" fill="white"/>
<path d="M349.73 24.7592C355.494 24.7592 359 28.3464 359 34.7564V51.9867H352.939V36.5793C352.939 32.4041 350.978 30.2282 347.591 30.2282C344.323 30.2282 341.946 32.5217 341.946 36.697V52.0455H335.885V36.5793C335.885 32.5217 333.865 30.2282 330.537 30.2282C327.209 30.2282 324.892 32.6981 324.892 36.7558V52.0455H318.831V24.818H324.892V29.2873C326.615 26.9939 328.873 24.818 332.914 24.818C336.717 24.818 339.331 26.6411 340.757 29.405C342.956 26.5822 345.749 24.7592 349.73 24.7592Z" fill="white"/>
<path d="M247.169 46.2236L249.784 44.7535H250.141L252.814 46.2236L252.993 46.5177V49.5756L252.814 49.8696L250.141 51.3398H249.784L247.169 49.8696L246.991 49.5756V46.5177L247.169 46.2236Z" fill="white"/>
<path d="M271.353 51.9868C263.509 51.8103 257.864 45.6357 257.983 38.1672C258.102 30.6988 264.044 24.5829 271.947 24.7594C276.939 24.877 280.029 26.7588 282.405 29.4639L278.602 33.4039C276.82 31.4633 274.859 30.0519 271.828 29.9931C267.431 29.9343 264.163 33.5803 264.104 38.2261C263.985 42.9306 267.194 46.753 271.828 46.8118C274.681 46.8706 276.82 45.5769 278.721 43.695L282.287 47.3411C279.613 50.105 276.523 52.1044 271.353 51.9868Z" fill="white"/>
<path d="M43.8297 56.9854H39.6108L34.56 52.3985V50.0462L39.7891 45.1064V37.2852L46.6225 32.8747L54.4067 38.6965L43.8297 56.9854ZM26.3599 44.636L27.1324 37.2852L24.5773 30.6989H39.6703L37.1746 37.2852L37.8876 44.636H32.0643H26.3599ZM29.8063 52.3985L24.7555 57.0442H20.4772L9.84082 38.6965L17.6844 32.9335L24.5773 37.2852V45.1064L29.8063 50.0462V52.3985ZM20.4178 17.1146H43.7703L46.5631 28.8759H17.6844L20.4178 17.1146Z" fill="white"/>
<path fillRule="evenodd" clipRule="evenodd" d="M1.24866 17.2596L30.8949 0.326187C31.6566 -0.108892 32.5912 -0.108566 33.3524 0.326187L62.9986 17.2596C63.771 17.7009 64.2472 18.5221 64.2472 19.4108V53.2776C64.2472 54.1677 63.7699 54.9883 62.9986 55.4289L33.3524 72.3623C32.5906 72.7974 31.656 72.7971 30.8949 72.3623L1.24866 55.4289C0.476194 54.9876 0 54.1664 0 53.2776V19.4108C0 18.5208 0.477321 17.7002 1.24866 17.2596ZM32.1212 2.4731C32.1227 2.47223 32.1245 2.47223 32.1261 2.4731L61.7723 19.4066C61.7738 19.4074 61.7748 19.4091 61.7748 19.4108V53.2776C61.7748 53.2794 61.7738 53.2811 61.7723 53.2819L32.1261 70.2154C32.1245 70.2162 32.1227 70.2162 32.1212 70.2154L2.47494 53.2819C2.4734 53.2811 2.47245 53.2794 2.47245 53.2776V19.4108C2.47245 19.4091 2.4734 19.4074 2.47494 19.4066L32.1212 2.4731Z" fill="white"/>
</svg>
