<svg width="317" height="102" viewBox="0 0 317 102" fill="none" xmlns="http://www.w3.org/2000/svg">
<path d="M131.708 27.524C129.117 27.5266 126.634 28.5575 124.803 30.3898C122.972 32.2222 121.944 34.7069 121.944 37.2972L120.741 71.5496C120.741 76.9436 125.121 78.1274 130.505 78.1274L181.089 71.6717L180.281 95.0985C180.281 97.9174 182.32 98.585 184.839 98.585L266.848 88.1726C269.374 88.1726 271.404 85.8421 271.404 82.9759L271.921 60.0755L305.524 55.7813C308.114 55.7711 310.592 54.7343 312.418 52.899C314.244 51.0629 315.266 48.5782 315.259 45.9896L316.999 12.4043C317.037 7.0107 314.322 4.24759 308.88 4.24759L131.708 27.524ZM125.706 73.6422C124.689 72.6257 124.117 71.2479 124.115 69.811L125.055 36.2916C125.057 34.853 125.63 33.4732 126.649 32.4571C127.667 31.4406 129.047 30.8693 130.486 30.8693L308.503 8.12862C309.216 8.12735 309.921 8.26635 310.577 8.53759C311.236 8.80925 311.833 9.20809 312.338 9.71085C312.841 10.2132 313.24 10.8102 313.513 11.468C313.785 12.1254 313.926 12.8297 313.926 13.5412L311.888 46.1302C311.882 47.5676 311.307 48.9445 310.289 49.9589C309.271 50.9733 307.893 51.5428 306.455 51.5428L269.628 56.467C269.639 56.633 269.639 56.7991 269.628 56.9647L268.359 81.9142C268.358 82.7833 268.01 83.6156 267.396 84.2307C266.782 84.845 265.949 85.1911 265.08 85.194L186.803 95.3896C186.373 95.3896 185.946 95.3047 185.549 95.1399C185.152 94.9747 184.791 94.7331 184.487 94.4289C184.183 94.1238 183.942 93.7622 183.779 93.3642C183.615 92.9662 183.531 92.5399 183.532 92.1102L183.861 73.8986C183.859 73.4669 183.942 73.0376 184.106 72.6375C184.269 72.2378 184.511 71.8736 184.815 71.5673C185.12 71.261 185.483 71.0177 185.882 70.8512C186.281 70.6856 186.709 70.6002 187.141 70.6002L244.201 60.9775L129.537 75.2329C128.1 75.2308 126.722 74.6583 125.706 73.6422Z" fill="white"/>
<path d="M141.279 65.768L143.756 34.8102L149.789 34.0717L157.827 48.0642L168.417 31.7906L174.186 31.0842L171.709 62.042L165.236 62.8346L166.085 52.2207C166.229 50.4218 166.391 48.7525 166.573 47.2121C166.754 45.6721 166.975 44.1853 167.235 42.7518L158.518 55.7748L155.612 56.1301L148.996 45.073C149.005 46.4148 148.979 47.834 148.917 49.3305C148.856 50.8269 148.751 52.5038 148.602 54.3615L147.753 64.9754L141.279 65.768Z" fill="white"/>
<path d="M190.121 43.409L187.985 48.3125L195.824 47.353L194.404 42.7533C194.196 42.0782 193.935 41.1614 193.621 40.0029C193.336 38.8406 193.061 37.7358 192.796 36.688C192.385 37.8186 191.945 38.9673 191.473 40.1343C191.002 41.3012 190.552 42.3929 190.121 43.409ZM176.071 61.5078L190.614 29.0725L196.515 28.3501L206.061 57.8355L199.279 58.6661L197.377 52.4614L185.575 53.9067L182.589 60.7097L176.071 61.5078Z" fill="white"/>
<path d="M223.628 56.1224C221.222 56.4169 219.066 56.2868 217.164 55.7316C215.263 55.1469 213.649 54.2204 212.328 52.9516C211.005 51.6833 210.024 50.1247 209.387 48.2759C208.779 46.4232 208.567 44.3619 208.748 42.0918C208.93 39.8213 209.494 37.6797 210.439 35.6661C211.417 33.6196 212.696 31.7986 214.278 30.2037C215.892 28.5758 217.728 27.2416 219.787 26.201C221.847 25.1604 224.066 24.4945 226.445 24.2034C228.91 23.9014 231.161 24.1075 233.197 24.8215C235.236 25.5064 236.811 26.5246 237.924 27.8774L233.481 32.7129C232.425 31.7627 231.275 31.0567 230.031 30.5958C228.79 30.1344 227.421 29.9958 225.923 30.1792C224.102 30.4018 222.423 31.0457 220.885 32.11C219.377 33.1409 218.138 34.4607 217.166 36.0683C216.197 37.6472 215.637 39.3794 215.486 41.2667C215.339 43.124 215.642 44.7654 216.401 46.1909C217.16 47.5864 218.254 48.635 219.68 49.3363C221.108 50.0377 222.745 50.2747 224.596 50.0486C225.917 49.8864 227.139 49.4884 228.267 48.8543C229.394 48.1905 230.318 47.3768 231.035 46.4135C231.75 45.4498 232.152 44.4371 232.236 43.3758L224.31 44.3462L224.752 38.8179L239.02 37.0713C239.039 37.5652 239.032 38.1935 239.001 38.9565C238.999 39.7157 238.98 40.3021 238.946 40.7149C238.732 43.3978 237.912 45.8486 236.483 48.0672C235.088 50.2523 233.271 52.0656 231.033 53.508C228.799 54.92 226.331 55.7916 223.628 56.1224Z" fill="white"/>
<path d="M242.539 53.3687L242.995 47.6638L248.147 47.033L249.712 27.4851L244.558 28.1158L245.014 22.4113L261.925 20.3403L261.468 26.0456L256.317 26.6764L254.752 46.2239L259.905 45.5931L259.449 51.2981L242.539 53.3687Z" fill="white"/>
<path d="M279.523 49.2783C276.498 49.6484 273.867 49.2995 271.627 48.231C269.416 47.1583 267.731 45.4962 266.574 43.2439C265.446 40.9877 265.009 38.2973 265.257 35.1721C265.44 32.9016 266.004 30.76 266.95 28.7464C267.897 26.7037 269.148 24.8865 270.699 23.295C272.253 21.6743 274.031 20.3468 276.033 19.3138C278.034 18.2804 280.165 17.6255 282.426 17.3484C284.628 17.0788 286.705 17.277 288.657 17.9432C290.642 18.5757 292.201 19.6108 293.337 21.0486L288.829 26.1548C287.889 25.1899 286.841 24.4864 285.684 24.0436C284.559 23.5683 283.293 23.4171 281.883 23.5899C280.209 23.7948 278.65 24.3943 277.203 25.3889C275.76 26.3538 274.569 27.6238 273.629 29.1985C272.691 30.744 272.146 32.4749 271.993 34.3914C271.835 36.3665 272.093 38.0282 272.771 39.3759C273.478 40.7199 274.519 41.7018 275.892 42.3216C277.297 42.938 278.968 43.1277 280.905 42.8902C282.314 42.7179 283.658 42.2759 284.936 41.5649C286.246 40.8204 287.38 39.9226 288.335 38.8715L291.181 43.6465C290.381 44.5329 289.355 45.3737 288.099 46.1696C286.845 46.9656 285.468 47.6454 283.968 48.2082C282.502 48.7384 281.021 49.0946 279.523 49.2783Z" fill="white"/>
<path d="M194.088 87.9807C192.971 88.107 192.019 88.0039 191.232 87.6718C190.445 87.3389 189.791 86.7989 189.27 86.0516L190.975 84.1241C191.495 84.8842 192.026 85.3899 192.568 85.6422C193.11 85.8935 193.74 85.9789 194.455 85.8978C195.075 85.8276 195.609 85.6345 196.057 85.3189C196.52 84.9898 196.771 84.5999 196.811 84.1499C196.858 83.6264 196.648 83.2356 196.178 82.975C195.721 82.7139 195.057 82.5482 194.187 82.4785C191.577 82.244 190.365 81.0805 190.554 78.9879C190.619 78.2705 190.876 77.6148 191.326 77.0224C191.789 76.4157 192.374 75.9159 193.083 75.5226C193.803 75.128 194.582 74.8834 195.419 74.7883C196.487 74.6675 197.374 74.76 198.079 75.0654C198.798 75.357 199.337 75.8382 199.698 76.5078L197.992 78.2363C197.341 77.1902 196.421 76.7343 195.232 76.8686C194.589 76.9413 194.054 77.1407 193.628 77.4656C193.204 77.7791 192.971 78.1665 192.929 78.6288C192.885 79.1155 193.057 79.475 193.445 79.7082C193.844 79.9402 194.443 80.0948 195.241 80.1734C196.552 80.2896 197.562 80.6149 198.271 81.1489C198.992 81.6813 199.308 82.4342 199.221 83.4076C199.147 84.2348 198.882 84.9755 198.426 85.6291C197.983 86.2814 197.388 86.812 196.643 87.2214C195.898 87.619 195.047 87.8721 194.088 87.9807Z" fill="white"/>
<path d="M207.162 84.2603C207.442 84.229 207.717 84.1678 207.99 84.0765L206.501 82.0054L208.451 80.5563L210.055 82.7587C210.465 82.3392 210.797 81.85 211.052 81.2914C211.307 80.7206 211.465 80.1186 211.521 79.4861C211.595 78.6589 211.485 77.9432 211.191 77.3381C210.911 76.7196 210.49 76.2553 209.929 75.9452C209.369 75.6355 208.705 75.524 207.941 75.6106C207.176 75.6972 206.48 75.9625 205.851 76.4074C205.223 76.8396 204.71 77.4036 204.311 78.0991C203.913 78.7818 203.676 79.5436 203.601 80.3826C203.525 81.2226 203.628 81.9514 203.909 82.5695C204.19 83.1762 204.612 83.6342 205.173 83.9438C205.734 84.2417 206.398 84.3473 207.162 84.2603ZM206.959 86.5232C206.048 86.6267 205.219 86.5574 204.472 86.317C203.725 86.0766 203.087 85.6972 202.557 85.1792C202.04 84.6477 201.66 83.9983 201.416 83.2311C201.173 82.4643 201.094 81.6058 201.18 80.6573C201.265 79.7083 201.502 78.8139 201.89 77.9757C202.277 77.137 202.783 76.3935 203.405 75.7449C204.042 75.0825 204.763 74.5434 205.57 74.1272C206.376 73.7102 207.234 73.4508 208.144 73.3481C209.067 73.2433 209.902 73.3114 210.648 73.5518C211.397 73.7926 212.028 74.1787 212.545 74.7102C213.063 75.2417 213.441 75.8907 213.685 76.6584C213.93 77.4134 214.01 78.2655 213.923 79.2144C213.831 80.2483 213.551 81.2251 213.084 82.1453C212.629 83.052 212.043 83.8344 211.321 84.4943L212.665 86.3829L210.764 87.8988L209.289 85.8624C208.549 86.2109 207.772 86.4315 206.959 86.5232Z" fill="white"/>
<path d="M221.001 84.8615C219.994 84.9755 219.114 84.8644 218.364 84.5277C217.615 84.1791 217.043 83.654 216.649 82.9514C216.271 82.2361 216.123 81.3978 216.209 80.4363L216.919 72.5529L219.304 72.2834L218.61 80.0024C218.559 80.5617 218.641 81.0522 218.856 81.4735C219.083 81.8939 219.396 82.2133 219.796 82.433C220.208 82.6514 220.677 82.7308 221.199 82.6712C221.757 82.6083 222.272 82.4173 222.745 82.0988C223.219 81.7806 223.603 81.3818 223.898 80.9031C224.207 80.4223 224.386 79.9026 224.437 79.3428L225.13 71.6235L227.423 71.364L226.714 79.2474C226.628 80.2085 226.319 81.0983 225.789 81.9167C225.274 82.7224 224.601 83.3886 223.772 83.9155C222.945 84.4305 222.022 84.7461 221.001 84.8615Z" fill="white"/>
<path d="M233.521 76.2007L232.465 78.524L236.016 78.1222L235.364 75.9379C235.318 75.7989 235.253 75.5771 235.173 75.2738C235.103 74.9679 235.026 74.64 234.937 74.289C234.849 73.9252 234.771 73.5969 234.702 73.3037C234.514 73.7824 234.312 74.2928 234.093 74.8357C233.879 75.3655 233.688 75.8209 233.521 76.2007ZM227.774 83.9865L233.894 70.6492L236.115 70.3982L239.899 82.6138L237.442 82.8918L236.613 80.0957L231.515 80.6728L230.141 83.7182L227.774 83.9865Z" fill="white"/>
<path d="M244.828 75.3727L248.067 75.006C248.589 74.9464 249.025 74.7166 249.374 74.3161C249.733 73.9143 249.937 73.4453 249.986 72.91C250.038 72.3261 249.881 71.8745 249.515 71.5546C249.147 71.223 248.641 71.0933 247.998 71.1664L245.177 71.4858L244.828 75.3727ZM241.908 82.3865L243.057 69.612L248.591 68.9859C249.357 68.8993 250.032 68.9973 250.619 69.2799C251.218 69.5613 251.679 69.991 251.999 70.569C252.321 71.1347 252.447 71.8069 252.375 72.5851C252.304 73.3883 252.014 74.1437 251.507 74.8514C250.998 75.559 250.371 76.1117 249.626 76.5088L252.102 81.2504L249.298 81.5496L247.1 77.1569L244.641 77.4349L244.22 82.1246L241.908 82.3865Z" fill="white"/>
<path d="M254.601 80.9493L255.751 68.1752L264.09 67.2309L263.896 69.3844L257.905 70.0625L257.634 73.0917L262.695 72.5188L262.504 74.636L257.443 75.2089L257.144 78.5297L263.206 77.8435L263.012 79.997L254.601 80.9493Z" fill="white"/>
<path d="M40.0374 3.93706C35.8391 7.98539 35.8391 14.5455 40.0374 18.5938L68.7906 46.3195L75.551 39.8009C80.2132 35.3076 80.2132 28.0179 75.551 23.5226L55.237 3.93706C53.1389 1.91289 50.3889 0.901028 47.6381 0.901028C44.8872 0.901028 42.1364 1.91289 40.0374 3.93706Z" fill="white"/>
<path d="M13.7012 31.5601L69.8768 86.5773L85.3713 71.4017L29.1961 16.3846L13.7012 31.5601Z" fill="white"/>
<path d="M22.4658 62.3358C17.8083 66.9748 17.8083 72.7803 22.4658 77.4192L42.8026 97.895C46.9963 102.073 53.795 102.073 57.9862 97.895C62.1798 93.7203 62.1798 86.9482 57.9862 82.771L29.2181 55.6097L22.4658 62.3358Z" fill="white"/>
<path d="M82.1329 42.2239C78.0182 46.3989 78.0182 53.1656 82.1329 57.3403L89.5869 64.8995L97.0406 57.3403C101.155 53.1656 101.155 46.3989 97.0406 42.2239C94.9809 40.1372 92.2833 39.094 89.5861 39.094C86.8885 39.094 84.1913 40.1372 82.1329 42.2239Z" fill="white"/>
<path d="M3.086 44.5869C-1.02867 48.762 -1.02867 55.5287 3.086 59.7038C7.20362 63.8793 13.8773 63.8793 17.992 59.7038C22.1088 55.5287 22.1088 48.762 17.992 44.5869L10.5401 37.0289L3.086 44.5869Z" fill="white"/>
</svg>
