<svg width="167" height="31" viewBox="0 0 167 31" fill="none" xmlns="http://www.w3.org/2000/svg">
<path fillRule="evenodd" clipRule="evenodd" d="M52.3594 0.612793H27.2877L11.0222 22.7117C9.12074 25.2951 10.2179 28.8933 13.2755 30.1017L30.4016 6.39794H44.6985C47.0313 6.39794 49.2048 5.26936 50.4707 3.40078L52.3594 0.612793ZM5.54712 0.663989H0.712891L12.5239 16.8931L16.7115 11.5175L10.4556 3.08607C9.32851 1.56701 7.49849 0.663989 5.54712 0.663989ZM46.8833 8.49697H31.69L15.8525 30.4088H19.4996C21.7546 30.4088 23.8661 29.3538 25.1497 27.5858L34.6965 14.4357H39.0928C41.2815 14.4357 43.3304 13.4097 44.573 11.6915L46.8833 8.49697ZM150.664 27.7872C152.105 28.3381 153.662 28.6136 155.336 28.6136C157.01 28.6136 158.556 28.3381 159.976 27.7872C161.396 27.2151 162.625 26.4206 163.663 25.4035C164.722 24.3865 165.538 23.1894 166.11 21.8121C166.703 20.4349 167 18.9305 167 17.299C167 15.6675 166.703 14.1631 166.11 12.7859C165.538 11.4087 164.722 10.2115 163.663 9.19448C162.625 8.17744 161.396 7.39348 159.976 6.84258C158.556 6.2705 157.01 5.98445 155.336 5.98445C153.641 5.98445 152.083 6.2705 150.664 6.84258C149.244 7.39348 148.005 8.18804 146.945 9.22626C145.907 10.2433 145.091 11.4404 144.498 12.8177C143.926 14.1737 143.64 15.6675 143.64 17.299C143.64 18.9305 143.926 20.4349 144.498 21.8121C145.091 23.1682 145.907 24.3653 146.945 25.4035C148.005 26.4206 149.244 27.2151 150.664 27.7872ZM159.023 25.8485C157.9 26.2934 156.671 26.5159 155.336 26.5159C154.001 26.5159 152.761 26.2934 151.617 25.8485C150.473 25.3823 149.477 24.7361 148.63 23.9098C147.803 23.0622 147.147 22.077 146.659 20.954C146.193 19.831 145.96 18.6127 145.96 17.299C145.96 15.9641 146.193 14.7458 146.659 13.644C147.147 12.521 147.803 11.5464 148.63 10.72C149.477 9.87251 150.473 9.22626 151.617 8.78131C152.761 8.31517 154.001 8.0821 155.336 8.0821C156.671 8.0821 157.9 8.31517 159.023 8.78131C160.167 9.22626 161.152 9.87251 161.978 10.72C162.826 11.5464 163.483 12.521 163.949 13.644C164.415 14.7458 164.648 15.9641 164.648 17.299C164.648 18.6339 164.415 19.8628 163.949 20.9858C163.483 22.0876 162.826 23.0622 161.978 23.9098C161.152 24.7361 160.167 25.3823 159.023 25.8485ZM77.1816 20.7373V28.4229H79.5017V20.7373L88.4008 6.17515H86.0489L78.4211 18.6543L70.7933 6.17515H68.2825L77.1816 20.7373ZM96.5334 8.20923V28.4229H98.8853V8.20923H106.704V6.17515H88.7149V8.20923H96.5334ZM115.677 28.4229L108.176 6.17515H110.592L117.021 25.3472L123.654 6.17515H125.816L132.392 25.4367L138.91 6.17515H141.167L133.666 28.4229H131.187L124.671 9.4806L118.124 28.4229H115.677Z" fill="white"/>
</svg>
