<svg width="169" height="26" viewBox="0 0 169 26" fill="none" xmlns="http://www.w3.org/2000/svg">
<path d="M27.9196 19.7908L23.2863 24.7588C23.1861 24.8667 23.0647 24.9528 22.9298 25.0117C22.7948 25.0707 22.6491 25.1012 22.5019 25.1013H0.538326C0.433573 25.1013 0.331108 25.0707 0.243479 25.0132C0.155852 24.9559 0.0868654 24.8741 0.0449647 24.7781C0.003064 24.6821 -0.00993111 24.576 0.00757176 24.4727C0.0250746 24.3694 0.0723119 24.2735 0.143505 24.1966L4.77154 19.2287C4.87176 19.1208 4.99311 19.0347 5.12808 18.9757C5.26303 18.9168 5.40869 18.8863 5.55595 18.8861H27.5195C27.6251 18.884 27.7292 18.9131 27.8184 18.9699C27.9075 19.0267 27.9781 19.1086 28.0208 19.2053C28.0636 19.302 28.0767 19.4092 28.0587 19.5134C28.0406 19.6176 27.9923 19.7141 27.9196 19.7908ZM23.2863 9.78434C23.1857 9.67693 23.0643 9.59117 22.9294 9.53226C22.7945 9.47338 22.649 9.4426 22.5019 9.44184H0.538326C0.433573 9.44189 0.331108 9.47249 0.243479 9.52991C0.155852 9.5873 0.0868654 9.66901 0.0449647 9.76502C0.003064 9.86103 -0.00993111 9.96716 0.00757176 10.0704C0.0250746 10.1737 0.0723119 10.2697 0.143505 10.3465L4.77154 15.3171C4.87213 15.4245 4.99358 15.5103 5.12845 15.5692C5.26331 15.6281 5.4088 15.6588 5.55595 15.6596H27.5195C27.6241 15.659 27.7261 15.6281 27.8134 15.5705C27.9007 15.5129 27.9692 15.4311 28.0108 15.3352C28.0524 15.2393 28.0652 15.1334 28.0474 15.0303C28.0299 14.9273 27.9828 14.8316 27.9117 14.7549L23.2863 9.78434ZM0.538326 6.21526H22.5019C22.6491 6.21513 22.7948 6.18462 22.9298 6.12569C23.0647 6.06678 23.1861 5.98065 23.2863 5.87274L27.9196 0.904804C27.9923 0.828067 28.0406 0.73153 28.0587 0.627336C28.0767 0.523143 28.0636 0.415947 28.0208 0.31924C27.9781 0.222532 27.9075 0.140634 27.8184 0.0838493C27.7292 0.0270647 27.6251 -0.002069 27.5195 0.000114316H5.55595C5.40869 0.000269326 5.26303 0.0307634 5.12808 0.0896953C4.99311 0.148627 4.87176 0.234732 4.77154 0.342642L0.143505 5.31058C0.0723119 5.38742 0.0250746 5.48338 0.00757176 5.58666C-0.00993111 5.68994 0.003064 5.79607 0.0449647 5.89209C0.0868654 5.9881 0.155852 6.06981 0.243479 6.1272C0.331108 6.18462 0.433573 6.21521 0.538326 6.21526Z" fill="white"/>
<path d="M54.697 10.6159H42.9465V6.74617H57.751V2.8764H42.9073C42.4 2.87365 41.8975 2.97082 41.4279 3.16234C40.9583 3.3539 40.5307 3.63605 40.1704 3.99272C39.8099 4.3494 39.523 4.77361 39.3264 5.24109C39.1298 5.7086 39.027 6.21026 39.0244 6.71741V10.6395C39.0265 11.1471 39.1285 11.6493 39.3248 12.1174C39.5212 12.5855 39.8078 13.0103 40.1683 13.3675C40.5292 13.7248 40.9567 14.0074 41.4265 14.1993C41.8964 14.3911 42.3997 14.4885 42.9073 14.4857H54.6734V18.3555H39.3042V22.2252H54.697C55.2042 22.228 55.7068 22.1308 56.1764 21.9393C56.646 21.7477 57.0735 21.4656 57.4338 21.1089C57.7944 20.7522 58.0812 20.3281 58.2778 19.8606C58.4744 19.393 58.5772 18.8914 58.5798 18.3842V14.4622C58.5777 13.9546 58.4758 13.4524 58.2794 12.9843C58.083 12.5162 57.7965 12.0913 57.4359 11.7341C57.0751 11.3769 56.6476 11.0943 56.1777 10.9024C55.7078 10.7105 55.2045 10.6132 54.697 10.6159Z" fill="white"/>
<path d="M77.4597 2.87635H65.6648C65.1567 2.87222 64.6529 2.96836 64.182 3.15929C63.7113 3.35021 63.2828 3.63213 62.9212 3.98896C62.5593 4.34576 62.2717 4.77042 62.0745 5.23861C61.8771 5.7068 61.7741 6.20932 61.7715 6.71736V18.3842C61.7741 18.8922 61.8771 19.3947 62.0745 19.8629C62.2717 20.3311 62.5593 20.7558 62.9212 21.1126C63.2828 21.4694 63.7113 21.7513 64.182 21.9423C64.6529 22.1332 65.1567 22.2293 65.6648 22.2252H77.4597C77.967 22.2279 78.4695 22.1308 78.9391 21.9393C79.4087 21.7477 79.8363 21.4655 80.1966 21.1089C80.5571 20.7522 80.844 20.328 81.0406 19.8605C81.2372 19.393 81.34 18.8913 81.3426 18.3842V6.71736C81.34 6.21021 81.2372 5.70855 81.0406 5.24104C80.844 4.77356 80.5571 4.34934 80.1966 3.99267C79.8363 3.636 79.4087 3.35385 78.9391 3.16229C78.4695 2.97077 77.967 2.8736 77.4597 2.87635ZM77.431 18.3554H65.6935V6.74612H77.4257L77.431 18.3554Z" fill="white"/>
<path d="M118.772 2.87626H107.268C106.76 2.87352 106.258 2.97068 105.788 3.16221C105.319 3.35376 104.891 3.63591 104.531 3.99259C104.17 4.34926 103.883 4.77347 103.687 5.24095C103.49 5.70846 103.387 6.21012 103.385 6.71727V22.2251H107.307V15.8688H118.759V22.2251H122.681V6.71727C122.679 6.2079 122.575 5.7041 122.377 5.23486C122.179 4.76565 121.89 4.34029 121.526 3.98325C121.163 3.62624 120.733 3.34464 120.26 3.15465C119.787 2.96467 119.282 2.87007 118.772 2.87626ZM118.744 11.999H107.291V6.74603H118.744V11.999Z" fill="white"/>
<path d="M164.569 2.8764H153.064C152.557 2.87365 152.055 2.97082 151.585 3.16234C151.115 3.3539 150.688 3.63605 150.328 3.99272C149.967 4.3494 149.68 4.77361 149.484 5.24109C149.287 5.7086 149.184 6.21026 149.182 6.71741V22.2252H153.104V15.8689H164.53V22.2252H168.452V6.71741C168.449 6.21026 168.347 5.7086 168.15 5.24109C167.953 4.77361 167.667 4.3494 167.306 3.99272C166.945 3.63605 166.518 3.3539 166.049 3.16234C165.579 2.97082 165.076 2.87365 164.569 2.8764ZM164.53 11.9991H153.078V6.74617H164.53V11.9991Z" fill="white"/>
<path d="M141.782 18.3555H140.213L134.604 4.4975C134.412 4.0194 134.082 3.60965 133.655 3.32082C133.228 3.03198 132.725 2.87721 132.209 2.87638H128.729C128.391 2.87465 128.056 2.93957 127.743 3.06741C127.429 3.19527 127.145 3.38353 126.904 3.62146C126.664 3.85943 126.473 4.14237 126.342 4.4542C126.211 4.766 126.142 5.10058 126.141 5.43879V22.2252H130.063V6.74615H131.632L137.237 20.6041C137.433 21.0813 137.766 21.4894 138.195 21.7763C138.623 22.0632 139.127 22.2158 139.643 22.2148H143.123C143.462 22.2165 143.797 22.1516 144.11 22.0237C144.423 21.8959 144.708 21.7076 144.948 21.4697C145.189 21.2317 145.38 20.9488 145.511 20.637C145.642 20.3251 145.71 19.9906 145.712 19.6524V2.87638H141.782V18.3555Z" fill="white"/>
<path d="M88.7297 2.87634H84.8076V18.3842C84.8102 18.8925 84.9135 19.3952 85.1109 19.8635C85.3083 20.3319 85.5962 20.7567 85.9581 21.1135C86.32 21.4704 86.749 21.7522 87.2199 21.943C87.6911 22.1338 88.1952 22.2297 88.7035 22.2252H100.47V18.3554H88.7297V2.87634Z" fill="white"/>
</svg>
