<svg width="142" height="57" viewBox="0 0 142 57" fill="none" xmlns="http://www.w3.org/2000/svg">
<g clip-path="url(#clip0_2074_10)">
<path d="M62.589 32.5889C62.589 36.5545 59.5221 39.3333 54.5036 39.3333C49.4572 39.3333 46.3067 36.5256 46 32.1257H50.2936C50.4052 34.4125 51.8271 35.8887 54.42 35.8887C56.5668 35.8887 58.1002 34.9046 58.1002 33.2257C58.1002 31.9231 57.1244 31.1416 55.4237 30.7942L52.1338 30.1284C49.0948 29.5206 46.7528 27.8128 46.7528 24.3682C46.7528 20.663 49.9033 18 54.2248 18C58.7136 18 62.0035 20.7209 62.2823 25.0629H57.9887C57.8493 22.8919 56.3995 21.4156 54.2806 21.4156C52.2174 21.4156 51.0464 22.6314 51.0464 24.0787C51.0464 25.4971 52.301 26.1049 53.7508 26.3944L57.1802 27.118C60.6931 27.8417 62.589 29.5206 62.589 32.5889Z" fill="white"/>
<path d="M76.826 39.0441H72.5881V22.2263H66.2871V18.2607H83.1549V22.2263H76.826V39.0441Z" fill="white"/>
<path d="M101.937 35.2232V39.0441H88.4707V18.2607H101.742V22.0816H92.7086V26.4525H100.905V30.2444H92.7086V35.2232H101.937Z" fill="white"/>
<path d="M120.94 39.0441H108.003V18.2607H112.241V35.0784H120.94V39.0441Z" fill="white"/>
<path d="M142 32.5889C142 36.5545 138.933 39.3333 133.915 39.3333C128.868 39.3333 125.718 36.5256 125.411 32.1257H129.705C129.816 34.4125 131.238 35.8887 133.831 35.8887C135.978 35.8887 137.511 34.9046 137.511 33.2257C137.511 31.9231 136.535 31.1416 134.835 30.7942L131.545 30.1284C128.506 29.5206 126.164 27.8128 126.164 24.3682C126.164 20.663 129.314 18 133.636 18C138.125 18 141.415 20.7209 141.693 25.0629H137.4C137.26 22.8919 135.81 21.4156 133.692 21.4156C131.628 21.4156 130.457 22.6314 130.457 24.0787C130.457 25.4971 131.712 26.1049 133.162 26.3944L136.591 27.118C140.104 27.8417 142 29.5206 142 32.5889Z" fill="white"/>
<path d="M0 28.1942L16.6356 0V56.3884L0 28.1942Z" fill="white"/>
<path d="M33.2714 28.1942L16.6357 56.3884V0L33.2714 28.1942Z" fill="#343434"/>
<path d="M5.75098 28.1942L16.6354 9.74707L27.5199 28.1942L16.6354 46.6412L5.75098 28.1942Z" fill="#626262"/>
<path d="M9.29102 28.1941L16.6352 15.7471L23.9795 28.1941L16.6352 40.6412L9.29102 28.1941Z" fill="#FF7A00"/>
</g>
<defs>
<clipPath id="clip0_2074_10">
<rect width="142" height="57" fill="white"/>
</clipPath>
</defs>
</svg>
