<svg width="116" height="31" viewBox="0 0 116 31" fill="none" xmlns="http://www.w3.org/2000/svg">
<path d="M0 0.707275H14.4372C17.2152 0.707275 19.3899 1.38628 20.9613 2.74427C22.5327 4.10227 23.3184 6.06998 23.3184 8.64741C23.3184 9.94995 23.0098 11.1417 22.3924 12.2225C21.7751 13.2757 20.9332 14.0932 19.867 14.6753C21.3261 15.2019 22.4205 16.0055 23.1501 17.0864C23.8796 18.1396 24.2444 19.5252 24.2444 21.2435C24.2444 22.9895 23.8375 24.5138 23.0238 25.8163C22.2381 27.0912 21.1437 28.0751 19.7407 28.768C18.3658 29.4331 16.8364 29.7657 15.1528 29.7657H0V0.707275ZM13.2166 12.5136C14.339 12.5136 15.223 12.2364 15.8683 11.6821C16.5137 11.1278 16.8364 10.241 16.8364 9.02155C16.8364 7.69127 16.5137 6.77669 15.8683 6.27783C15.251 5.77898 14.2969 5.52955 13.0061 5.52955H6.39783V12.5136H13.2166ZM13.5954 24.9433C14.9704 24.9433 16.0086 24.6801 16.7101 24.1535C17.4397 23.5992 17.8045 22.6431 17.8045 21.2851C17.8045 19.8994 17.4257 18.9017 16.668 18.2919C15.9385 17.6822 14.8441 17.3774 13.3849 17.3774H6.39783V24.9433H13.5954Z" fill="white"/>
<path d="M31.3217 6.73456C30.3396 6.73456 29.5117 6.41585 28.8383 5.77842C28.1648 5.14099 27.8281 4.33727 27.8281 3.36728C27.8281 2.42499 28.1648 1.63514 28.8383 0.997707C29.5117 0.33257 30.3396 0 31.3217 0C32.3038 0 33.1315 0.33257 33.8051 0.997707C34.4785 1.63514 34.8152 2.42499 34.8152 3.36728C34.8152 4.33727 34.4785 5.14099 33.8051 5.77842C33.1315 6.41585 32.3038 6.73456 31.3217 6.73456ZM28.1228 9.81079H34.5206V29.7651H28.1228V9.81079Z" fill="white"/>
<path d="M47.6322 30.3895C45.2752 30.3895 43.4793 29.7521 42.2446 28.4773C41.038 27.1747 40.4347 25.3733 40.4347 23.073V14.343H37.4883V9.81174H40.4347V3.82544H46.7904V9.81174H51.5467V14.343H46.7904V22.2415C46.7904 23.4056 47.0149 24.2509 47.4638 24.7775C47.9128 25.2763 48.7126 25.5258 49.8631 25.5258C50.789 25.5258 51.673 25.304 52.5148 24.8605V29.5582C51.2241 30.1124 49.5965 30.3895 47.6322 30.3895Z" fill="white"/>
<path d="M89.4072 0.707275H95.8047V13.3449L106.917 0.707275H114.536L102.077 14.8831L115.377 29.7657H107.759L95.8047 16.4213V29.7657H89.4072V0.707275Z" fill="white"/>
<path d="M86.8132 11.4422C87.6513 14.5317 87.4339 17.8081 86.1946 20.7631C84.9553 23.7182 82.7632 26.1866 79.9587 27.7859C77.1541 29.3852 73.8935 30.0257 70.6827 29.6083C67.472 29.1908 64.4904 27.7386 62.2004 25.4769C59.9105 23.2151 58.4401 20.2704 58.0175 17.0993C57.5948 13.9281 58.2433 10.7079 59.8625 7.93787C61.4817 5.16789 63.9811 3.00301 66.9732 1.779C69.9651 0.554981 73.2824 0.340236 76.4105 1.16807L72.603 15.2027L86.8132 11.4422Z" fill="white"/>
</svg>
