<svg width="294" height="69" viewBox="0 0 294 69" fill="none" xmlns="http://www.w3.org/2000/svg">
<path d="M219.449 30.4926C219.449 23.1141 213.493 17.1332 206.146 17.1332C202.549 17.1308 199.103 18.5972 196.609 21.1891C192.333 16.785 185.526 15.9071 180.273 19.0827H173.807V30.446L173.804 30.5294L173.807 51.5175H181.406V30.5171C181.406 27.3882 183.978 24.811 187.107 24.8061C190.236 24.8134 192.806 27.3882 192.806 30.5171V30.5294H192.831V51.5175H200.428V30.527H200.45L200.447 30.4926C200.442 27.3612 203.015 24.7766 206.146 24.7693C209.275 24.7766 211.845 27.3514 211.845 30.4804V30.5294H211.852V51.5175H219.449V30.4926ZM76.9266 43.8692C71.7133 43.8594 67.4294 39.5656 67.4294 34.3523V34.3082C67.4294 29.0949 71.7133 24.8011 76.9266 24.7913C82.1399 24.8011 86.4263 29.0949 86.4263 34.3082V34.3523C86.4263 39.5656 82.1399 43.8594 76.9266 43.8692ZM76.9266 17.1577C73.5426 17.1553 70.2346 18.1631 67.4269 20.0538V20.0219H59.8252V60.0829H67.4269V48.6068C70.2322 50.4974 73.5426 51.5077 76.9266 51.5028C86.3723 51.5028 94.028 43.8152 94.028 34.3303C94.028 24.8453 86.3723 17.1577 76.9266 17.1577ZM294 51.5052L281.648 34.3352L293.656 17.6408H284.632L277.134 28.0625L269.637 17.6408H260.616L272.624 34.3352L260.273 51.5052H269.297L277.136 40.6078L284.976 51.5052H294ZM113.981 17.1602C111.662 17.1602 109.379 17.7291 107.331 18.8203V8.58252H99.7293V51.5028H107.331V31.4539C107.331 27.8026 110.33 24.7987 113.981 24.7913C117.63 24.7987 120.629 27.805 120.629 31.4539V51.5028H128.226V31.4686H128.231C128.231 23.5653 121.85 17.1602 113.981 17.1602ZM151.029 24.8061C155.168 24.811 158.849 27.5206 160.087 31.471H141.97C143.206 27.5206 146.889 24.811 151.029 24.8061ZM167.875 37.1944C168.029 36.265 168.128 35.316 168.128 34.3425C168.128 24.86 160.472 17.1725 151.029 17.1725C141.583 17.1725 133.927 24.86 133.927 34.3425C133.927 43.8275 141.583 51.515 151.029 51.515C157.139 51.5101 162.797 48.2291 165.835 42.9276L159.253 39.112C157.566 42.0546 154.425 43.879 151.031 43.8815C146.882 43.8765 143.194 41.1571 141.965 37.1944H167.875ZM242.225 24.8061C246.364 24.811 250.045 27.5206 251.283 31.471H233.166C234.405 27.5206 238.085 24.811 242.225 24.8061ZM259.071 37.1944C259.228 36.265 259.326 35.316 259.326 34.3425C259.326 24.86 251.67 17.1725 242.225 17.1725C232.781 17.1725 225.126 24.86 225.126 34.3425C225.126 43.8275 232.781 51.515 242.225 51.515C248.335 51.5126 253.995 48.2291 257.033 42.9276L250.449 39.112C248.762 42.057 245.618 43.879 242.225 43.8815C238.078 43.8741 234.39 41.1546 233.161 37.1944H259.071Z" fill="white"/>
<path d="M0 51.4954C0 60.9754 7.65321 68.6605 17.0941 68.6605V34.3302C17.0941 43.8103 9.44084 51.4954 0.00245217 51.4954" fill="white"/>
<path d="M0 17.165V51.4953C9.44084 51.4953 17.094 43.8102 17.094 34.3301C17.094 24.8501 9.44084 17.165 0.00245217 17.165M25.6398 34.3301C25.6398 43.8102 33.2931 51.4953 42.7339 51.4953V17.165C42.7339 26.6451 35.0807 34.3301 25.6398 34.3301Z" fill="white"/>
<path d="M25.6396 -6.10352e-05V34.3303C35.0805 34.3303 42.7337 26.6452 42.7337 17.1651C42.7337 7.68503 35.0805 -6.10352e-05 25.6396 -6.10352e-05Z" fill="white"/>
</svg>
