<svg width="214" height="68" viewBox="0 0 214 68" fill="none" xmlns="http://www.w3.org/2000/svg">
<path d="M198.456 0.546265L152.309 66.6596H166.477L212.864 0.546265H198.456Z" fill="white"/>
<path d="M167.953 0.546265L181.531 20.0276L174.446 30.6539L153.489 0.546265H167.953Z" fill="white"/>
<path d="M199.832 66.6648L184.778 45.1173L191.862 34.7862L214 66.6648H199.832Z" fill="white"/>
<path fillRule="evenodd" clipRule="evenodd" d="M135.78 0.546265H148.177V66.6596H135.78V64.1902C132.199 66.1442 128.089 67.2552 123.717 67.2552C109.839 67.2552 98.5879 56.0553 98.5879 42.2394C98.5879 28.4235 109.839 17.2235 123.717 17.2235C128.089 17.2235 132.199 18.3346 135.78 20.2885V0.546265ZM123.585 56.2759C131.445 56.2759 137.817 49.9325 137.817 42.1076C137.817 34.2827 131.445 27.9393 123.585 27.9393C115.724 27.9393 109.352 34.2827 109.352 42.1076C109.352 49.9325 115.724 56.2759 123.585 56.2759Z" fill="white"/>
<path d="M99.8211 0.546265L53.7217 66.6596H68.1739L114.229 0.546265H99.8211Z" fill="white"/>
<path d="M68.1847 0.546265L82.6481 20.618L74.6784 31.8345L53.1309 0.546265H68.1847Z" fill="white"/>
<path fillRule="evenodd" clipRule="evenodd" d="M37.1917 0.546265H49.589V66.6596H37.1917V64.1902C33.6112 66.1442 29.5007 67.2552 25.1294 67.2552C11.2508 67.2552 0 56.0553 0 42.2394C0 28.4235 11.2508 17.2235 25.1294 17.2235C29.5007 17.2235 33.6112 18.3346 37.1917 20.2885V0.546265ZM24.997 56.2759C32.8575 56.2759 39.2296 49.9325 39.2296 42.1076C39.2296 34.2827 32.8575 27.9393 24.997 27.9393C17.1366 27.9393 10.7645 34.2827 10.7645 42.1076C10.7645 49.9325 17.1366 56.2759 24.997 56.2759Z" fill="white"/>
</svg>
