<svg width="263" height="102" viewBox="0 0 263 102" fill="none" xmlns="http://www.w3.org/2000/svg">
<path d="M43.6118 31.4065C43.9148 16.477 35.4614 3.46816 31.0549 0.340502C31.0344 0.319959 30.6441 0.109396 30.6749 0.694869C30.6749 0.705141 30.6646 0.705137 30.6646 0.715409C30.2127 28.9157 15.7145 36.5166 7.84655 46.8548C-9.64575 69.8372 4.95 96.0603 23.8598 101.027C24.1833 101.109 25.0564 101.371 26.7152 101.71C27.578 101.889 27.8297 101.155 27.198 100.061C24.9383 96.1322 20.917 89.4917 20.121 80.9664C18.308 61.1681 43.2574 48.7807 43.6118 31.4065Z" fill="white"/>
<path d="M53.1437 40.9693C52.9948 40.8563 52.7842 40.8666 52.7637 41.0617C52.3631 44.6516 48.65 52.0933 43.7659 59.0471C27.3213 82.502 35.6052 93.1432 42.0351 100.523C43.2215 101.889 43.8121 101.591 44.4387 100.616C45.0241 99.6913 45.9075 98.5152 49.7079 96.7126C50.2985 96.4301 64.6581 88.8087 66.2142 71.455C67.7087 54.6612 56.9442 44.0456 53.1437 40.9693Z" fill="white"/>
<path d="M138.546 36.6964V98.4176H125.306V73.4836H99.8638V98.4176H86.29V36.6964H99.8638V61.6303H125.306V36.6964H138.546Z" fill="white"/>
<path d="M199.759 36.6964V48.904H193.457H180.751V98.4125H167.131V48.904H154.764H148.463V36.6964H199.759Z" fill="white"/>
<path fillRule="evenodd" clipRule="evenodd" d="M247.973 98.4792L232.411 77.0016L216.968 98.3868L201.869 98.4073L224.759 66.8996L203.153 36.6964H218.242L263 98.4792H247.973Z" fill="white"/>
<path d="M236.644 50.5064L244.111 60.8805L261.804 36.681H246.797L236.644 50.5064Z" fill="white"/>
</svg>
