<svg width="269" height="59" viewBox="0 0 269 59" fill="none" xmlns="http://www.w3.org/2000/svg">
<path fillRule="evenodd" clipRule="evenodd" d="M5.62332 58.2945C3.65473 58.2945 2.67044 58.2945 1.91846 57.9113C1.25819 57.5722 0.720186 57.0336 0.382714 56.3701C0 55.6159 0 54.628 0 52.6534V0.706482H9.01761C10.9862 0.706482 11.9705 0.706482 12.7225 1.09088C13.3827 1.42877 13.9207 1.96864 14.2582 2.63216C14.6409 3.38628 14.6409 4.37299 14.6409 6.34764V41.9587C14.6409 42.9466 14.6409 43.44 14.8329 43.817C15.0004 44.1488 15.2694 44.4181 15.6008 44.587C15.9762 44.7792 16.4689 44.7792 17.452 44.7792H38.4621C40.4307 44.7792 41.415 44.7792 42.167 45.1636C42.8272 45.5015 43.3652 46.0414 43.7027 46.7049C44.0854 47.459 44.0854 48.4458 44.0854 50.4204V58.2945H5.62332Z" fill="white"/>
<path fillRule="evenodd" clipRule="evenodd" d="M160.491 6.34758C160.491 4.37293 160.491 3.38621 160.874 2.6321C161.21 1.96858 161.748 1.4287 162.41 1.09082C163.162 0.706421 164.146 0.706421 166.113 0.706421H171.289C172.476 0.706421 173.069 0.706421 173.601 0.880259C174.071 1.03328 174.502 1.28547 174.869 1.61846C175.284 1.99429 175.578 2.51091 176.169 3.54414L194.171 35.0834V6.34758C194.171 4.37293 194.171 3.38621 194.554 2.6321C194.891 1.96858 195.428 1.4287 196.09 1.09082C196.842 0.706421 197.826 0.706421 199.795 0.706421H208.229V52.6447C208.229 54.6181 208.229 55.6036 207.846 56.3577C207.51 57.0213 206.973 57.5599 206.312 57.899C205.561 58.2834 204.578 58.2847 202.612 58.2859L197.435 58.292C196.246 58.2932 195.652 58.2932 195.12 58.1194C194.649 57.9664 194.216 57.7154 193.85 57.3824C193.435 57.0054 193.139 56.4887 192.549 55.4543L174.549 23.9187V52.6533C174.549 54.6279 174.549 55.6159 174.165 56.37C173.829 57.0335 173.291 57.5722 172.629 57.9113C171.877 58.2945 170.894 58.2945 168.926 58.2945H160.491V6.34758Z" fill="white"/>
<path fillRule="evenodd" clipRule="evenodd" d="M223.399 0.706421H214.965V52.6386C214.965 54.6133 214.965 55.6012 215.348 56.3553C215.685 57.0188 216.223 57.5575 216.883 57.8966C217.635 58.2798 218.62 58.2798 220.588 58.2798H229.023V34.7896H231.324C232.307 34.7896 232.8 34.7896 233.254 34.9145C233.657 35.0247 234.037 35.2059 234.376 35.4507C234.76 35.7262 235.069 36.1093 235.689 36.8757L251.332 56.2096C251.952 56.9748 252.263 57.3579 252.646 57.6346C252.984 57.8782 253.365 58.0594 253.768 58.1708C254.223 58.2944 254.714 58.2945 255.699 58.2945H269L248.31 32.7685C247.282 31.499 246.767 30.8636 246.57 30.1584C246.396 29.5366 246.396 28.8779 246.57 28.256C246.768 27.5509 247.283 26.9167 248.311 25.6485L248.312 25.6472L268.551 0.706421H255.393C254.414 0.706421 253.925 0.706421 253.471 0.830066C253.07 0.940245 252.691 1.1202 252.352 1.3626C251.969 1.6356 251.66 2.01632 251.04 2.77778L235.743 21.5535C235.123 22.3149 234.812 22.6944 234.431 22.9687C234.092 23.2111 233.713 23.391 233.312 23.5012C232.858 23.6248 232.368 23.6248 231.389 23.6248H229.023V6.34758C229.023 4.37293 229.023 3.38621 228.64 2.6321C228.302 1.96858 227.766 1.4287 227.104 1.09082C226.352 0.706421 225.368 0.706421 223.399 0.706421Z" fill="white"/>
<path fillRule="evenodd" clipRule="evenodd" d="M50.7538 56.9566C50.3711 56.2024 50.3711 55.2145 50.3711 53.2398V5.76011C50.3711 3.78546 50.3711 2.79875 50.7538 2.04464C51.0913 1.38112 51.6281 0.841241 52.2896 0.503359C53.0415 0.118958 54.0258 0.118958 55.9944 0.118958H74.3867C79.2886 0.118958 81.7402 0.118958 83.7515 0.660058C89.2086 2.12666 93.4722 6.40282 94.9346 11.8787C95.4726 13.8962 95.4726 16.3556 95.4726 21.2733C95.4726 24.4746 94.0273 25.6486 92.7948 26.6476C91.879 27.3907 91.0806 28.0383 91.0806 29.3543C91.0806 30.6507 92.0111 31.2983 93.0895 32.05C94.5788 33.0869 96.3518 34.3209 96.3518 37.7279C96.3518 42.637 96.3517 45.0927 95.815 47.1066C94.3538 52.5861 90.0889 56.866 84.6282 58.3326C82.6205 58.8724 80.1738 58.8737 75.2793 58.8749L55.9956 58.881C54.0271 58.8822 53.0428 58.8822 52.2908 58.4978C51.6293 58.16 51.0913 57.6201 50.7538 56.9566ZM76.5864 19.388C77.6893 17.6496 78.6454 16.1451 78.6454 14.2219C78.6454 10.3276 75.492 7.1704 71.6025 7.1704C67.7118 7.1704 64.5584 10.4758 64.5584 14.2219C64.5584 16.1451 65.5402 17.6496 66.6737 19.388C68.2254 21.7642 70.0607 24.5787 70.0607 29.5012C70.0607 34.4225 68.2254 37.237 66.6737 39.6144C65.5402 41.3516 64.5584 42.8561 64.5584 44.7793C64.5584 48.6735 67.7118 51.8308 71.6025 51.8308C75.492 51.8308 78.6454 48.6735 78.6454 44.7793C78.6454 42.8561 77.6893 41.3516 76.5864 39.6144C75.0763 37.237 73.2899 34.4225 73.2899 29.5012C73.2899 24.5787 75.0763 21.7642 76.5864 19.388Z" fill="white"/>
<path fillRule="evenodd" clipRule="evenodd" d="M117.827 46.836L115.429 54.3697C114.98 55.78 114.757 56.4852 114.329 57.0067C113.952 57.4682 113.464 57.8257 112.911 58.046C112.287 58.2946 111.548 58.2946 110.072 58.2946H99.4688L116.489 4.35223C116.935 2.93704 117.158 2.22945 117.586 1.70548C117.963 1.24273 118.452 0.88404 119.004 0.663683C119.632 0.41272 120.37 0.41272 121.85 0.41272H133.529C135.009 0.41272 135.748 0.41272 136.374 0.663683C136.928 0.88404 137.416 1.24273 137.793 1.70548C138.221 2.22945 138.443 2.93582 138.889 4.351L155.92 58.2946H145.31C143.834 58.2946 143.097 58.2946 142.471 58.046C141.919 57.8257 141.432 57.4682 141.054 57.0067C140.627 56.4852 140.402 55.78 139.953 54.3697L137.555 46.836H117.827ZM120.818 37.434H134.563L127.689 15.8378L120.818 37.434Z" fill="white"/>
</svg>
