<svg width="304" height="93" viewBox="0 0 304 93" fill="none" xmlns="http://www.w3.org/2000/svg">
<path d="M38.8713 48.6507H20.1212L0.939824 29.592C-0.307941 28.3521 -0.314336 26.3356 0.927119 25.0894L25.526 0.364746H44.8411L39.0016 6.0417L17.5617 27.3464L38.7291 48.6511M31.1642 27.3957H49.9142L69.0956 46.4544C70.3431 47.6942 70.3496 49.7107 69.1081 50.9569L44.5092 75.68H25.1941L31.0336 70.0031L52.4735 48.6984L31.3061 27.3937M178.872 42.1661V31.6366H169.85V16.7825H157.433V31.6366H149.726V42.1661H157.433V59.4024C157.433 68.9852 159.32 76.0275 171.087 75.81L178.473 75.6651V65.7925H174.808C169.578 65.7925 169.869 62.7435 169.869 57.0807L169.849 42.1664H178.871L178.872 42.1661ZM304 42.1661V31.6366H294.977V16.7825H282.561V31.6366H274.854V42.1661H282.561V59.4024C282.561 68.9852 284.448 76.0275 296.214 75.81L303.601 75.6651V65.7925H299.935C294.706 65.7925 294.997 62.7435 294.997 57.0807L294.976 42.1664H303.998L304 42.1661ZM214.299 36.6306C212.82 34.8545 211.087 33.4778 209.133 32.526C206.8 31.3976 204.07 30.8263 201.019 30.8263C197.284 30.8263 193.935 31.7477 191.07 33.5622C188.209 35.3749 185.939 37.9373 184.327 41.1732C182.721 44.4008 181.905 48.1904 181.905 52.4411C181.905 56.6921 182.763 60.2587 184.456 63.5089C186.152 66.7697 188.505 69.3671 191.446 71.2331C194.394 73.1028 197.755 74.0516 201.438 74.0516C204.219 74.0516 206.759 73.4495 208.984 72.2608C210.745 71.3203 212.221 70.0758 213.385 68.5558V73.3498C213.385 76.3209 212.603 78.6016 211.067 80.1216C209.526 81.6416 207.184 82.4088 204.102 82.4088C201.448 82.4088 199.359 81.8073 197.898 80.618C196.703 79.646 195.659 78.3695 195.416 75.6667H183.364C183.476 79.4483 184.587 81.9967 186.154 84.2291C187.913 86.7311 190.386 88.6876 193.512 90.0381C196.608 91.3735 200.2 92.0515 204.187 92.0515C210.879 92.0515 216.208 90.3695 220.019 87.0557C223.855 83.7231 225.8 79.0569 225.8 73.1886V31.6348H214.299L214.299 36.6306ZM212.098 58.2902C211.305 59.9261 210.187 61.2092 208.768 62.0969C207.352 62.9851 205.643 63.437 203.685 63.437C200.855 63.437 198.655 62.4745 196.956 60.4914C195.263 58.5194 194.405 55.8106 194.405 52.4396C194.405 49.0686 195.263 46.3595 196.956 44.3846C198.633 42.4286 200.898 41.4387 203.685 41.4387C206.471 41.4387 208.934 42.4429 210.665 44.4292C212.413 46.4313 213.299 49.1545 213.299 52.5172C213.299 54.696 212.895 56.6361 212.098 58.2879L212.098 58.2902ZM145.841 16.7825H132.819V27.3948H145.841V16.7825ZM269.046 38.2575C267.067 35.9021 264.588 34.0559 261.675 32.7682C258.766 31.4823 255.493 30.8266 251.954 30.8266C247.615 30.8266 243.702 31.8118 240.318 33.7535C236.927 35.7015 234.235 38.4071 232.316 41.8C230.396 45.1901 229.424 49.1244 229.424 53.4899C229.424 57.8555 230.368 62.0491 232.228 65.4917C234.094 68.9455 236.775 71.654 240.198 73.5493C243.613 75.4338 247.625 76.3904 252.121 76.3904C257.641 76.3904 262.326 75.0027 266.051 72.2632C269.638 69.6281 272.105 65.9101 273.448 61.2563H260.864C260.202 62.8398 259.269 64.1882 257.934 65.1382C256.355 66.2586 254.316 66.8268 251.872 66.8268C249.752 66.8268 247.936 66.3108 246.473 65.2955C245.005 64.2802 243.882 62.7792 243.145 60.83C242.703 59.6712 242.39 58.3391 242.205 56.8573H273.668L273.73 56.4658C274.292 52.9151 274.151 49.5503 273.304 46.4663C272.455 43.3739 271.023 40.6127 269.046 38.2572L269.046 38.2575ZM242.404 48.7063C242.596 47.8102 242.855 46.8776 243.185 46.0277C243.952 44.0526 245.059 42.5326 246.479 41.5173C247.893 40.5019 249.651 39.9894 251.708 39.9894C254.284 39.9894 256.399 40.8249 257.994 42.469C259.506 44.0334 260.364 46.1708 260.547 48.7062H242.405L242.404 48.7063ZM145.585 31.6366H133.084V75.6654H145.585V31.6366ZM119.149 44.8533C121.436 43.5546 123.268 41.9376 124.602 40.0309C126.122 37.86 126.894 35.3804 126.894 32.6651C126.894 27.5818 124.993 23.6138 121.248 20.8704C117.548 18.1584 112.457 16.7849 106.111 16.7849H83.1657V75.6667H107.028C113.71 75.6667 119.061 74.1129 122.93 71.0462C126.83 67.9539 128.809 63.6233 128.809 58.1723C128.809 54.8538 127.878 51.9984 126.045 49.6875C124.399 47.6217 122.083 45.9967 119.15 44.8524L119.149 44.8533ZM95.5827 27.3974H105.113C108.102 27.3974 110.359 27.9767 111.825 29.1163C113.273 30.2415 113.977 31.7201 113.977 33.6347C113.977 35.5493 113.273 37.1027 111.825 38.2327C110.359 39.3722 108.102 39.9516 105.113 39.9516H95.5827V27.3974ZM113.525 63.0593C111.872 64.3834 109.35 65.0531 106.028 65.0531H95.5827V50.6435H106.028C109.348 50.6435 111.874 51.2913 113.532 52.5629C115.176 53.8314 115.975 55.5056 115.975 57.6877C115.975 59.9825 115.173 61.7395 113.524 63.0606L113.525 63.0593Z" fill="white"/>
</svg>
