<svg width="385" height="90" viewBox="0 0 385 90" fill="none" xmlns="http://www.w3.org/2000/svg">
<path fillRule="evenodd" clipRule="evenodd" d="M65.3569 42.4222L65.2318 42.3258C68.0391 38.2758 69.4443 33.3483 69.4443 27.5465C69.4443 18.9386 66.4958 12.1918 60.5989 7.31252C54.6988 2.43002 46.5849 -0.00641589 36.2509 1.2688e-05H10.5105V3.60645H35.7857C44.5701 3.60645 52.4049 5.56395 57.3746 9.6236C61.9978 13.4036 63.695 16.6565 65.0489 21.5229C63.6725 17.084 60.4353 14.2265 58.4237 12.5486C54.9009 9.58181 50.5248 7.50538 38.6026 7.50538H18.7527V11.0218H38.1599C48.3335 11.0218 52.068 12.2786 55.4913 14.8179C59.8706 18.0708 62.5881 21.9536 62.5881 27.5625C62.5881 32.6122 60.8203 35.3154 57.8494 38.1183C57.5029 37.9833 57.1532 37.8483 56.7971 37.7229L57.1339 37.5429C60.3519 35.7654 62.5785 32.3486 62.5785 27.5465C62.5785 22.2975 59.5755 19.019 56.6399 17.1707C53.8839 15.4415 51.2627 14.2811 40.072 14.2811H25.8014V16.6243H39.671C49.7708 16.6243 53.5984 18.4243 54.7598 19.1347C57.0281 20.5297 60.0246 22.9468 60.0246 27.5818C60.0246 30.539 58.2825 34.0972 55.7062 35.5468C54.8689 36.0129 53.9866 36.3858 53.0722 36.6686C49.2414 35.7976 45.3177 35.3765 41.3875 35.4118H24.1748V39.0151H40.9158C49.697 39.0151 57.6505 40.8279 62.5047 45.0354C66.1686 48.1597 68.8347 52.2933 70.1726 56.9283C68.8026 52.4894 65.9889 49.7958 63.5538 47.954C59.8674 45.1608 55.6549 42.9076 43.7327 42.914H16.7443V46.4272H43.29C53.4636 46.4272 57.1917 47.684 60.6182 50.2233C65.0008 53.4762 67.6765 57.3622 67.6765 62.968C67.6765 68.3712 64.9591 72.3151 60.5572 75.568C56.0527 78.8948 49.1709 78.9944 46.37 78.9944H31.6245V82.5044H42.6483C51.8723 82.5044 58.0355 81.7137 63.3677 77.7537C68.3695 74.0251 71.0292 69.2069 71.0292 62.9712C71.0773 66.314 70.3619 69.6215 68.9374 72.6398C67.5097 75.6612 65.4114 78.313 62.8063 80.3926C57.7564 84.5744 48.7442 86.4162 39.7288 86.4162H10.7094V90.0001H39.9341C50.8167 90.0001 59.3124 87.6312 65.4178 82.8933C71.5201 78.1587 74.5776 71.5019 74.584 62.9294C74.5616 54.3119 71.6035 47.5651 65.7002 42.6922C65.5879 42.599 65.4724 42.509 65.3569 42.4222ZM65.8766 28.0061C65.867 32.3583 64.5612 36.614 62.1197 40.2269C61.8085 40.0469 61.4941 39.8733 61.1764 39.6965C64.1762 36.5401 65.8542 32.3551 65.8766 28.0061ZM47.7849 57.8765H22.4904V59.8405H47.7849V57.8765ZM32.9207 65.0219H47.6341V66.703H32.9207V65.0219ZM18.172 57.8765H10.6805V59.8405H18.172V57.8765ZM6.0092 64.8837H28.7659V66.8444H6.0092V64.8837ZM27.4248 79.8655H6.0092V82.2183H27.4248V79.8655ZM11.6174 14.8275H20.4852V16.4475H11.6174V14.8275ZM25.7501 27.7104H5.43812V29.594H25.7501V27.7104ZM14.0525 21.9536H47.6822V23.8372H14.0525V21.9536ZM47.0437 27.7104H30.8673V29.594H47.0437V27.7104ZM67.6444 62.9358C67.6444 67.4712 65.4596 70.8655 62.2352 72.5787C59.0236 74.2855 54.4742 75.2658 46.7807 75.2658H0V73.0351H46.5689C53.6689 73.0351 58.4397 71.8876 60.7882 70.6115C63.3677 69.2005 65.1098 65.7772 65.1098 62.9262C65.1098 58.4647 62.1133 56.1151 59.845 54.7683C58.6868 54.0837 54.8528 52.3447 44.7594 52.3447H26.9917V50.114H45.1765C56.5693 50.114 58.9884 51.239 61.7475 52.904C64.6831 54.6944 67.6444 57.8733 67.6444 62.9358ZM158.042 23.2008C156.711 23.2361 155.411 22.815 154.356 22.0018C153.878 21.6579 153.493 21.2015 153.23 20.6743C152.964 20.1504 152.829 19.5654 152.832 18.9772C152.829 18.3857 152.964 17.8008 153.227 17.2704C153.493 16.74 153.878 16.2836 154.356 15.9332C155.405 15.1072 156.708 14.6765 158.042 14.7182C159.396 14.6765 160.721 15.1072 161.796 15.9332C162.277 16.274 162.669 16.724 162.941 17.2511C163.211 17.775 163.352 18.3568 163.352 18.9483C163.352 19.5397 163.211 20.1215 162.941 20.6486C162.669 21.1725 162.277 21.6258 161.796 21.9665C160.725 22.8022 159.399 23.2393 158.042 23.2008ZM161.969 74.3337H153.92V33.554H161.969V74.3337ZM101.399 74.3337V17.2254H121.406C127.489 17.2254 132.318 18.4308 135.882 20.8479C139.45 23.2618 141.234 26.4054 141.234 30.2851C141.276 33.4126 140.117 36.4372 137.993 38.7322C135.834 41.1236 132.851 42.824 129.042 43.8301V43.9876C133.784 44.4408 137.58 45.8936 140.429 48.3494C141.815 49.5194 142.918 50.9883 143.659 52.6469C144.397 54.3054 144.753 56.1087 144.699 57.9247C144.699 62.8137 142.54 66.7705 138.221 69.7919C133.903 72.8165 128.462 74.3305 121.897 74.3337H101.399ZM109.645 23.2811V41.7183H118.07C122.584 41.7183 126.132 40.8408 128.715 39.0793C129.953 38.279 130.961 37.1701 131.641 35.8586C132.321 34.5504 132.652 33.0847 132.597 31.6093C132.597 26.0647 128.099 23.2908 119.103 23.2908L109.645 23.2811ZM109.645 47.7322V68.2844H120.832C125.673 68.2844 129.43 67.3522 132.097 65.4944C133.361 64.6715 134.394 63.5337 135.093 62.1965C135.796 60.8562 136.142 59.3583 136.097 57.8476C136.097 51.1072 130.438 47.7354 119.116 47.7322H109.645ZM190.045 75.208C193.158 75.2112 195.66 74.7869 197.556 73.9383L197.572 68.3615C195.978 69.2969 194.152 69.7662 192.304 69.7147C189.651 69.7147 187.751 69.1297 186.609 67.9597C185.464 66.793 184.89 64.8419 184.89 62.1065V39.1276H197.556V33.554H184.89V21.4843L176.846 23.5961V33.554H168.203V39.1276H176.846V63.2637C176.843 71.2255 181.242 75.208 190.045 75.208ZM270.658 74.3337H263.118V39.0922C263.157 35.6754 263.365 32.2651 263.75 28.8708H263.571C263.089 30.6258 262.438 32.3293 261.63 33.959L239.511 74.3337H235.825L213.749 34.2547C212.911 32.5351 212.26 30.7286 211.804 28.8708H211.625C211.92 32.294 212.042 35.7301 211.987 39.1629V74.3337H204.627V21.7961H214.631L234.5 58.4326C235.668 60.4447 236.662 62.5533 237.481 64.7358H237.753C239.046 61.8526 240.083 59.7054 240.865 58.2912L261.139 21.7961H270.616L270.658 74.3337ZM311.548 74.3337H319.601V47.8126C319.598 37.6683 313.691 32.5961 301.881 32.5961C295.433 32.5961 289.738 33.8722 284.8 36.4179V43.1133C289.616 39.7833 295.346 38.0315 301.195 38.0926C308.099 38.0958 311.548 41.5608 311.548 48.4876L296.485 50.2008C285.423 51.4479 279.891 55.8804 279.891 63.5015C279.85 65.1665 280.212 66.8187 280.953 68.3101C281.691 69.8015 282.785 71.0905 284.136 72.0612C286.969 74.2115 290.886 75.2883 295.895 75.2883C302.69 75.2915 307.842 72.8487 311.352 67.9597H311.548V74.3337ZM299.437 55.0608L311.548 53.7076L311.58 57.7672C311.615 59.4065 311.285 61.0297 310.608 62.5244C309.934 64.0158 308.93 65.3369 307.679 66.388C305.077 68.6572 301.782 69.7919 297.791 69.7919C294.884 69.7919 292.552 69.1619 290.797 67.9019C289.985 67.378 289.318 66.6547 288.856 65.803C288.397 64.948 288.159 63.9933 288.163 63.0258C288.182 60.2872 289.132 58.3812 291.012 57.3076C292.895 56.234 295.702 55.4851 299.437 55.0608ZM356.952 40.1626C355.55 39.2851 353.519 38.8479 350.866 38.8479C349.23 38.8222 347.607 39.1597 346.115 39.8443C344.626 40.5258 343.304 41.5319 342.252 42.7919C339.945 45.4211 338.793 49.0051 338.793 53.5437V74.3337H330.747V33.554H338.793V41.9626H338.992C340.022 39.2401 341.86 36.8968 344.257 35.2511C346.583 33.6568 349.339 32.8147 352.156 32.8404C353.779 32.7826 355.4 32.9722 356.965 33.3997V33.554H364.274V23.5961L372.32 21.4843V33.554H384.958V39.1276H372.32V62.1065C372.32 64.8419 372.891 66.793 374.037 67.9597C375.182 69.1297 377.081 69.7147 379.735 69.7147C381.58 69.7662 383.405 69.2969 385 68.3615L384.984 73.9383C383.087 74.7869 380.585 75.2112 377.476 75.208C368.669 75.208 364.271 71.2255 364.274 63.2637V39.1276H356.956L356.952 40.1626ZM0.667333 86.4419H6.02524V89.8555H0.667333V86.4419Z" fill="white"/>
</svg>
