<svg width="135" height="39" viewBox="0 0 135 39" fill="none" xmlns="http://www.w3.org/2000/svg">
<path d="M26.9909 6.43522H25.8566V0H19.3983V6.43522H12.9399V0H6.45837V6.43522H0V12.8704H6.45837V25.764H0V32.1993H6.45837V38.6576H12.9167V32.2224H19.3751V38.6576H25.8335V32.2224H26.9678C34.0974 32.2224 39.9076 26.4585 39.9076 19.3288C39.9308 12.2223 34.1437 6.43522 26.9909 6.43522ZM26.9909 25.7872H12.9399V12.8936H27.0141C30.5789 12.8936 33.4724 15.7871 33.4724 19.3288C33.4724 22.8937 30.5557 25.7872 26.9909 25.7872Z" fill="white"/>
<path d="M56.8055 9.44434H49.0508V28.75H56.8055C62.1527 28.75 66.2268 24.5602 66.2268 19.0972C66.2268 13.6342 62.1527 9.44434 56.8055 9.44434ZM56.8055 24.5139H53.4721V13.7036H56.7823C59.8379 13.7036 61.9212 15.8101 61.9212 19.1203C61.9212 22.4305 59.8379 24.5139 56.8055 24.5139Z" fill="white"/>
<path d="M72.2693 23.5187H82.1073C82.223 22.9863 82.2693 22.4539 82.2693 21.852C82.2693 17.6853 79.2832 14.5603 75.2322 14.5603C70.8572 14.5603 67.8711 17.7316 67.8711 21.852C67.8711 25.9724 70.8109 29.1437 75.5332 29.1437C78.1721 29.1437 80.2091 28.1715 81.5749 26.2965L78.2647 24.3983C77.7091 25.0002 76.7369 25.44 75.6026 25.44C74.0748 25.4631 72.8017 24.9539 72.2693 23.5187ZM72.1998 20.44C72.5933 19.0279 73.635 18.264 75.2091 18.264C76.4591 18.264 77.7091 18.8427 78.1489 20.44H72.1998Z" fill="white"/>
<path d="M88.7734 17.4306V14.9769H84.6299V28.7733H88.7734V22.5232C88.7734 19.7917 91.204 19.0973 92.917 19.375V14.6991C91.1808 14.6991 89.329 15.5787 88.7734 17.4306Z" fill="white"/>
<path d="M96.9453 13.75C98.3111 13.75 99.4453 12.6157 99.4453 11.2731C99.4453 9.93053 98.3111 8.79626 96.9453 8.79626C95.5796 8.79626 94.4453 9.93053 94.4453 11.2731C94.4453 12.6157 95.5796 13.75 96.9453 13.75ZM94.862 28.7732H99.0055V14.9769H94.862V28.7732Z" fill="white"/>
<path d="M110.348 14.5833C108.496 14.5833 107.13 15.2083 106.228 16.2731V9.44434H102.084V28.75H106.228V27.4537C107.13 28.4954 108.496 29.1435 110.348 29.1435C113.982 29.1435 116.968 25.9722 116.968 21.8518C116.945 17.7546 113.959 14.5833 110.348 14.5833ZM109.515 25.2315C107.593 25.2315 106.228 23.9352 106.228 21.875C106.228 19.8148 107.616 18.5185 109.515 18.5185C111.436 18.5185 112.802 19.8148 112.802 21.875C112.802 23.9352 111.413 25.2315 109.515 25.2315Z" fill="white"/>
<path d="M121.39 13.75C122.755 13.75 123.89 12.6157 123.89 11.2731C123.89 9.93053 122.755 8.79626 121.39 8.79626C120.024 8.79626 118.89 9.93053 118.89 11.2731C118.89 12.6157 120.024 13.75 121.39 13.75ZM119.306 28.7732H123.45V14.9769H119.306V28.7732Z" fill="white"/>
<path d="M134.631 18.9352V14.9768H131.784V11.1111L127.64 12.3611V14.9768H125.418V18.9584H127.64V23.8426C127.64 27.7084 129.214 29.3288 134.654 28.7732V25.0001C132.825 25.1158 131.807 25.0001 131.807 23.8195V18.9352H134.631Z" fill="white"/>
</svg>
