<svg width="119" height="33" viewBox="0 0 119 33" fill="none" xmlns="http://www.w3.org/2000/svg">
<path d="M0.25 14.966V4.81408L14.0026 0.34413V31.6903C4.15476 27.4083 0.25 19.4291 0.25 14.966Z" fill="white" stroke="black" strokeWidth="0.5"/>
<path d="M14.5039 31.6903V0.34413L28.2565 4.81408V14.966C28.2565 19.4291 24.3517 27.4083 14.5039 31.6903Z" fill="white" stroke="black" strokeWidth="0.5"/>
<path d="M53.5352 7.56494H59.1878V10.7312C61.0398 7.88561 63.1711 7.56494 66.291 7.56494V13.1604H64.8701C61.1316 13.1604 59.3418 14.9197 59.3418 18.4046V24.3523H53.5352V7.56494Z" fill="white"/>
<path d="M85.1516 24.3513H79.346V22.7509C78.0781 24.2221 76.3504 24.8614 74.2202 24.8614C70.1748 24.8614 67.8877 22.4628 67.8877 18.0514V7.56396H73.6933V16.7421C73.6933 18.819 74.7126 20.0336 76.4412 20.0336C78.1699 20.0336 79.345 18.8496 79.345 16.8368V7.56396H85.1506V24.3513H85.1516Z" fill="white"/>
<path d="M86.5703 19.1693H92.0079C92.2556 20.3839 93.0893 20.895 95.0952 20.895C96.7331 20.895 97.6902 20.5122 97.6902 19.8087C97.6902 19.264 97.2264 18.9118 95.9003 18.6246L91.5146 17.633C88.5802 16.9631 87.0972 15.268 87.0972 12.5487C87.0972 8.96603 89.7218 7.11206 94.818 7.11206C99.9142 7.11206 102.415 8.91867 102.85 12.7894H97.4455C97.3537 11.7672 96.3019 11.1417 94.5733 11.1417C93.184 11.1417 92.2901 11.5886 92.2901 12.2615C92.2901 12.8368 92.8752 13.2837 94.0513 13.5738L98.6522 14.6937C101.678 15.4278 103.132 16.9641 103.132 19.4574C103.132 22.9118 100.135 24.9581 95.0419 24.9581C89.9487 24.9581 86.5792 22.7519 86.5792 19.1693H86.5733H86.5703Z" fill="white"/>
<path d="M118.59 12.7855V7.56396H104.26V12.7884H108.536V24.3513H114.312V12.7855H118.59Z" fill="white"/>
<path d="M51.9194 12.7855V7.56396H37.5898V12.7884H41.8661V24.3513H47.6431V12.7855H51.9194Z" fill="white"/>
</svg>
