<svg width="187" height="82" viewBox="0 0 187 82" fill="none" xmlns="http://www.w3.org/2000/svg">
<path d="M127.629 32.8327L101.063 36.395L131.614 17.255L127.629 32.8327Z" fill="white" stroke="black" strokeWidth="0.25"/>
<path d="M137.27 48.8233L145.804 52.4462L139.246 80.5015L137.27 48.8233Z" fill="white" stroke="black" strokeWidth="0.25"/>
<path d="M100.89 36.64L127.518 33.0997L120.498 47.866L100.89 36.64Z" fill="white" stroke="black" strokeWidth="0.25"/>
<path d="M120.77 48.1742L137.047 48.7501L139.017 80.8185L120.77 48.1742Z" fill="white" stroke="black" strokeWidth="0.25"/>
<path d="M120.747 47.9234L127.742 33.2094L136.939 48.4962L120.747 47.9234Z" fill="white" stroke="black" strokeWidth="0.25"/>
<path d="M127.918 32.7141L131.907 17.1212L153.966 19.9618L127.918 32.7141Z" fill="white" stroke="black" strokeWidth="0.25"/>
<path d="M165.989 11.096L178.819 9.86696L165.03 26.3245L165.989 11.096Z" fill="white" stroke="black" strokeWidth="0.25"/>
<path d="M185.164 10.3478L179.35 9.61752L186.8 0.444762L185.164 10.3478Z" fill="white" stroke="black" strokeWidth="0.25"/>
<path d="M179.162 9.84579L184.886 10.5649L172.029 18.0719L179.162 9.84579Z" fill="white" stroke="black" strokeWidth="0.25"/>
<path d="M137.376 48.5705L146.52 33.3619L145.862 52.1859L137.376 48.5705Z" fill="white" stroke="black" strokeWidth="0.25"/>
<path d="M127.95 33.0696L146.409 33.0092L137.165 48.3867L127.95 33.0696Z" fill="white" stroke="black" strokeWidth="0.25"/>
<path d="M146.56 32.7587L128.273 32.8186L154.072 20.1884L146.56 32.7587Z" fill="white" stroke="black" strokeWidth="0.25"/>
<path d="M162.868 69.986L146.076 52.3242L146.736 33.433L162.868 69.986Z" fill="white" stroke="black" strokeWidth="0.25"/>
<path d="M163.428 70.2957L163.338 37.7256L172.223 60.3896L163.428 70.2957Z" fill="white" stroke="black" strokeWidth="0.25"/>
<path d="M147.104 32.8351L164.756 26.8812L163.14 36.8742L147.104 32.8351Z" fill="white" stroke="black" strokeWidth="0.25"/>
<path d="M163.351 36.947L164.95 27.0545L173.006 40.5012L163.351 36.947Z" fill="white" stroke="black" strokeWidth="0.25"/>
<path d="M172.117 41.7939L176.58 58.9721L166.156 41.7939H172.117Z" fill="white" stroke="black" strokeWidth="0.25"/>
<path d="M165.763 11.2287L164.808 26.3944L156.658 16.0948L165.763 11.2287Z" fill="white" stroke="black" strokeWidth="0.25"/>
<path d="M163.178 69.9973L146.849 33.0673L163.087 37.1572L163.178 69.9973Z" fill="white" stroke="black" strokeWidth="0.25"/>
<path d="M164.021 70.0076L172.394 60.5745L175.777 62.5242L164.021 70.0076Z" fill="white" stroke="black" strokeWidth="0.25"/>
<path d="M172.478 60.2427L163.888 38.3328L176.714 59.4591L172.478 60.2427Z" fill="white" stroke="black" strokeWidth="0.25"/>
<path d="M164.704 26.6352L146.937 32.6579L156.483 16.2761L164.704 26.6352Z" fill="white" stroke="black" strokeWidth="0.25"/>
<path fillRule="evenodd" clipRule="evenodd" d="M25.7065 65.6124L28.3669 67.0045L31.0273 65.6124V81.3581H25.7065V65.6124ZM25.2734 60.2916C25.2734 58.7758 26.6346 57.5385 28.336 57.5385C30.0374 57.5385 31.3985 58.7758 31.3985 60.2916C31.3985 61.8384 30.0374 63.0448 28.336 63.0448C26.6346 63.0139 25.2734 61.8074 25.2734 60.2916Z" fill="white"/>
<path fillRule="evenodd" clipRule="evenodd" d="M13.2091 57.3528V66.5714H5.81572V57.3528H0V81.3581H5.81572V72.1087H13.2091V81.3581H19.0248V57.3528H13.2091Z" fill="white"/>
<path fillRule="evenodd" clipRule="evenodd" d="M43.2778 81.3581H37.9261V69.3864H35.8535V64.2203H37.9261V58.4665H43.2778V64.2203H45.3505V69.3864H43.2778V81.3581Z" fill="white"/>
<path fillRule="evenodd" clipRule="evenodd" d="M56.5794 75.8518H61.3124C63.1685 75.8518 63.7253 74.6762 63.7253 73.6863C63.7253 72.7274 63.1066 71.5518 61.3124 71.5518H56.5794V75.8518ZM56.5794 66.5404H60.9102C62.6116 66.5404 62.9829 65.334 62.9829 64.6844C62.9829 64.0347 62.6426 62.8283 60.9102 62.8283H56.5794V66.5404ZM60.2606 57.3528C67.3137 57.3528 68.4892 61.6837 68.4892 63.8801C68.4892 66.6332 67.0662 68.149 65.5504 68.9224C67.7159 69.4792 69.2007 71.6447 69.2007 74.336C69.2007 78.11 67.0972 81.3581 60.075 81.3581H50.7637V57.3528H60.2606Z" fill="white"/>
<path fillRule="evenodd" clipRule="evenodd" d="M84.1423 81.3581H78.3266V62.8592H72.2324V57.3838H90.2673V62.8592H84.1423V81.3581Z" fill="white"/>
<path fillRule="evenodd" clipRule="evenodd" d="M114.427 61.096L110.684 64.5916C109.261 63.2923 107.436 62.6118 105.425 62.6118C101.867 62.6118 99.0833 65.2412 99.0833 69.3555C99.0833 73.4698 101.898 76.0683 105.425 76.0683C107.436 76.0683 109.261 75.4187 110.684 74.1195L114.427 77.6151C112.169 80.0589 108.951 81.6056 105.425 81.6056C98.7121 81.6056 93.2676 76.1302 93.2676 69.3555C93.2676 62.6118 98.6811 57.1054 105.425 57.1054C108.951 57.1363 112.169 58.6521 114.427 61.096Z" fill="white"/>
</svg>
