<svg width="224" height="38" viewBox="0 0 224 38" fill="none" xmlns="http://www.w3.org/2000/svg">
<path d="M43.3738 28.9275C42.8141 28.9275 42.5343 28.7801 42.2544 28.6327C42.1145 28.3379 41.9746 28.0431 41.9746 27.6009V11.0932C41.9746 10.651 42.1145 10.2088 42.2544 10.0614C42.5343 9.76666 42.8141 9.61926 43.3738 9.61926H49.9497C52.4682 9.61926 54.2871 10.2088 55.5463 11.2406C56.6656 12.4197 57.3652 14.041 57.3652 16.2518C57.3652 18.4627 56.8055 20.084 55.5463 21.2631C54.427 22.2949 52.4682 22.8844 49.9497 22.8844H47.4313V27.4535C47.4313 27.8957 47.2914 28.3379 47.1514 28.4853C46.8716 28.7801 46.5918 28.7801 46.0321 28.7801H43.3738V28.9275ZM49.53 18.7575C50.2296 18.7575 50.7892 18.6101 51.209 18.1679C51.6287 17.7258 51.7686 17.1362 51.7686 16.2518C51.7686 15.3675 51.6287 14.7779 51.209 14.3358C50.7892 13.8936 50.2296 13.7462 49.53 13.7462H47.4313V18.7575H49.53Z" fill="white"/>
<path d="M63.661 29.3696C61.9821 29.3696 60.5829 28.78 59.6035 27.6009C58.6241 26.4218 58.0645 24.8005 58.0645 22.737C58.0645 21.1157 58.3443 19.7892 59.0439 18.6101C59.7434 17.4309 60.7228 16.5466 61.9821 15.8096C63.2413 15.2201 64.7803 14.7779 66.3194 14.7779C67.7186 14.7779 68.8379 14.9253 69.9572 15.2201C71.0765 15.5149 71.916 15.957 72.8954 16.5466V27.8957C72.8954 28.1905 72.8954 28.4852 72.7555 28.6326C72.6156 28.78 72.3357 28.78 72.0559 28.78H69.2576C69.1177 28.78 68.8379 28.78 68.8379 28.6326C68.698 28.4852 68.698 28.4852 68.558 28.3379L68.1383 27.4535C67.5786 28.0431 67.019 28.4852 66.3194 28.78C65.6198 29.2222 64.6404 29.3696 63.661 29.3696ZM65.6198 25.5374C66.3194 25.5374 66.8791 25.39 67.2988 24.9479C67.7185 24.6531 67.8585 24.0635 67.8585 23.474V19.0522C67.5786 18.9048 67.019 18.7574 66.5992 18.7574C65.6198 18.7574 64.9203 19.0522 64.3606 19.7892C63.8009 20.5261 63.5211 21.4105 63.5211 22.737C63.5211 24.5057 64.2207 25.5374 65.6198 25.5374Z" fill="white"/>
<path d="M76.6726 28.9275C76.1129 28.9275 75.8331 28.7801 75.5533 28.6328C75.2734 28.338 75.2734 28.0432 75.2734 27.601V16.1045C75.2734 15.8098 75.2734 15.515 75.4133 15.3676C75.5533 15.2202 75.8331 15.2202 76.1129 15.2202H78.9112C79.191 15.2202 79.3309 15.2202 79.3309 15.3676C79.4709 15.3676 79.4709 15.515 79.6108 15.6624L79.7507 16.5467C80.3104 15.9571 80.87 15.6624 81.7095 15.3676C82.549 15.0728 83.3885 14.9254 84.5078 14.9254C85.9069 14.9254 87.1662 15.3676 88.0057 16.2519C88.8451 17.1363 89.4048 18.3154 89.4048 20.0841V27.601C89.4048 28.0432 89.2649 28.4854 89.125 28.6328C88.985 28.9275 88.5653 28.9275 88.0057 28.9275H85.3473C84.7876 28.9275 84.5078 28.7801 84.228 28.6328C83.9481 28.338 83.9481 28.0432 83.9481 27.601V20.3789C83.9481 19.7893 83.8082 19.3471 83.5284 19.1997C83.2486 18.905 82.9687 18.7576 82.4091 18.7576C81.8494 18.7576 81.4297 18.905 81.1498 19.1997C80.87 19.4945 80.7301 19.9367 80.7301 20.3789V27.4536C80.7301 27.8958 80.5902 28.338 80.4503 28.4854C80.3104 28.7801 79.8906 28.7801 79.3309 28.7801H76.6726V28.9275Z" fill="white"/>
<path d="M98.9185 29.3697C96.4 29.3697 94.4412 28.7801 93.0421 27.4536C91.6429 26.2745 90.9434 24.5058 90.9434 22.1476C90.9434 20.6737 91.2232 19.4945 91.9228 18.3154C92.4824 17.2837 93.4618 16.3993 94.5811 15.8098C95.8404 15.2202 97.2395 14.9254 98.7786 14.9254C100.038 14.9254 101.017 15.0728 101.857 15.3676C102.696 15.6624 103.536 15.9571 104.095 16.5467C104.235 16.6941 104.375 16.8415 104.375 16.9889C104.375 17.1363 104.235 17.2837 104.095 17.5784L102.976 19.6419C102.836 19.9367 102.696 20.0841 102.556 20.0841C102.416 20.0841 102.276 19.9367 101.997 19.7893C101.577 19.4945 101.017 19.1997 100.597 19.0524C100.178 18.905 99.6181 18.7576 99.0584 18.7576C98.2189 18.7576 97.3794 19.0524 96.8198 19.6419C96.2601 20.2315 95.9803 21.1158 95.9803 22.1476C95.9803 23.1793 96.2601 24.0636 96.8198 24.6532C97.3794 25.2428 98.079 25.5376 99.0584 25.5376C99.6181 25.5376 100.178 25.3902 100.597 25.2428C101.017 25.0954 101.577 24.8006 101.997 24.5058C102.276 24.3584 102.416 24.211 102.556 24.211C102.696 24.211 102.836 24.3584 102.976 24.6532L104.235 26.8641C104.375 27.0115 104.375 27.1588 104.375 27.3062C104.375 27.4536 104.235 27.601 104.095 27.7484C103.396 28.1906 102.556 28.6328 101.577 28.9275C101.157 29.2223 100.178 29.3697 98.9185 29.3697Z" fill="white"/>
<path d="M111.649 29.3696C109.97 29.3696 108.571 28.78 107.592 27.6009C106.612 26.4218 106.053 24.8005 106.053 22.737C106.053 21.1157 106.333 19.7892 107.032 18.6101C107.732 17.4309 108.711 16.5466 109.97 15.8096C111.23 15.2201 112.769 14.7779 114.308 14.7779C115.707 14.7779 116.826 14.9253 117.945 15.2201C119.065 15.5149 119.904 15.957 120.884 16.5466V27.8957C120.884 28.1905 120.884 28.4852 120.744 28.6326C120.604 28.78 120.324 28.78 120.044 28.78H117.246C117.106 28.78 116.826 28.78 116.826 28.6326C116.686 28.4852 116.686 28.4852 116.546 28.3379L116.127 27.4535C115.567 28.0431 115.007 28.4852 114.308 28.78C113.608 29.2222 112.769 29.3696 111.649 29.3696ZM113.748 25.5374C114.448 25.5374 115.007 25.39 115.427 24.9479C115.847 24.6531 115.987 24.0635 115.987 23.474V19.0522C115.707 18.9048 115.147 18.7574 114.727 18.7574C113.748 18.7574 113.048 19.0522 112.489 19.7892C111.929 20.5261 111.649 21.4105 111.649 22.737C111.509 24.5057 112.209 25.5374 113.748 25.5374Z" fill="white"/>
<path d="M137.952 27.8957C138.092 28.0431 138.092 28.1905 138.092 28.3379C138.092 28.4853 138.092 28.6327 137.952 28.7801C137.812 28.9275 137.672 28.9275 137.532 28.9275H133.335C133.055 28.9275 132.915 28.9275 132.775 28.9275C132.635 28.9275 132.495 28.7801 132.355 28.6327L128.717 23.3266V27.4535C128.717 27.8957 128.577 28.3379 128.438 28.4853C128.158 28.7801 127.878 28.7801 127.318 28.7801H124.66C124.1 28.7801 123.82 28.6327 123.541 28.4853C123.401 28.1905 123.261 27.8957 123.261 27.4535V11.0932C123.261 10.651 123.401 10.2088 123.541 10.0614C123.82 9.76666 124.1 9.61926 124.66 9.61926H127.318C127.878 9.61926 128.158 9.76666 128.438 10.0614C128.717 10.3562 128.717 10.651 128.717 11.0932V20.5262L132.215 15.6623C132.355 15.5149 132.495 15.3675 132.635 15.3675C132.775 15.3675 132.915 15.2201 133.195 15.2201H137.392C137.532 15.2201 137.672 15.2201 137.812 15.3675C137.952 15.5149 137.952 15.6623 137.952 15.8097C137.952 15.9571 137.952 16.1045 137.812 16.2518L133.195 21.8527L137.952 27.8957Z" fill="white"/>
<path d="M146.629 29.3698C145.09 29.3698 143.831 29.075 142.572 28.6328C141.452 28.0433 140.473 27.3063 139.773 26.2746C139.074 25.2428 138.794 23.9163 138.794 22.4424C138.794 20.0842 139.494 18.1681 140.753 16.989C142.012 15.6624 143.971 15.0729 146.349 15.0729C148.728 15.0729 150.547 15.6624 151.666 16.989C152.925 18.1681 153.485 19.9368 153.485 22.1476C153.485 23.032 153.065 23.6215 152.366 23.6215H143.971C143.971 24.5059 144.251 25.0955 144.81 25.5376C145.37 25.9798 146.349 26.1272 147.469 26.1272C148.168 26.1272 148.868 26.1272 149.288 25.9798C149.847 25.8324 150.267 25.5376 150.827 25.3902C151.106 25.2428 151.246 25.2428 151.246 25.2428C151.386 25.2428 151.526 25.3902 151.666 25.5376L152.645 27.3063C152.785 27.4537 152.785 27.6011 152.785 27.7485C152.785 27.8959 152.645 28.0433 152.506 28.1907C151.806 28.6328 150.967 29.075 149.987 29.3698C148.868 29.2224 147.888 29.3698 146.629 29.3698ZM148.728 20.5263C148.728 19.7894 148.588 19.1998 148.168 18.905C147.748 18.4629 147.189 18.3155 146.349 18.3155C145.51 18.3155 144.95 18.4629 144.53 18.905C144.111 19.3472 143.971 19.7894 143.971 20.5263H148.728Z" fill="white"/>
<path d="M162.859 29.3699C161.32 29.3699 159.921 29.2225 158.522 28.9277C157.122 28.6329 156.143 28.0433 155.304 27.4538C155.024 27.3064 154.884 27.0116 154.884 26.8642C154.884 26.7168 154.884 26.5694 155.024 26.422L156.283 24.2112C156.423 23.9164 156.563 23.9164 156.703 23.9164C156.843 23.9164 156.983 23.9164 157.122 24.0638C157.822 24.506 158.522 24.8007 159.361 25.0955C160.201 25.3903 161.04 25.5377 161.88 25.5377C162.719 25.5377 163.279 25.3903 163.698 25.0955C164.118 24.8007 164.258 24.3586 164.258 23.769C164.258 23.1795 163.978 22.7373 163.558 22.4425C163.139 22.1477 162.299 21.7055 161.04 21.2634C159.221 20.5264 157.822 19.7895 156.843 18.9051C155.863 18.0208 155.304 16.6943 155.304 15.2204C155.304 13.3043 156.003 11.9778 157.262 10.946C158.522 9.91428 160.201 9.47211 162.299 9.47211C163.838 9.47211 165.098 9.6195 166.077 9.91428C167.196 10.2091 168.036 10.6512 168.735 11.0934C169.015 11.3882 169.155 11.5356 169.155 11.8304C169.155 11.9777 169.155 12.1251 169.015 12.2725L167.756 14.4834C167.616 14.7782 167.476 14.7782 167.336 14.7782C167.196 14.7782 167.056 14.7782 166.916 14.6308C165.937 13.8938 164.678 13.599 163.139 13.599C162.299 13.599 161.74 13.7464 161.32 14.0412C160.9 14.336 160.76 14.7782 160.76 15.3677C160.76 15.8099 160.9 16.1047 161.04 16.3995C161.32 16.6943 161.6 16.8416 161.88 17.1364C162.299 17.2838 162.859 17.5786 163.558 17.8734L164.118 18.0208C165.377 18.6103 166.497 19.0525 167.196 19.6421C168.036 20.0842 168.595 20.8212 169.015 21.5582C169.435 22.2951 169.575 23.1795 169.575 24.2112C169.575 25.8325 169.015 27.3064 167.756 28.1907C166.916 28.7803 165.098 29.3699 162.859 29.3699Z" fill="white"/>
<path d="M175.592 28.9274C175.312 28.9274 175.173 28.9274 175.033 28.78C174.893 28.6326 174.753 28.4852 174.753 28.1904L171.255 15.957C171.255 15.8096 171.255 15.8096 171.255 15.6622C171.255 15.3674 171.395 15.22 171.815 15.22H175.312C175.592 15.22 175.732 15.22 175.872 15.3674C176.012 15.5148 176.012 15.5148 176.152 15.8096L177.551 22.2948L179.37 17.1361C179.51 16.8413 179.51 16.6939 179.65 16.6939C179.79 16.5465 179.93 16.5465 180.209 16.5465H181.888C182.168 16.5465 182.308 16.5465 182.448 16.6939C182.588 16.8413 182.588 16.9887 182.728 17.1361L184.547 22.2948L186.086 15.8096C186.086 15.6622 186.226 15.5148 186.366 15.3674C186.506 15.22 186.645 15.22 186.785 15.22H190.423C190.843 15.22 190.983 15.3674 190.983 15.6622C190.983 15.6622 190.983 15.8096 190.983 15.957L187.485 28.1904C187.345 28.4852 187.345 28.6326 187.205 28.78C187.065 28.9274 186.925 28.9274 186.645 28.9274H183.987C183.707 28.9274 183.567 28.9274 183.427 28.78C183.288 28.6326 183.148 28.4852 183.148 28.1904L181.329 23.0317L179.51 28.1904C179.37 28.4852 179.37 28.6326 179.23 28.78C179.09 28.9274 178.95 28.9274 178.67 28.9274H175.592Z" fill="white"/>
<path d="M197.417 29.3696C195.738 29.3696 194.339 28.78 193.359 27.6009C192.38 26.4218 191.82 24.8005 191.82 22.737C191.82 21.1157 192.1 19.7892 192.8 18.6101C193.499 17.4309 194.479 16.5466 195.738 15.8096C196.997 15.2201 198.536 14.7779 200.075 14.7779C201.474 14.7779 202.594 14.9253 203.713 15.2201C204.832 15.5149 205.672 15.957 206.651 16.5466V27.8957C206.651 28.1905 206.651 28.4852 206.511 28.6326C206.371 28.78 206.092 28.78 205.812 28.78H203.013C202.874 28.78 202.734 28.78 202.594 28.6326C202.454 28.4852 202.454 28.4852 202.314 28.3379L201.894 27.4535C201.334 28.0431 200.775 28.4852 200.075 28.78C199.376 29.2222 198.536 29.3696 197.417 29.3696ZM199.516 25.5374C200.215 25.5374 200.775 25.39 201.195 24.9479C201.614 24.6531 201.754 24.0635 201.754 23.474V19.0522C201.474 18.9048 200.915 18.7574 200.495 18.7574C199.516 18.7574 198.816 19.0522 198.256 19.7892C197.697 20.5261 197.417 21.4105 197.417 22.737C197.277 24.5057 197.977 25.5374 199.516 25.5374Z" fill="white"/>
<path d="M210.428 34.6758C209.869 34.6758 209.589 34.5285 209.309 34.3811C209.169 34.0863 209.029 33.7915 209.029 33.3493V17.1363C209.869 16.5468 210.848 15.9572 212.107 15.6624C213.367 15.2203 214.626 15.0729 215.885 15.0729C221.342 15.0729 224 17.4311 224 22.295C224 24.5059 223.44 26.2746 222.321 27.6011C221.202 28.9276 219.523 29.5172 217.424 29.5172C216.865 29.5172 216.305 29.3698 215.745 29.2224C215.186 29.075 214.766 28.9276 214.346 28.6328V33.3493C214.346 33.7915 214.206 34.2337 214.066 34.3811C213.786 34.6759 213.507 34.6758 212.947 34.6758H210.428ZM216.305 25.5376C217.144 25.5376 217.704 25.2428 217.984 24.6533C218.404 24.0637 218.543 23.1794 218.543 22.1476C218.543 20.9685 218.264 20.0842 217.844 19.4946C217.424 19.0524 216.725 18.7576 215.745 18.7576C215.186 18.7576 214.626 18.905 214.346 19.0524V23.4742C214.346 24.0637 214.486 24.6533 214.906 24.9481C215.186 25.3902 215.745 25.5376 216.305 25.5376Z" fill="white"/>
<path fillRule="evenodd" clipRule="evenodd" d="M6.29615 6.37666C5.73649 3.42885 7.97513 0.628418 10.7734 0.628418C13.2919 0.628418 15.3906 2.83928 15.3906 5.49231V11.3879C16.0902 11.3879 16.6498 11.3879 17.3494 11.3879C17.9091 11.3879 18.6086 11.3879 19.1683 11.3879V5.49231C19.1683 2.83928 21.267 0.628418 23.7855 0.628418C26.5837 0.628418 28.8224 3.42885 28.2627 6.37666L27.0035 13.304C31.2009 15.2201 34.419 18.6101 34.419 22.8844V25.3901C34.419 28.9275 32.1803 31.8753 29.1022 33.7913C26.0241 35.8548 21.8267 37.0339 17.2095 37.0339C12.5923 37.0339 8.39487 35.8548 5.31675 33.7913C2.23863 31.8753 0 28.9275 0 25.3901V22.8844C0 18.6101 3.21803 15.2201 7.41547 13.304L6.29615 6.37666ZM25.4644 14.3358L26.8636 6.22927C27.2833 4.1658 25.7443 2.24971 23.7855 2.24971C21.9666 2.24971 20.5674 3.72363 20.5674 5.63971V13.1566C20.1477 13.1566 19.588 13.0092 19.1683 13.0092C18.6086 13.0092 17.9091 13.0092 17.3494 13.0092C16.6498 13.0092 16.0902 13.0092 15.3906 13.1566C14.9708 13.1566 14.4112 13.304 13.9914 13.304V5.7871C13.9914 3.87102 12.5923 2.39711 10.7734 2.39711C8.81461 2.39711 7.27555 4.31319 7.6953 6.37666L9.09444 14.6305C4.61718 16.3992 1.53906 19.6418 1.53906 23.3266V25.8322C1.53906 31.4331 8.53478 36.0022 17.2095 36.0022C25.8842 36.0022 32.8799 31.4331 32.8799 25.8322V23.3266C33.0198 19.3471 29.9417 16.1045 25.4644 14.3358Z" fill="white"/>
<path d="M33.0166 25.9678C33.0166 31.5687 26.0209 36.1378 17.3462 36.1378C8.6715 36.1378 1.67578 31.5687 1.67578 25.9678V23.4622L17.3462 30.1717L33.1565 25.9678H33.0166Z" fill="white"/>
<path fillRule="evenodd" clipRule="evenodd" d="M7.27852 5.97802C6.8402 3.79613 8.42021 1.38953 10.4657 1.38953C12.3652 1.38953 14.2714 2.78855 14.2714 4.81459L15.0325 12.4258C15.7634 12.3284 16.0904 12.3528 16.5186 12.3848H16.5186C16.7752 12.404 17.0682 12.4258 17.5061 12.4258C18.1101 12.4258 18.4265 12.3242 18.7323 12.226C19.0184 12.1342 19.2952 12.0453 19.7895 12.0453L19.9798 5.19515C19.9798 3.16911 22.0763 1.38953 23.9757 1.38953C26.0212 1.38953 28.0294 4.34523 27.591 6.52712L26.0688 13.9481C30.8904 15.8183 33.8703 19.8486 33.8703 23.7449C33.4898 32.4054 26.1843 35.6401 17.1256 35.6401C8.06683 35.6401 0.380744 32.5956 1.14196 23.7449C1.14196 19.8486 3.69716 16.0086 8.37264 14.1384L7.27852 5.97802ZM13.0097 22.2948C13.0097 23.7687 12.1702 25.0952 11.3307 25.0952C10.4912 25.0952 9.65175 23.9161 9.65175 22.2948C9.65175 20.8209 10.4912 19.4944 11.3307 19.4944C12.1702 19.4944 13.0097 20.6735 13.0097 22.2948ZM23.3636 25.0952C24.2031 25.0952 25.0426 23.7687 25.0426 22.2948C25.0426 20.6735 24.2031 19.4944 23.3636 19.4944C22.5241 19.4944 21.6846 20.8209 21.6846 22.2948C21.6846 23.9161 22.3842 25.0952 23.3636 25.0952Z" fill="white"/>
</svg>
